<?xml version="1.0" encoding="UTF-8"?>
<svg id="_レイヤー_2" data-name="レイヤー 2" xmlns="http://www.w3.org/2000/svg" xmlns:xlink="http://www.w3.org/1999/xlink" viewBox="0 0 480 90">
  <defs>
    <style>
      .cls-1 {
        fill: #fdf5d1;
      }

      .cls-2 {
        fill: #300;
      }

      .cls-3, .cls-4 {
        fill: none;
      }

      .cls-4 {
        stroke: #040000;
        stroke-width: .5px;
      }

      .cls-5 {
        clip-path: url(#clippath);
      }
    </style>
    <clipPath id="clippath">
      <rect class="cls-3" width="480" height="90"/>
    </clipPath>
  </defs>
  <g id="_デザイン" data-name="デザイン">
    <g class="cls-5">
      <path class="cls-1" d="M60.25,38.16c1.84-3.44,3.69-10.76,4.35-13.2.84-3.09-.77-4-2.11-3.65s-6.53,15.03-8.29,14.74c-.75-.12.92-5.12,1.57-10.73.87-7.53.75-16.19-1.5-15.95-3.93.42-3.02,8.29-4.28,17.97-1.26,9.69-3.51,6.92-4,6.25-1.31-1.81-.49-17.55-.56-21.2-.07-3.65.49-6.32-2.81-7.46-3.3-1.14-4.21,7.67-3.86,15.96.35,8.29-.07,13.9-2.32,13.48-2.25-.42-4.7-19.38-6.53-22.82-1.83-3.44-4.77-1-4.99.98-.25,2.38,3.01,18.37,3.44,24.43.43,6.06-5.85,10.27-4.21,10.29,6.39.07,8,5.62,8,5.62,0,0-2.74-4.63-8.64-4.77-1.2-.03-5.62-2.04-5.97-2.6s-2.18-3.37-6.39-3.44-5.34,1.28-5.41,1.97c-.05.51,1.9,1.6,3.38,2.2,1.7,1.41,2.47,3.23,4.35,5.11,2.25,2.25,6.32,3.79,10.11,9.83,3.79,6.04,6.74,7.44,11.59,10.65s4.7,16.45,4.7,16.45l20.99-9.27c-1.26-1.12-4.91-10.95-5.27-12.36-.06-.23-.31-.37-.68-.44.24-.16.44-.31.6-.47,2.11-2.04,1.76-13.2,2.11-17.76s2.32-7.34,2.25-8.54c-.02-.3-1.63-.66-4.03-1.02,2.52.04,4.26,0,4.38-.25Z"/>
      <g>
        <g>
          <path class="cls-2" d="M107.77,58.78c-.56,0-.94-.29-1.22-.72-.61-.91-.56-5.23-.56-6.34,0-3.74.09-7.44.09-11.19,0-1.3,0-2.59-.05-3.89-1.74,2.16-3.3,4.46-4.9,6.77-1.37,1.92-5.13,7.68-6.97,9.07-.38.29-.8.48-1.27.48-.56,0-1.08-.29-1.55-.62-2.4-1.82-6.83-7.92-8.71-10.37-.94-1.25-1.88-2.5-2.87-3.74-.75,5.28-1.13,10.75-1.13,16.13,0,1.1-.05,2.35.19,3.46.28.24.42.67.42,1.06,0,.77-.66,1.44-1.41,1.44-.52,0-.85-.24-1.18-.58-.89-.86-.85-4.56-.85-5.66,0-2.11.09-4.27.24-6.38.24-4.03.57-8.11,1.27-12.1.14-.86.28-1.87.57-2.69.24-.62.66-1.01,1.32-1.01.75,0,1.46.62,1.46,1.39,0,.43-.19.91-.28,1.3,1.65,1.68,3.06,3.74,4.47,5.62,1.65,2.16,3.25,4.32,4.94,6.38.94,1.1,1.88,2.4,3.01,3.31.89-.91,1.7-2.02,2.45-3.02,1.22-1.68,2.4-3.36,3.58-5.09,1.32-1.92,5.13-7.68,6.92-9.02.38-.29.8-.48,1.27-.48.61,0,1.04.34,1.32.86.61,1.2.56,5.95.56,7.34,0,3.74-.09,7.49-.09,11.23,0,.82,0,4.32.19,4.94.09.24.14.38.14.67,0,.77-.56,1.44-1.37,1.44Z"/>
          <path class="cls-2" d="M136.26,49.04c-2.31,5.76-7.68,11.52-14.13,11.52-5.65,0-7.53-7.01-7.53-11.62,0-4.94,1.98-11.04,6.36-13.73,1.41-3.07,4.1-4.51,7.39-4.51,5.09,0,9.37,5.9,9.37,10.8,0,2.59-.52,5.18-1.46,7.54ZM128.35,33.58c-2.83,0-4.61,1.39-5.32,4.18-.19.62-.19,1.3-.33,1.97-.19.77-.56,1.3-1.41,1.3-.61,0-1.18-.38-1.37-1.01-1.74,2.59-2.5,5.86-2.5,8.93,0,2.83.99,8.74,4.71,8.74,5.42,0,9.84-5.28,11.58-10.03.75-1.97,1.18-4.03,1.18-6.14,0-3.26-3.11-7.92-6.55-7.92Z"/>
          <path class="cls-2" d="M164.51,58.3c-2.31,0-9.89-4.94-12.01-6.24-1.27-.77-2.5-1.58-3.77-2.3-.47-.29-.99-.48-1.46-.77-.33-.19-.61-.48-.75-.82-.19,3.31-.42,6.62-.42,9.94,0,1.06-.05,2.26.24,3.26.33.29.52.72.52,1.15,0,.82-.66,1.39-1.41,1.39-2.4,0-2.12-4.42-2.12-5.95,0-4.75.38-9.5.66-14.26.24-3.46.52-6.96.52-10.42,0-.34.14-.67.33-.91-.09,0-.19.05-.28.05-.75,0-1.37-.67-1.37-1.49,0-2.35,5.89-2.74,7.44-2.74,4.14,0,12.53,1.44,12.53,6.96s-6.59,11.28-11.3,13.11c2.54,1.63,10.41,6.72,12.85,7.15.85.14,1.32.62,1.32,1.54,0,.82-.75,1.34-1.51,1.34ZM150.44,31.13c-1.37,0-3.2.1-4.47.67,1.08.05,1.37.91,1.37,1.87,0,4.42-.52,8.88-.71,13.3.24-.48.71-.77,1.22-.77,4.47,0,12.48-6.19,12.48-11.04,0-3.26-7.63-4.03-9.89-4.03Z"/>
          <path class="cls-2" d="M192.44,49.04c-2.31,5.76-7.68,11.52-14.13,11.52-5.65,0-7.53-7.01-7.53-11.62,0-4.94,1.98-11.04,6.36-13.73,1.41-3.07,4.1-4.51,7.39-4.51,5.09,0,9.37,5.9,9.37,10.8,0,2.59-.52,5.18-1.46,7.54ZM184.53,33.58c-2.83,0-4.61,1.39-5.32,4.18-.19.62-.19,1.3-.33,1.97-.19.77-.57,1.3-1.41,1.3-.61,0-1.18-.38-1.37-1.01-1.74,2.59-2.5,5.86-2.5,8.93,0,2.83.99,8.74,4.71,8.74,5.42,0,9.84-5.28,11.58-10.03.75-1.97,1.18-4.03,1.18-6.14,0-3.26-3.11-7.92-6.55-7.92Z"/>
          <path class="cls-2" d="M237.13,32.67c-.19,2.98-.47,5.95-.61,8.93-.19,3.65-.33,7.3-.33,10.94,0,.86,0,4.9.33,5.57.14.29.24.43.24.82,0,.82-.61,1.44-1.41,1.44-.38,0-.56-.14-.89-.34-1.27-.86-1.08-6.29-1.08-7.58,0-2.59,0-5.23.19-7.82-4.24.05-10.97.38-15.07,1.39-.24,3.17-.47,6.34-.47,9.5,0,.96,0,1.97.14,2.93.47-.34.85-.72,1.46-.72.8,0,1.41.62,1.41,1.39,0,1.34-2.45,2.59-3.53,2.59-2.54,0-2.26-5.28-2.26-6.77,0-1.63.05-3.26.14-4.9.24-4.32.66-8.59,1.13-12.91.24-1.82.42-3.7.75-5.52.14-.72.66-1.25,1.41-1.25.8,0,1.41.67,1.41,1.44v.24c-.52,3.65-1.04,7.3-1.37,10.99,4.85-.91,9.98-1.2,14.93-1.3.09-2.11.24-4.22.42-6.34.05-1.01.09-2.11.28-3.12.14-.72.61-1.25,1.37-1.25.8,0,1.46.67,1.41,1.44v.19Z"/>
          <path class="cls-2" d="M266.28,49.23c.52,2.16,1.04,4.37,1.46,6.53.19,1.1.47,2.3.47,3.41,0,.77-.66,1.44-1.41,1.44s-1.41-.67-1.41-1.44c0-1.06-.33-2.26-.52-3.26-.42-2.16-.94-4.37-1.46-6.53-4.57,0-9.18.05-13.7-.34-1.88,3.7-3.81,7.44-5.42,11.28-.24.62-.66,1.06-1.37,1.06-.75,0-1.41-.72-1.41-1.44,0-1.82,10.5-21.51,12.71-25.2.8-1.3,2.73-4.94,4.52-4.94,1.93,0,3.01,3.5,3.53,4.94,1.37,3.79,2.26,7.78,3.34,11.66.75-.05,1.55-.29,2.26-.29.75,0,1.46.62,1.46,1.44,0,1.63-1.93,1.63-3.06,1.68ZM262.52,45.68c-.89-3.55-2.31-9.12-3.91-12.48-1.22,1.58-2.26,3.41-3.25,5.18-1.46,2.59-2.87,5.23-4.24,7.87,3.3.19,6.64.29,9.98.24h1.6l-.19-.82Z"/>
          <path class="cls-2" d="M299.3,32.86c-.24.91-.28,1.92-.38,2.83-.24,1.82-.38,3.65-.52,5.47-.38,4.94-.75,9.89-.75,14.83,0,.82.09,1.58.09,2.35s-.61,1.44-1.37,1.44-1.27-.53-1.41-1.25c-.19-.96-.09-2.21-.09-3.17-4.76-2.54-12.62-14.21-16.25-18.91-.52,3.6-.9,7.25-1.18,10.9-.24,2.83-.47,5.66-.47,8.54,0,.72-.05,1.58.14,2.3.33.29.52.72.52,1.15,0,.77-.66,1.44-1.41,1.44-2.26,0-2.07-3.65-2.07-5.04,0-3.22.28-6.43.56-9.65.33-3.7.75-7.39,1.27-11.04.09-.67.14-1.63.38-2.26.28-.67.66-1.06,1.37-1.06.38,0,.66.1.94.34.94.72,3.81,4.8,4.61,5.86,2.21,3.02,4.47,6.05,6.88,8.93,1.46,1.78,3.01,3.65,4.8,5.14.09-2.64.94-18.43,1.65-20.07.28-.58.66-1.01,1.37-1.01.75,0,1.37.67,1.37,1.49,0,.14,0,.29-.05.43Z"/>
          <path class="cls-2" d="M324.77,41.26c0,7.34-3.91,14.26-10.27,17.76-1.93,1.1-4.14,1.87-6.36,1.87-.75,0-1.41-.67-1.41-1.44,0-5.47.42-10.95.8-16.42.14-1.87.28-4.13.42-6,.09-.77.14-1.1.24-1.44s.24-.86.47-1.3t-.09.1c-.24.19-.8.38-1.08.38-.8,0-1.41-.67-1.41-1.44,0-.48.19-.82.56-1.15,1.6-1.44,4.29-2.26,6.4-2.26,5.79,0,11.73,5.23,11.73,11.33ZM321.95,41.26c0-4.46-4.61-8.4-8.85-8.4-.85,0-2.02.24-3.01.62.71.19,1.04.82,1.04,1.39,0,.1-.05.19-.05.29-.47,2.98-.61,6.62-.8,9.65-.28,4.32-.56,8.69-.66,13.06,1.74-.34,3.39-1.15,4.85-2.16,4.66-3.26,7.49-8.69,7.49-14.45Z"/>
          <path class="cls-2" d="M341.21,27.39c-.8,0-2.02.62-2.68,1.06-3.58,2.21-6.26,6.1-6.26,10.46s3.67,6.24,7.11,7.73c1.18.53,3.06,1.15,3.06,2.74,0,1.44-3.53,7.01-4.29,8.26-.8,1.34-3.58,5.76-3.91,7.01-.24.86-.38,1.15-1.32,1.34h-.09c-.8,0-1.41-.67-1.41-1.49,0-1.78,6.55-11.86,7.96-14.69-4.9-2.16-9.94-4.51-9.94-10.9,0-3.98,1.79-7.73,4.57-10.51,1.7-1.68,4.76-3.89,7.2-3.89.75,0,1.41.67,1.41,1.44s-.66,1.44-1.41,1.44Z"/>
        </g>
        <g>
          <path class="cls-2" d="M360.22,54.06c-.39.13-2.51.21-3.01.23.14,1.7.27,3.42.27,5.14,0,1.28,0,3.34-1.24,4.12-.1.06-.23.1-.35.1-.33,0-.62-.29-.62-.63,0-.23.1-.36.27-.5.76-.65.7-2.16.7-3.09,0-1.7-.14-3.4-.27-5.1-1.03.04-2.04.1-3.07.1-.33,0-.62-.29-.62-.63s.29-.63.62-.63c.99,0,1.96-.04,2.95-.08v-.08c0-.34-.06-.73-.1-1.07-.08-.84-.14-.99-.14-1.83,0-1.74.41-3.99,2.53-3.99.91,0,1.9.76,2.35,1.53.06.1.1.21.1.34,0,.34-.29.63-.62.63-.23,0-.37-.13-.52-.29-.31-.4-.76-.94-1.32-.94-1.24,0-1.3,1.83-1.3,2.73,0,1.18.19,1.62.25,2.79v.13c.78-.04,2.12-.04,2.86-.19.04,0,.08-.02.14-.02.33,0,.62.29.62.63,0,.31-.21.52-.49.61Z"/>
          <path class="cls-2" d="M365.37,62.04c-2.02,0-3.05-2.31-3.05-4.09,0-.73.12-3.42,1.13-3.42.06,0,.1,0,.17.02.37-1.34,1.38-2.23,2.76-2.23,2.16,0,3.58,1.57,3.58,3.76,0,2.5-1.83,5.96-4.59,5.96ZM366.38,53.57c-.99,0-1.63.82-1.63,1.78,0,.29.12.55.12.8,0,.34-.27.65-.6.65-.27,0-.49-.19-.6-.42-.08.52-.12,1.03-.12,1.55,0,1.05.56,2.83,1.81,2.83,1.98,0,3.36-2.96,3.36-4.7,0-1.45-.86-2.5-2.35-2.5Z"/>
          <path class="cls-2" d="M379.23,54.5c-.37,0-1.01-.65-1.92-.65-1.26,0-2.04,1.36-2.45,2.41-.74,1.85-1.05,3.46-1.19,5.44-.02.36-.29.61-.64.61-.37,0-.58-.31-.6-.65-.02-.57.02-1.15.02-1.72v-1.55c0-1.24-.02-2.48-.04-3.72-.02-.8,0-1.62-.1-2.39v-.1c0-.34.27-.63.6-.63s.56.21.62.52c.08.4.06.88.08,1.28.04.86.06,1.7.06,2.56l.06-.13c.66-1.57,1.71-3.19,3.6-3.19.64,0,2.49.48,2.49,1.3,0,.34-.27.61-.6.61Z"/>
          <path class="cls-2" d="M398.19,60.84c-.66.67-1.36,1.24-2.33,1.24-1.09,0-1.26-1.18-1.26-2.04,0-1.03.14-2.06.14-3.09,0-.21.02-1.39-.31-1.39-.49,0-1.32,1.32-1.52,1.68-.7,1.18-1.24,2.48-1.77,3.76-.17.38-.29.76-.47,1.11-.17.36-.37.78-.82.78-.25,0-.41-.13-.58-.29-.6-.65-.58-4.14-.58-4.93,0-.59,0-1.2.02-1.78.04-2.02.16-4.05.35-6.07.08-.94.17-2.06.37-2.98.06-.31.31-.5.62-.5.33,0,.6.27.6.61v.1c-.56,3.42-.72,6.95-.72,10.39,0,1.03.02,2.04.08,3.04.64-1.51,2.45-6.17,4.41-6.17,1.4,0,1.59,1.57,1.59,2.67,0,1.03-.16,2.06-.16,3.11,0,.21,0,.52.08.71.91-.04,1.36-1.11,1.9-1.11.33,0,.62.27.62.61,0,.23-.1.4-.25.55Z"/>
          <path class="cls-2" d="M409.09,60.31c-.41.82-1.54,1.45-2.43,1.45-.43,0-.62-.15-.91-.44-.95.65-2.14,1.01-3.3,1.01-1.44,0-2.86-.63-2.86-2.31s.89-3.25,2.35-4.07c.45-.25.95-.42,1.46-.42.87,0,1.65.42,2.2,1.09.02-.71.19-1.45.19-2.16,0-1.3-.54-2.04-1.87-2.04s-1.96.42-3.01,1.11c-.12.08-.23.13-.37.13-.33,0-.6-.29-.6-.63,0-.19.1-.36.25-.48,1.05-.88,2.39-1.36,3.73-1.36,2.06,0,3.09,1.28,3.09,3.32,0,.67-.1,1.34-.17,2.02-.1,1.05-.25,2.12-.25,3.19,0,.21,0,.63.1.82.51-.02,1.05-.38,1.32-.82.12-.21.29-.31.54-.31.33,0,.62.27.62.61,0,.13-.04.21-.08.31ZM405.26,57.75c-.56,0-.78-.99-1.85-.99-.35,0-.68.13-.99.31-.99.61-1.61,1.76-1.61,2.94,0,.88.93,1.07,1.63,1.07.99,0,2.18-.38,2.95-1.05v-.31c-.02-.67.06-1.34.12-2.02-.08.02-.17.04-.25.04Z"/>
          <path class="cls-2" d="M417.76,59.22c-1.22,1.22-2.86,2.06-4.55,2.35-.04,1.41-.1,2.81-.1,4.2,0,.46-.02.94.06,1.39.06.1.12.23.12.36,0,.36-.29.63-.62.63-.21,0-.33-.04-.47-.19-.37-.34-.33-1.85-.33-2.31,0-1.3.04-2.6.08-3.93-.45,0-.89-.08-.89-.67,0-.55.54-.59.93-.61v-.06c0-1.97.14-3.93.14-5.92-.1.08-.25.13-.37.13-.33,0-.6-.25-.6-.61,0-.21.08-.36.23-.5.78-.71,2.2-1.05,3.23-1.05,2.1,0,4.72,1.18,4.72,3.63,0,1.24-.76,2.35-1.59,3.17ZM414.65,53.68c-.45,0-.89.06-1.32.17.02.08.04.15.04.21,0,2.08-.06,4.16-.12,6.24,1.32-.29,2.68-1.01,3.65-1.97.58-.57,1.22-1.39,1.22-2.27,0-1.7-2.1-2.37-3.46-2.37Z"/>
          <path class="cls-2" d="M428.35,59.22c-1.22,1.22-2.86,2.06-4.55,2.35-.04,1.41-.1,2.81-.1,4.2,0,.46-.02.94.06,1.39.06.1.12.23.12.36,0,.36-.29.63-.62.63-.21,0-.33-.04-.47-.19-.37-.34-.33-1.85-.33-2.31,0-1.3.04-2.6.08-3.93-.45,0-.89-.08-.89-.67,0-.55.54-.59.93-.61v-.06c0-1.97.14-3.93.14-5.92-.1.08-.25.13-.37.13-.33,0-.6-.25-.6-.61,0-.21.08-.36.23-.5.78-.71,2.2-1.05,3.23-1.05,2.1,0,4.72,1.18,4.72,3.63,0,1.24-.76,2.35-1.59,3.17ZM425.24,53.68c-.45,0-.89.06-1.32.17.02.08.04.15.04.21,0,2.08-.06,4.16-.12,6.24,1.32-.29,2.68-1.01,3.65-1.97.58-.57,1.22-1.39,1.22-2.27,0-1.7-2.1-2.37-3.46-2.37Z"/>
          <path class="cls-2" d="M433.96,62.35c-1.4,0-1.48-3.15-1.48-4.07,0-.99.06-2.04.29-2.98.06-.29.29-.5.6-.5.33,0,.62.29.62.63,0,.04-.02.08-.02.13-.16.86-.27,1.74-.27,2.62,0,.78.08,2.12.39,2.83.19-.19.27-.36.58-.36.33,0,.62.29.62.63,0,.59-.8,1.07-1.32,1.07ZM434.82,51.31c-.66,0-1.28-1.36-1.5-1.83-.06-.1-.1-.23-.1-.36,0-.36.27-.63.62-.63.23,0,.43.13.54.34.17.34.54,1.11.82,1.34.14.13.25.31.25.5,0,.36-.27.63-.62.63Z"/>
          <path class="cls-2" d="M446.01,61.64c-1.54,0-1.61-1.97-1.61-3.11,0-.71.04-1.41.04-2.1,0-.38-.02-1.93-.35-2.06-.06-.02-.12-.04-.21-.04-.93,0-2.41,1.62-2.93,2.31-.33.42-.62.86-.89,1.32-.1.17-.25.27-.45.31,0,1.01.02,2.08.08,3.09v.08c.02.36-.27.65-.62.65-.31,0-.54-.25-.6-.55-.14-.78-.12-2.65-.12-3.49,0-1.03.02-2.08.04-3.11.02-.52,0-1.09.06-1.6.04-.34.27-.59.62-.59s.64.29.62.63v.06c-.04.97-.06,1.91-.08,2.88.87-1.24,2.66-3.28,4.28-3.28s1.77,1.93,1.77,3.19c0,.73-.04,1.45-.04,2.18,0,.23,0,1.93.35,1.93.12,0,.25-.06.37-.06.35,0,.62.29.62.65,0,.52-.54.67-.97.67Z"/>
          <path class="cls-2" d="M457.82,60.06c-.16.17-.39.34-.6.48-1.17.86-2.6,1.39-4.06,1.39-2.57,0-4.06-1.41-4.06-4.05,0-.82.12-1.64.39-2.41.58-1.81,2.04-3.7,4.08-3.7,1.69,0,3.56,1.87,3.56,3.59,0,1.97-4.47,2.65-5.89,2.65-.41,0-.8-.04-.89-.57v.44c0,1.93.93,2.79,2.8,2.79,1.15,0,2.31-.42,3.25-1.07.21-.15.39-.31.6-.48.12-.1.25-.15.39-.15.35,0,.62.27.62.61,0,.21-.06.34-.21.48ZM455.32,54.08c-.39-.55-1.05-1.05-1.75-1.05-1.94,0-3.01,2.5-3.19,4.16.14-.48.54-.44.93-.44,1.01,0,3.93-.48,4.59-1.34v-.06c0-.38-.37-.97-.58-1.26Z"/>
          <path class="cls-2" d="M461.34,62.48s-.08.02-.1.02c-.35,0-.62-.29-.62-.63s.23-.57.51-.63c.35-.08.7-.15,1.05-.25,1.03-.29,2.64-1.03,3.25-1.97.12-.21.25-.42.25-.67,0-1.95-5.44.08-5.44-2.96,0-.71.31-1.39.76-1.91.82-.97,2.9-2.18,4.2-2.18.56,0,1.46.67,1.46,1.28,0,.36-.31.63-.64.63-.47,0-.49-.46-.87-.65-1.13.1-3.71,1.49-3.71,2.83,0,.06,0,.13.02.19.23.92,5.44-.38,5.44,2.77,0,2.39-3.71,3.84-5.58,4.14Z"/>
          <path class="cls-2" d="M470.49,62.48s-.08.02-.1.02c-.35,0-.62-.29-.62-.63s.23-.57.51-.63c.35-.08.7-.15,1.05-.25,1.03-.29,2.64-1.03,3.25-1.97.12-.21.25-.42.25-.67,0-1.95-5.44.08-5.44-2.96,0-.71.31-1.39.76-1.91.82-.97,2.9-2.18,4.2-2.18.56,0,1.46.67,1.46,1.28,0,.36-.31.63-.64.63-.47,0-.49-.46-.87-.65-1.13.1-3.71,1.49-3.71,2.83,0,.06,0,.13.02.19.23.92,5.44-.38,5.44,2.77,0,2.39-3.71,3.84-5.58,4.14Z"/>
        </g>
      </g>
      <path class="cls-4" d="M38.89,86.26s.15-13.24-4.7-16.45c-4.85-3.21-7.8-4.61-11.59-10.65s-7.86-7.58-10.11-9.83-2.89-4.44-5.48-5.9c-3.82-2.16,1.54-2.66,2.53-1.75s1.01,3.12-.14,2.94-4.7-1.91-4.63-2.6,1.19-2.04,5.41-1.97,6.04,2.88,6.39,3.44,4.77,2.57,5.97,2.6c5.9.14,8.64,4.77,8.64,4.77,0,0-1.61-5.55-8-5.62-1.64-.02,4.64-4.23,4.21-10.29-.43-6.06-3.69-22.05-3.44-24.43.21-1.99,3.16-4.42,4.99-.98s4.28,22.4,6.53,22.82,2.67-5.2,2.32-13.48c-.35-8.29.56-17.1,3.86-15.96s2.74,3.81,2.81,7.46-.75,19.4.56,21.2c.49.67,2.74,3.44,4-6.25,1.26-9.69.35-17.55,4.28-17.97,2.25-.24,2.37,8.42,1.5,15.95-.65,5.61-2.32,10.61-1.57,10.73,1.76.28,6.95-14.39,8.29-14.74s2.95.56,2.11,3.65c-.67,2.44-2.51,9.76-4.35,13.2-.31.57-10.04.04-17.55-.14-4.46-.11-8.37.59-8.43-.14-.14-1.97,25.56.35,25.63,1.54s-1.9,3.97-2.25,8.54,0,15.73-2.11,17.76-11.3,4.28-9.2,2.81,8.92-3.3,9.27-1.9,4,11.23,5.27,12.36"/>
    </g>
  </g>
</svg>