<?xml version="1.0" encoding="UTF-8"?>
<svg id="_レイヤー_2" data-name="レイヤー 2" xmlns="http://www.w3.org/2000/svg" xmlns:xlink="http://www.w3.org/1999/xlink" viewBox="0 0 330 85">
  <defs>
    <style>
      .cls-1 {
        stroke: #040000;
        stroke-width: .41px;
      }

      .cls-1, .cls-2 {
        fill: none;
      }

      .cls-3 {
        fill: #fdf5d1;
      }

      .cls-4 {
        fill: #300;
      }

      .cls-5 {
        clip-path: url(#clippath);
      }
    </style>
    <clipPath id="clippath">
      <rect class="cls-2" width="330" height="85"/>
    </clipPath>
  </defs>
  <g id="_デザイン" data-name="デザイン">
    <g class="cls-5">
      <g>
        <g>
          <path class="cls-4" d="M98.03,48.88c-.55,0-.92-.28-1.2-.71-.6-.89-.55-5.12-.55-6.2,0-3.67.09-7.28.09-10.95,0-1.27,0-2.54-.05-3.81-1.71,2.12-3.23,4.37-4.8,6.63-1.34,1.88-5.03,7.52-6.82,8.88-.37.28-.78.47-1.25.47-.55,0-1.06-.28-1.52-.61-2.35-1.79-6.69-7.75-8.53-10.15-.92-1.22-1.84-2.44-2.81-3.67-.74,5.17-1.11,10.53-1.11,15.79,0,1.08-.05,2.3.18,3.38.28.24.42.66.42,1.03,0,.75-.65,1.41-1.38,1.41-.51,0-.83-.24-1.15-.56-.88-.85-.83-4.46-.83-5.55,0-2.07.09-4.18.23-6.25.23-3.95.55-7.94,1.25-11.84.14-.85.28-1.83.55-2.63.23-.61.65-.99,1.29-.99.74,0,1.43.61,1.43,1.36,0,.42-.18.89-.28,1.27,1.61,1.64,3,3.67,4.38,5.5,1.61,2.11,3.18,4.23,4.84,6.25.92,1.08,1.84,2.35,2.95,3.24.88-.89,1.66-1.97,2.4-2.96,1.2-1.65,2.35-3.29,3.5-4.98,1.29-1.88,5.03-7.52,6.78-8.84.37-.28.78-.47,1.25-.47.6,0,1.01.33,1.29.85.6,1.17.55,5.83.55,7.19,0,3.67-.09,7.33-.09,11,0,.8,0,4.23.18,4.84.09.24.14.38.14.66,0,.75-.55,1.41-1.34,1.41Z"/>
          <path class="cls-4" d="M125.93,39.34c-2.26,5.64-7.52,11.28-13.83,11.28-5.53,0-7.38-6.86-7.38-11.37,0-4.84,1.94-10.81,6.22-13.44,1.38-3.01,4.01-4.42,7.24-4.42,4.98,0,9.18,5.78,9.18,10.57,0,2.54-.51,5.08-1.43,7.38ZM118.18,24.21c-2.77,0-4.52,1.36-5.21,4.09-.18.61-.18,1.27-.32,1.93-.18.75-.55,1.27-1.38,1.27-.6,0-1.15-.38-1.34-.99-1.71,2.54-2.44,5.73-2.44,8.74,0,2.77.97,8.55,4.61,8.55,5.3,0,9.64-5.17,11.34-9.82.74-1.93,1.15-3.95,1.15-6.02,0-3.2-3.04-7.75-6.41-7.75Z"/>
          <path class="cls-4" d="M153.59,48.41c-2.26,0-9.68-4.84-11.76-6.11-1.25-.75-2.44-1.55-3.69-2.26-.46-.28-.97-.47-1.43-.75-.32-.19-.6-.47-.74-.8-.18,3.24-.42,6.49-.42,9.73,0,1.03-.05,2.21.23,3.2.32.28.51.71.51,1.13,0,.8-.65,1.36-1.38,1.36-2.35,0-2.07-4.32-2.07-5.83,0-4.65.37-9.31.65-13.96.23-3.38.51-6.81.51-10.2,0-.33.14-.66.32-.89-.09,0-.18.05-.28.05-.74,0-1.34-.66-1.34-1.46,0-2.3,5.76-2.68,7.29-2.68,4.06,0,12.27,1.41,12.27,6.81s-6.46,11.04-11.07,12.83c2.49,1.6,10.19,6.58,12.59,7,.83.14,1.29.61,1.29,1.5,0,.8-.74,1.32-1.48,1.32ZM139.81,21.81c-1.34,0-3.14.09-4.38.66,1.06.05,1.34.89,1.34,1.83,0,4.32-.51,8.69-.69,13.02.23-.47.69-.75,1.2-.75,4.38,0,12.22-6.06,12.22-10.81,0-3.2-7.47-3.95-9.68-3.95Z"/>
          <path class="cls-4" d="M180.94,39.34c-2.26,5.64-7.52,11.28-13.83,11.28-5.53,0-7.38-6.86-7.38-11.37,0-4.84,1.94-10.81,6.22-13.44,1.38-3.01,4.01-4.42,7.24-4.42,4.98,0,9.18,5.78,9.18,10.57,0,2.54-.51,5.08-1.43,7.38ZM173.19,24.21c-2.77,0-4.52,1.36-5.21,4.09-.18.61-.18,1.27-.32,1.93-.18.75-.55,1.27-1.38,1.27-.6,0-1.15-.38-1.34-.99-1.71,2.54-2.44,5.73-2.44,8.74,0,2.77.97,8.55,4.61,8.55,5.3,0,9.64-5.17,11.34-9.82.74-1.93,1.15-3.95,1.15-6.02,0-3.2-3.04-7.75-6.41-7.75Z"/>
          <path class="cls-4" d="M224.7,23.32c-.18,2.91-.46,5.83-.6,8.74-.18,3.57-.32,7.14-.32,10.72,0,.85,0,4.79.32,5.45.14.28.23.42.23.8,0,.8-.6,1.41-1.38,1.41-.37,0-.55-.14-.88-.33-1.25-.85-1.06-6.16-1.06-7.43,0-2.54,0-5.12.18-7.66-4.15.05-10.74.38-14.76,1.36-.23,3.1-.46,6.2-.46,9.31,0,.94,0,1.93.14,2.87.46-.33.83-.71,1.43-.71.78,0,1.38.61,1.38,1.36,0,1.32-2.4,2.54-3.46,2.54-2.49,0-2.21-5.17-2.21-6.63,0-1.6.05-3.2.14-4.79.23-4.23.65-8.41,1.11-12.64.23-1.79.42-3.62.74-5.4.14-.71.65-1.22,1.38-1.22.78,0,1.38.66,1.38,1.41v.23c-.51,3.57-1.01,7.14-1.34,10.76,4.75-.89,9.78-1.18,14.62-1.27.09-2.07.23-4.14.42-6.2.05-.99.09-2.07.28-3.05.14-.71.6-1.22,1.34-1.22.78,0,1.43.66,1.38,1.41v.19Z"/>
          <path class="cls-4" d="M253.24,39.53c.51,2.11,1.01,4.28,1.43,6.39.18,1.08.46,2.26.46,3.34,0,.75-.65,1.41-1.38,1.41s-1.38-.66-1.38-1.41c0-1.03-.32-2.21-.51-3.2-.42-2.11-.92-4.28-1.43-6.39-4.47,0-8.99.05-13.42-.33-1.84,3.62-3.73,7.28-5.3,11.04-.23.61-.65,1.03-1.34,1.03-.74,0-1.38-.71-1.38-1.41,0-1.79,10.28-21.05,12.45-24.67.78-1.27,2.67-4.84,4.43-4.84,1.89,0,2.95,3.43,3.46,4.84,1.34,3.71,2.21,7.61,3.27,11.42.74-.05,1.52-.28,2.21-.28.74,0,1.43.61,1.43,1.41,0,1.6-1.89,1.6-3,1.65ZM249.55,36.05c-.88-3.48-2.26-8.93-3.83-12.22-1.2,1.55-2.21,3.34-3.18,5.08-1.43,2.54-2.81,5.12-4.15,7.71,3.23.19,6.5.28,9.78.24h1.57l-.18-.8Z"/>
          <path class="cls-4" d="M285.57,23.51c-.23.89-.28,1.88-.37,2.77-.23,1.79-.37,3.57-.51,5.36-.37,4.84-.74,9.68-.74,14.52,0,.8.09,1.55.09,2.3s-.6,1.41-1.34,1.41-1.25-.52-1.38-1.22c-.18-.94-.09-2.16-.09-3.1-4.66-2.49-12.36-13.91-15.91-18.52-.51,3.52-.88,7.1-1.15,10.67-.23,2.77-.46,5.55-.46,8.37,0,.71-.05,1.55.14,2.26.32.28.51.71.51,1.13,0,.75-.65,1.41-1.38,1.41-2.21,0-2.03-3.57-2.03-4.93,0-3.15.28-6.3.55-9.45.32-3.62.74-7.24,1.25-10.81.09-.66.14-1.6.37-2.21.28-.66.65-1.03,1.34-1.03.37,0,.65.09.92.33.92.71,3.73,4.7,4.52,5.73,2.17,2.96,4.38,5.92,6.73,8.74,1.43,1.74,2.95,3.57,4.7,5.03.09-2.58.92-18.05,1.61-19.64.28-.56.65-.99,1.34-.99.74,0,1.34.66,1.34,1.46,0,.14,0,.28-.05.42Z"/>
          <path class="cls-4" d="M310.52,31.73c0,7.19-3.83,13.96-10.05,17.39-1.89,1.08-4.06,1.83-6.23,1.83-.74,0-1.38-.66-1.38-1.41,0-5.36.42-10.72.78-16.07.14-1.83.28-4.04.42-5.88.09-.75.14-1.08.23-1.41.09-.33.23-.85.46-1.27t-.09.09c-.23.19-.78.38-1.06.38-.78,0-1.38-.66-1.38-1.41,0-.47.18-.8.55-1.13,1.57-1.41,4.2-2.21,6.27-2.21,5.67,0,11.48,5.12,11.48,11.09ZM307.75,31.73c0-4.37-4.52-8.22-8.67-8.22-.83,0-1.98.24-2.95.61.69.19,1.01.8,1.01,1.36,0,.09-.05.19-.05.28-.46,2.91-.6,6.49-.78,9.45-.28,4.23-.55,8.51-.65,12.78,1.71-.33,3.32-1.13,4.75-2.11,4.56-3.2,7.33-8.51,7.33-14.15Z"/>
          <path class="cls-4" d="M326.61,18.15c-.78,0-1.98.61-2.63,1.03-3.5,2.16-6.13,5.97-6.13,10.25s3.6,6.11,6.96,7.57c1.15.52,3,1.13,3,2.68,0,1.41-3.46,6.86-4.2,8.08-.78,1.32-3.5,5.64-3.83,6.86-.23.85-.37,1.13-1.29,1.32h-.09c-.78,0-1.38-.66-1.38-1.46,0-1.74,6.41-11.61,7.79-14.38-4.79-2.11-9.73-4.42-9.73-10.67,0-3.9,1.75-7.57,4.47-10.29,1.66-1.65,4.66-3.81,7.06-3.81.74,0,1.38.66,1.38,1.41s-.65,1.41-1.38,1.41Z"/>
        </g>
        <g>
          <path class="cls-4" d="M212.23,70.51c-.39.13-2.51.21-3.01.23.14,1.7.27,3.42.27,5.14,0,1.28,0,3.34-1.24,4.12-.1.06-.23.1-.35.1-.33,0-.62-.29-.62-.63,0-.23.1-.36.27-.5.76-.65.7-2.16.7-3.09,0-1.7-.14-3.4-.27-5.1-1.03.04-2.04.1-3.07.1-.33,0-.62-.29-.62-.63s.29-.63.62-.63c.99,0,1.96-.04,2.95-.08v-.08c0-.34-.06-.73-.1-1.07-.08-.84-.14-.99-.14-1.83,0-1.74.41-3.99,2.53-3.99.91,0,1.89.76,2.35,1.53.06.1.1.21.1.34,0,.34-.29.63-.62.63-.23,0-.37-.13-.51-.29-.31-.4-.76-.94-1.32-.94-1.24,0-1.3,1.83-1.3,2.73,0,1.18.19,1.62.25,2.79v.13c.78-.04,2.12-.04,2.86-.19.04,0,.08-.02.14-.02.33,0,.62.29.62.63,0,.31-.21.52-.49.61Z"/>
          <path class="cls-4" d="M217.38,78.49c-2.02,0-3.05-2.31-3.05-4.09,0-.73.12-3.42,1.13-3.42.06,0,.1,0,.16.02.37-1.34,1.38-2.23,2.76-2.23,2.16,0,3.58,1.57,3.58,3.76,0,2.5-1.83,5.96-4.59,5.96ZM218.39,70.03c-.99,0-1.63.82-1.63,1.78,0,.29.12.55.12.8,0,.34-.27.65-.6.65-.27,0-.5-.19-.6-.42-.08.52-.12,1.03-.12,1.55,0,1.05.56,2.83,1.81,2.83,1.98,0,3.36-2.96,3.36-4.7,0-1.45-.87-2.5-2.35-2.5Z"/>
          <path class="cls-4" d="M231.25,70.95c-.37,0-1.01-.65-1.92-.65-1.26,0-2.04,1.36-2.45,2.41-.74,1.85-1.05,3.46-1.2,5.44-.02.36-.29.61-.64.61-.37,0-.58-.31-.6-.65-.02-.57.02-1.15.02-1.72v-1.55c0-1.24-.02-2.48-.04-3.72-.02-.8,0-1.62-.1-2.39v-.1c0-.34.27-.63.6-.63s.56.21.62.52c.08.4.06.88.08,1.28.04.86.06,1.7.06,2.56l.06-.13c.66-1.57,1.71-3.19,3.6-3.19.64,0,2.49.48,2.49,1.3,0,.34-.27.61-.6.61Z"/>
          <path class="cls-4" d="M250.2,77.29c-.66.67-1.36,1.24-2.33,1.24-1.09,0-1.26-1.18-1.26-2.04,0-1.03.14-2.06.14-3.09,0-.21.02-1.39-.31-1.39-.49,0-1.32,1.32-1.52,1.68-.7,1.18-1.24,2.48-1.77,3.76-.17.38-.29.76-.47,1.11-.17.36-.37.78-.82.78-.25,0-.41-.13-.58-.29-.6-.65-.58-4.14-.58-4.93,0-.59,0-1.2.02-1.78.04-2.02.16-4.05.35-6.07.08-.94.17-2.06.37-2.98.06-.31.31-.5.62-.5.33,0,.6.27.6.61v.1c-.56,3.42-.72,6.95-.72,10.39,0,1.03.02,2.04.08,3.04.64-1.51,2.45-6.17,4.41-6.17,1.4,0,1.59,1.57,1.59,2.67,0,1.03-.17,2.06-.17,3.11,0,.21,0,.52.08.71.91-.04,1.36-1.11,1.9-1.11.33,0,.62.27.62.61,0,.23-.1.4-.25.55Z"/>
          <path class="cls-4" d="M261.1,76.77c-.41.82-1.54,1.45-2.43,1.45-.43,0-.62-.15-.91-.44-.95.65-2.14,1.01-3.3,1.01-1.44,0-2.86-.63-2.86-2.31s.89-3.25,2.35-4.07c.45-.25.95-.42,1.46-.42.87,0,1.65.42,2.21,1.09.02-.71.18-1.45.18-2.16,0-1.3-.54-2.04-1.87-2.04s-1.96.42-3.01,1.11c-.12.08-.23.13-.37.13-.33,0-.6-.29-.6-.63,0-.19.1-.36.25-.48,1.05-.88,2.39-1.36,3.73-1.36,2.06,0,3.09,1.28,3.09,3.32,0,.67-.1,1.34-.17,2.02-.1,1.05-.25,2.12-.25,3.19,0,.21,0,.63.1.82.51-.02,1.05-.38,1.32-.82.12-.21.29-.31.54-.31.33,0,.62.27.62.61,0,.13-.04.21-.08.31ZM257.27,74.21c-.56,0-.78-.99-1.85-.99-.35,0-.68.13-.99.31-.99.61-1.61,1.76-1.61,2.94,0,.88.93,1.07,1.63,1.07.99,0,2.18-.38,2.95-1.05v-.31c-.02-.67.06-1.34.12-2.02-.08.02-.17.04-.25.04Z"/>
          <path class="cls-4" d="M269.77,75.67c-1.22,1.22-2.86,2.06-4.55,2.35-.04,1.41-.1,2.81-.1,4.2,0,.46-.02.94.06,1.39.06.1.12.23.12.36,0,.36-.29.63-.62.63-.21,0-.33-.04-.47-.19-.37-.34-.33-1.85-.33-2.31,0-1.3.04-2.6.08-3.93-.45,0-.88-.08-.88-.67,0-.55.54-.59.93-.61v-.06c0-1.97.14-3.93.14-5.92-.1.08-.25.13-.37.13-.33,0-.6-.25-.6-.61,0-.21.08-.36.23-.5.78-.71,2.2-1.05,3.23-1.05,2.1,0,4.72,1.18,4.72,3.63,0,1.24-.76,2.35-1.59,3.17ZM266.66,70.13c-.45,0-.89.06-1.32.17.02.08.04.15.04.21,0,2.08-.06,4.16-.12,6.24,1.32-.29,2.68-1.01,3.65-1.97.58-.57,1.22-1.39,1.22-2.27,0-1.7-2.1-2.37-3.46-2.37Z"/>
          <path class="cls-4" d="M280.37,75.67c-1.22,1.22-2.86,2.06-4.55,2.35-.04,1.41-.1,2.81-.1,4.2,0,.46-.02.94.06,1.39.06.1.12.23.12.36,0,.36-.29.63-.62.63-.21,0-.33-.04-.47-.19-.37-.34-.33-1.85-.33-2.31,0-1.3.04-2.6.08-3.93-.45,0-.89-.08-.89-.67,0-.55.54-.59.93-.61v-.06c0-1.97.14-3.93.14-5.92-.1.08-.25.13-.37.13-.33,0-.6-.25-.6-.61,0-.21.08-.36.23-.5.78-.71,2.2-1.05,3.23-1.05,2.1,0,4.72,1.18,4.72,3.63,0,1.24-.76,2.35-1.59,3.17ZM277.25,70.13c-.45,0-.89.06-1.32.17.02.08.04.15.04.21,0,2.08-.06,4.16-.12,6.24,1.32-.29,2.68-1.01,3.65-1.97.58-.57,1.21-1.39,1.21-2.27,0-1.7-2.1-2.37-3.46-2.37Z"/>
          <path class="cls-4" d="M285.97,78.8c-1.4,0-1.48-3.15-1.48-4.07,0-.99.06-2.04.29-2.98.06-.29.29-.5.6-.5.33,0,.62.29.62.63,0,.04-.02.08-.02.13-.17.86-.27,1.74-.27,2.62,0,.78.08,2.12.39,2.83.19-.19.27-.36.58-.36.33,0,.62.29.62.63,0,.59-.8,1.07-1.32,1.07ZM286.83,67.76c-.66,0-1.28-1.36-1.5-1.83-.06-.1-.1-.23-.1-.36,0-.36.27-.63.62-.63.23,0,.43.13.54.34.17.34.54,1.11.82,1.34.14.13.25.31.25.5,0,.36-.27.63-.62.63Z"/>
          <path class="cls-4" d="M298.02,78.09c-1.54,0-1.61-1.97-1.61-3.11,0-.71.04-1.41.04-2.1,0-.38-.02-1.93-.35-2.06-.06-.02-.12-.04-.21-.04-.93,0-2.41,1.62-2.93,2.31-.33.42-.62.86-.89,1.32-.1.17-.25.27-.45.31,0,1.01.02,2.08.08,3.09v.08c.02.36-.27.65-.62.65-.31,0-.54-.25-.6-.55-.14-.78-.12-2.65-.12-3.49,0-1.03.02-2.08.04-3.11.02-.52,0-1.09.06-1.6.04-.34.27-.59.62-.59s.64.29.62.63v.06c-.04.97-.06,1.91-.08,2.88.87-1.24,2.66-3.28,4.28-3.28s1.77,1.93,1.77,3.19c0,.73-.04,1.45-.04,2.18,0,.23,0,1.93.35,1.93.12,0,.25-.06.37-.06.35,0,.62.29.62.65,0,.52-.54.67-.97.67Z"/>
          <path class="cls-4" d="M309.83,76.51c-.17.17-.39.34-.6.48-1.17.86-2.6,1.39-4.06,1.39-2.57,0-4.06-1.41-4.06-4.05,0-.82.12-1.64.39-2.41.58-1.81,2.04-3.7,4.08-3.7,1.69,0,3.56,1.87,3.56,3.59,0,1.97-4.47,2.65-5.89,2.65-.41,0-.8-.04-.89-.57v.44c0,1.93.93,2.79,2.8,2.79,1.15,0,2.31-.42,3.25-1.07.21-.15.39-.31.6-.48.12-.1.25-.15.39-.15.35,0,.62.27.62.61,0,.21-.06.34-.21.48ZM307.33,70.53c-.39-.55-1.05-1.05-1.75-1.05-1.94,0-3.01,2.5-3.19,4.16.14-.48.54-.44.93-.44,1.01,0,3.93-.48,4.59-1.34v-.06c0-.38-.37-.97-.58-1.26Z"/>
          <path class="cls-4" d="M313.35,78.93s-.08.02-.1.02c-.35,0-.62-.29-.62-.63s.23-.57.51-.63c.35-.08.7-.15,1.05-.25,1.03-.29,2.64-1.03,3.25-1.97.12-.21.25-.42.25-.67,0-1.95-5.44.08-5.44-2.96,0-.71.31-1.39.76-1.91.82-.97,2.91-2.18,4.2-2.18.56,0,1.46.67,1.46,1.28,0,.36-.31.63-.64.63-.47,0-.5-.46-.87-.65-1.13.1-3.71,1.49-3.71,2.83,0,.06,0,.13.02.19.23.92,5.44-.38,5.44,2.77,0,2.39-3.71,3.84-5.58,4.14Z"/>
          <path class="cls-4" d="M322.5,78.93s-.08.02-.1.02c-.35,0-.62-.29-.62-.63s.23-.57.51-.63c.35-.08.7-.15,1.05-.25,1.03-.29,2.64-1.03,3.25-1.97.12-.21.25-.42.25-.67,0-1.95-5.44.08-5.44-2.96,0-.71.31-1.39.76-1.91.82-.97,2.9-2.18,4.2-2.18.56,0,1.46.67,1.46,1.28,0,.36-.31.63-.64.63-.47,0-.5-.46-.87-.65-1.13.1-3.71,1.49-3.71,2.83,0,.06,0,.13.02.19.23.92,5.44-.38,5.44,2.77,0,2.39-3.71,3.84-5.58,4.14Z"/>
        </g>
      </g>
      <g>
        <path class="cls-3" d="M46.41,34.56c1.49-2.79,2.99-8.72,3.53-10.69.68-2.5-.63-3.24-1.71-2.96s-5.29,12.17-6.71,11.94c-.61-.1.74-4.15,1.27-8.69.71-6.1.61-13.12-1.22-12.92-3.18.34-2.45,6.71-3.47,14.56-1.02,7.85-2.85,5.61-3.24,5.06-1.06-1.46-.4-14.22-.45-17.18-.06-2.96.4-5.12-2.27-6.04-2.67-.93-3.41,6.21-3.13,12.93.28,6.71-.06,11.26-1.88,10.92-1.82-.34-3.81-15.7-5.29-18.48-1.48-2.79-3.87-.81-4.04.8-.2,1.93,2.44,14.88,2.79,19.79.35,4.91-4.74,8.32-3.41,8.34,5.18.06,6.48,4.55,6.48,4.55,0,0-2.22-3.75-7-3.87-.97-.02-4.55-1.65-4.83-2.1s-1.76-2.73-5.18-2.79-4.33,1.03-4.38,1.59c-.04.41,1.54,1.29,2.73,1.78,1.38,1.14,2,2.62,3.52,4.14,1.82,1.82,5.12,3.07,8.19,7.96,3.07,4.89,5.46,6.03,9.39,8.63,3.93,2.6,3.81,13.33,3.81,13.33l17-7.51c-1.02-.91-3.98-8.87-4.27-10.01-.05-.19-.25-.3-.55-.36.19-.13.36-.25.49-.38,1.71-1.65,1.42-10.69,1.71-14.39.28-3.7,1.88-5.95,1.82-6.91-.01-.24-1.32-.54-3.27-.82,2.04.03,3.45,0,3.55-.2Z"/>
        <path class="cls-1" d="M29.11,73.53s.12-10.73-3.81-13.33c-3.93-2.6-6.32-3.74-9.39-8.63-3.07-4.89-6.37-6.14-8.19-7.96s-2.34-3.59-4.44-4.78c-3.09-1.75,1.25-2.15,2.05-1.42s.82,2.53-.11,2.38-3.81-1.55-3.75-2.1.97-1.65,4.38-1.59,4.89,2.33,5.18,2.79,3.87,2.08,4.83,2.1c4.78.11,7,3.87,7,3.87,0,0-1.31-4.49-6.48-4.55-1.33-.01,3.76-3.43,3.41-8.34-.35-4.91-2.99-17.86-2.79-19.79.17-1.61,2.56-3.58,4.04-.8,1.48,2.79,3.47,18.14,5.29,18.48s2.16-4.21,1.88-10.92.45-13.85,3.13-12.93,2.22,3.09,2.27,6.04-.6,15.71.45,17.18c.39.55,2.22,2.79,3.24-5.06,1.02-7.85.28-14.22,3.47-14.56,1.83-.2,1.92,6.82,1.22,12.92-.53,4.54-1.88,8.59-1.27,8.69,1.42.23,5.63-11.66,6.71-11.94s2.39.45,1.71,2.96c-.54,1.98-2.03,7.91-3.53,10.69-.25.46-8.13.03-14.22-.11-3.62-.09-6.78.48-6.82-.11-.11-1.59,20.7.28,20.76,1.25s-1.54,3.22-1.82,6.91c-.28,3.7,0,12.74-1.71,14.39-1.71,1.65-9.16,3.47-7.45,2.27s7.22-2.67,7.51-1.54c.28,1.14,3.24,9.1,4.27,10.01"/>
      </g>
    </g>
  </g>
</svg>