<?xml version="1.0" encoding="UTF-8"?>
<svg id="_レイヤー_2" data-name="レイヤー 2" xmlns="http://www.w3.org/2000/svg" viewBox="0 0 135.87 26.5">
  <defs>
    <style>
      .cls-1 {
        fill: #fcf0d0;
      }
    </style>
  </defs>
  <g id="_デザイン" data-name="デザイン">
    <path class="cls-1" d="M7.85,24.65c26.28-6.29,52.97-10.33,79.94-12.04l-4.45-10.75c-3.81,4.5-7.61,9-11.42,13.49s-1.15,10.32,4.45,10.75c18.72,1.45,37.57-1.12,55.21-7.54,7.56-2.75,4.3-14.93-3.35-12.15-16.73,6.09-34.12,8.47-51.86,7.09,1.48,3.58,2.97,7.17,4.45,10.75,3.81-4.5,7.61-9,11.42-13.49,3.23-3.82,1.44-11.13-4.45-10.75C59.72,1.79,31.85,5.95,4.5,12.5-3.38,14.39-.05,26.54,7.85,24.65h0Z"/>
  </g>
</svg>