<?xml version="1.0" encoding="UTF-8"?>
<svg id="_レイヤー_2" data-name="レイヤー 2" xmlns="http://www.w3.org/2000/svg" viewBox="0 0 206.31 33.47">
  <defs>
    <style>
      .cls-1 {
        fill: #fcf0d0;
      }
    </style>
  </defs>
  <g id="_デザイン" data-name="デザイン">
    <path class="cls-1" d="M7.85,33.27c20.87-5.01,42.12-8.61,63.27-12.12s42.21-7.17,63.48-8.53l-4.45-10.75c-3.81,4.5-7.61,9-11.42,13.49s-1.16,10.33,4.45,10.75c13.26,1.01,26.88-.95,39.96-2.93,13.05-1.97,26.43-4.29,38.88-8.82,7.56-2.76,4.29-14.94-3.35-12.15-12.01,4.38-24.89,6.66-37.48,8.61-12.44,1.93-25.4,3.66-38.01,2.69l4.45,10.75c3.81-4.5,7.61-9,11.42-13.49,3.23-3.81,1.44-11.13-4.45-10.75-21.94,1.4-43.83,5.17-65.49,8.76-21.61,3.58-43.31,7.23-64.62,12.35-7.88,1.89-4.54,14.04,3.35,12.15h0Z"/>
  </g>
</svg>