<?xml version="1.0" encoding="UTF-8"?>
<svg id="_レイヤー_2" data-name="レイヤー 2" xmlns="http://www.w3.org/2000/svg" xmlns:xlink="http://www.w3.org/1999/xlink" viewBox="0 0 280 280">
  <defs>
    <style>
      .cls-1 {
        stroke: #000;
      }

      .cls-1, .cls-2, .cls-3 {
        fill: none;
      }

      .cls-1, .cls-3 {
        stroke-miterlimit: 2.61;
        stroke-width: 1.5px;
      }

      .cls-4 {
        fill: #300;
        font-family: VDL-PenLetter-Medium-90ms-RKSJ-H, VDL-PenLetter;
        font-size: 25px;
        font-weight: 500;
      }

      .cls-5 {
        fill: #fcf0d0;
      }

      .cls-6 {
        clip-path: url(#clippath);
      }

      .cls-3 {
        fill-rule: evenodd;
        stroke: #300;
      }
    </style>
    <clipPath id="clippath">
      <rect class="cls-2" width="280" height="280"/>
    </clipPath>
  </defs>
  <g id="_デザイン" data-name="デザイン">
    <g>
      <path class="cls-5" d="M154.69,104.34c3.56-13.05,16.95-20.95,23.53-32.41-3.66-.48-7.31-.96-10.97-1.43,2.1,5.96.61,12.86.07,19.01-.57,6.53-1.2,13.05-1.86,19.56-.74,7.31,9.47,7.29,11.79,1.6,7.42-18.25,18.22-34.98,31.61-49.41,5.25-5.66-3.22-14.16-8.49-8.49-14.88,16.05-26.45,34.45-34.69,54.71l11.79,1.6c.72-7.14,1.4-14.28,2.02-21.43.59-6.79,1.66-13.75-.66-20.33-1.66-4.7-8.26-6.15-10.97-1.43-7.28,12.69-20.73,20.54-24.74,35.28-2.03,7.46,9.54,10.64,11.57,3.19h0Z"/>
      <g class="cls-6">
        <g>
          <path class="cls-1" d="M188.67,50.33c-.63.2-2.83-1.19-5.22-.41-1.31.42-2.23,2.83-3.98,3.4-1.4.46-3.56-.94-5.22-.4-1.45.47-2.36,2.87-3.98,3.4-1.47.48-3.62-.92-5.22-.4-1.48.48-2.4,2.88-3.98,3.4-1.49.49-3.65-.92-5.22-.4s-2.42,2.89-3.98,3.4-3.66-.91-5.22-.4-2.43,2.89-3.98,3.4-3.67-.91-5.22-.4-2.43,2.9-3.98,3.4-3.68-.91-5.22-.4-2.44,2.9-3.98,3.4-3.68-.9-5.22-.4-2.45,2.9-3.98,3.4-3.69-.9-5.23-.4-2.46,2.9-3.99,3.4-3.7-.9-5.23-.4-2.46,2.91-3.98,3.4-3.7-.9-5.23-.4-2.47,2.91-3.99,3.4-3.71-.89-5.23-.4-2.48,2.91-3.98,3.4-3.72-.89-5.23-.4-2.49,2.92-3.98,3.4c-1.59.52-3.75-.88-5.23-.4-1.6.52-2.52,2.92-3.98,3.4-1.62.53-3.78-.87-5.22-.4-1.66.54-2.58,2.95-3.98,3.4-1.77.58-3.94-.82-5.22-.4"/>
          <path class="cls-1" d="M197.18,59.18c-.63.2-2.83-1.19-5.22-.41-1.31.42-2.23,2.83-3.98,3.4-1.4.46-3.56-.94-5.22-.4-1.45.47-2.36,2.87-3.98,3.4-1.47.48-3.62-.92-5.22-.4-1.48.48-2.4,2.88-3.98,3.4-1.49.49-3.65-.92-5.22-.4s-2.42,2.89-3.98,3.4-3.66-.91-5.22-.4-2.43,2.89-3.98,3.4-3.67-.91-5.22-.4-2.43,2.9-3.98,3.4-3.68-.91-5.22-.4-2.44,2.9-3.98,3.4-3.68-.9-5.22-.4-2.45,2.9-3.98,3.4-3.69-.9-5.23-.4-2.46,2.9-3.99,3.4-3.7-.9-5.23-.4-2.46,2.91-3.98,3.4-3.7-.9-5.23-.4-2.47,2.91-3.99,3.4-3.71-.89-5.23-.4-2.48,2.91-3.98,3.4-3.72-.89-5.23-.4-2.49,2.92-3.98,3.4c-1.59.52-3.75-.88-5.23-.4-1.6.52-2.52,2.92-3.98,3.4-1.62.53-3.78-.87-5.22-.4-1.66.54-2.58,2.95-3.98,3.4-1.77.58-3.94-.82-5.22-.4"/>
          <path class="cls-1" d="M178.11,42.84c-.63.2-2.83-1.19-5.22-.41-1.31.42-2.23,2.83-3.98,3.4-1.4.46-3.56-.94-5.22-.4-1.45.47-2.36,2.87-3.98,3.4-1.47.48-3.62-.92-5.22-.4-1.48.48-2.4,2.88-3.98,3.4-1.49.49-3.65-.92-5.22-.4s-2.42,2.89-3.98,3.4-3.66-.91-5.22-.4-2.43,2.89-3.98,3.4-3.67-.91-5.22-.4-2.43,2.9-3.98,3.4-3.68-.91-5.22-.4-2.44,2.9-3.98,3.4-3.68-.9-5.22-.4-2.45,2.9-3.98,3.4-3.69-.9-5.23-.4-2.46,2.9-3.99,3.4-3.7-.9-5.23-.4-2.46,2.91-3.98,3.4-3.7-.9-5.23-.4-2.47,2.91-3.99,3.4-3.71-.89-5.23-.4-2.48,2.91-3.98,3.4-3.72-.89-5.23-.4-2.49,2.92-3.98,3.4c-1.59.52-3.75-.88-5.23-.4-1.6.52-2.52,2.92-3.98,3.4-1.62.53-3.78-.87-5.22-.4-1.66.54-2.58,2.95-3.98,3.4-1.77.58-3.94-.82-5.22-.4"/>
          <path class="cls-3" d="M1.31,202.41c34.6,0,3.28,0,24.84,0s30.08,0,34.58-.05c4.5-.05,4.98-.16,5.2-.34.23-.18.2-.42-.78-3.46-.97-3.05-2.9-8.89-4.64-14.41-1.75-5.52-3.32-10.72-4.2-14.02-.88-3.3-1.07-4.71-1.07-5.97s.19-2.37.43-3.05c.24-.68.54-.92,1.41-1.53.87-.61,2.3-1.58,4.79-2.65,2.49-1.07,6.04-2.23,8.07-2.79,2.03-.55,2.54-.5,3.02.12.47.62.91,1.81,1.26,2.52.35.7.62.92,4.03-.03,3.41-.95,9.96-3.06,27.87-8.8,17.91-5.74,47.17-15.1,67.15-21.48,19.98-6.37,30.67-9.76,36.17-11.63,5.5-1.87,5.79-2.22,5.94-2.73.15-.51.15-1.19-.01-2.1-.16-.91-.49-2.04-.6-2.83-.11-.79,0-1.22,1.11-1.75,1.11-.53,3.22-1.15,5.97-1.89,2.75-.74,6.13-1.61,8.09-2.42,1.96-.81,2.5-1.57,2.5-7.12s-.54-15.89-1.25-30.56c-.7-14.67-1.57-33.67-2.14-43.58-.57-9.91-.84-10.72-1.84-11.4-1-.68-2.73-1.22-4.82-1.22s-4.52.54-12.26,3.03c-7.74,2.49-20.79,6.93-53.86,17.7-33.07,10.77-86.15,27.88-114,36.99-27.85,9.11-30.48,10.22-32.23,11.34-1.75,1.12-2.61,2.26-3.15,3.29-.54,1.03-.76,1.95,1.08,5.68,1.84,3.74,5.74,10.29,13.13,22.17,7.39,11.88,18.27,29.1,24.2,38.11,5.93,9.01,6.9,9.83,8.99,9.84,2.08.01,5.28-.77,14.05-3.44,8.77-2.67,23.12-7.21,46.84-14.85,23.73-7.63,56.83-18.35,74.51-24.15,17.68-5.79,19.92-6.66,21.95-6.75,2.03-.09,3.84.58,6.24.39,2.4-.19,5.37-1.25,7.8-1.92,2.42-.68,4.29-.97,5.75-.85,1.46.12,2.52.66,3.36,1.64.84.97,1.46,2.38,2.68,5.79,1.22,3.41,3.03,8.82,7.46,22.66,4.43,13.83,11.46,36.08,16.11,50.42,4.64,14.33,6.89,20.75,7.85,24.82.96,4.07.64,5.81.01,7.21-.62,1.41-1.54,2.49-10.42,5.68-8.88,3.19-25.72,8.5-37.11,12.09-11.4,3.59-17.35,5.45-20.6,6.19-3.25.73-3.79.32-4.64.11-.85-.22-2.02-.24-6.43.93-4.41,1.18-12.07,3.56-16.34,4.97-4.26,1.41-5.13,1.84-5.93,2.45-.8.61-1.53,1.39-2.26,2.02-.73.62-1.46,1.08-2.37,1.45-.91.37-1.99.64-4.09,1.33-2.1.69-5.21,1.8-7.07,2.03-1.85.23-2.45-.42-2.92-1.41-.47-.99-.83-2.31-2.15-6.46-1.33-4.14-3.63-11.1-5.5-16.82-1.87-5.73-3.3-10.22-3.98-12.87-.68-2.65-.6-3.46-.04-4.03.55-.57,1.58-.89,6.23-2.38,4.64-1.49,12.9-4.14,22.21-7.16,9.31-3.02,19.68-6.4,25.3-8.2,5.62-1.8,6.48-2.02,7.16-1.91.68.11,1.16.54,1.56,1.15.39.61.69,1.39,2.25,6.32,1.56,4.93,4.37,14,5.98,19.33,1.61,5.33,2.02,6.93,2.21,7.97.19,1.04.16,1.53-.39,1.98-.55.45-1.64.85-7.3,2.65-5.66,1.8-15.89,4.99-25.34,7.99-9.45,2.99-18.11,5.78-22.85,8.28-4.74,2.5-5.55,4.72-7.12,6.14-1.57,1.42-3.9,2.04-8.51,3.51-4.62,1.46-11.52,3.76-18.34,5.97-6.82,2.21-13.56,4.32-17.88,5.56-4.32,1.25-6.21,1.62-7.89,1.52-1.68-.11-3.14-.7-4.03-1.52-.89-.81-1.22-1.84-3.52-8.74-2.3-6.9-6.58-19.68-9.95-29.98-3.37-10.3-5.83-18.12-7.17-22.55-1.34-4.43-1.56-5.45-1.52-6.17.04-.72.34-1.12,1.49-1.54,1.15-.42,3.15-.85,4.17-.91,1.02-.05,1.04.27,1.62,2.14.58,1.87,1.72,5.28,3.07,9.35,1.35,4.07,2.92,8.81,3.95,11.38,1.03,2.57,1.52,2.98,2.14,3.21.62.23,1.38.28,7.7-1.73,6.32-2.02,18.2-6.1,39.01-12.99,20.8-6.89,50.53-16.58,71.78-23.56,12.59-4.14,48.47-17.31,75.62-27.35"/>
          <text class="cls-4" transform="translate(157.81 102.15) rotate(-17.12) scale(1.1 .97) skewX(-11.69)"><tspan x="0" y="0">&lt;/&gt;</tspan></text>
        </g>
      </g>
    </g>
  </g>
</svg>