<?xml version="1.0" encoding="UTF-8"?>
<svg id="_レイヤー_2" data-name="レイヤー 2" xmlns="http://www.w3.org/2000/svg" viewBox="0 0 414.4 26.48">
  <defs>
    <style>
      .cls-1 {
        fill: #fcf0d0;
      }
    </style>
  </defs>
  <g id="_デザイン" data-name="デザイン">
    <path class="cls-1" d="M6.3,24.81c26.85,3.31,54.84.94,81.73-.57,32.05-1.81,64.09-4.36,96.01-7.8,10.5-1.13,21.12-2.13,31.5-4.14-2.04-3.51-4.09-7.02-6.13-10.53-3.81,4.5-7.61,9-11.42,13.49-3.64,4.3-1.15,10.3,4.45,10.75,8.61.69,17.43.1,26.04-.14,15.65-.44,31.3-1.11,46.94-1.86,34.4-1.65,68.85-3.53,103.14-6.8,10.15-.97,21.84-1.03,31.54-4.53,7.57-2.73,4.31-14.91-3.35-12.15-8.36,3.01-15.38,2.8-24.24,3.69-15.58,1.57-31.2,2.71-46.83,3.76-34.24,2.29-68.53,4.1-102.83,5.17-10.05.31-20.37,1.08-30.42.27l4.45,10.75c3.81-4.5,7.61-9,11.42-13.49,4.13-4.88.2-11.76-6.13-10.53-21.35,4.15-45.64,5.6-68.52,7.54-32.59,2.76-65.28,5.04-97.98,5.65-13.08.25-26.37.48-39.38-1.12C2.89,11.79.03,15.41,0,18.51c-.04,3.75,2.94,5.89,6.3,6.3h0Z"/>
  </g>
</svg>