<?xml version="1.0" encoding="UTF-8"?>
<svg id="_レイヤー_2" data-name="レイヤー 2" xmlns="http://www.w3.org/2000/svg" xmlns:xlink="http://www.w3.org/1999/xlink" viewBox="0 0 250 200">
  <defs>
    <style>
      .cls-1, .cls-2, .cls-3, .cls-4, .cls-5, .cls-6, .cls-7 {
        fill: none;
      }

      .cls-1, .cls-2, .cls-4 {
        stroke-width: 1.2px;
      }

      .cls-1, .cls-2, .cls-4, .cls-5, .cls-6, .cls-7 {
        stroke: #300;
        stroke-miterlimit: 2.61;
      }

      .cls-1, .cls-4, .cls-6 {
        stroke-linecap: round;
      }

      .cls-4, .cls-7 {
        fill-rule: evenodd;
      }

      .cls-8 {
        fill: #fcf0d0;
      }

      .cls-6, .cls-7 {
        stroke-width: 1.5px;
      }

      .cls-9 {
        clip-path: url(#clippath);
      }
    </style>
    <clipPath id="clippath">
      <rect class="cls-3" width="250" height="200"/>
    </clipPath>
  </defs>
  <g id="_デザイン" data-name="デザイン">
    <g class="cls-9">
      <g>
        <circle class="cls-2" cx="204.52" cy="80.67" r="2.7"/>
        <path class="cls-8" d="M174.42,120.34c11.41,0,11.43-17.73,0-17.73s-11.43,17.73,0,17.73h0Z"/>
        <path class="cls-8" d="M176.64,156.19c4.58-5.78,9.89-10.34,16.39-13.83,10.06-5.4,1.11-20.71-8.95-15.31-7.68,4.12-14.56,9.76-19.97,16.6-2.97,3.75-3.66,8.88,0,12.54,3.08,3.08,9.55,3.77,12.54,0h0Z"/>
        <circle class="cls-2" cx="182.42" cy="84.71" r="2.7"/>
        <circle class="cls-2" cx="193.38" cy="82.75" r="2.7"/>
        <path class="cls-4" d="M180.69,110.26s4.26-3.67,5.74.29c1.49,3.96-2.86,4.37-5.01,4.29"/>
        <path class="cls-4" d="M188.01,125.76s9.92,13.94,11.49,17.54"/>
        <line class="cls-1" x1="160.82" y1="151.76" x2="201.11" y2="145.32"/>
        <path class="cls-5" d="M206.19,154.15c-.3.05-1.13-1.32-1.97-1.18-.5.08-.85,1.63-1.51,1.74-.53.08-1.35-1.28-1.98-1.18-.55.09-.9,1.64-1.51,1.74-.56.09-1.37-1.28-1.98-1.18-.56.09-.91,1.64-1.51,1.74-.57.09-1.38-1.28-1.97-1.18s-.92,1.64-1.51,1.74-1.39-1.28-1.98-1.18-.92,1.64-1.51,1.74-1.39-1.27-1.98-1.18-.92,1.64-1.51,1.74-1.39-1.27-1.98-1.18-.93,1.64-1.51,1.74-1.39-1.27-1.98-1.18-.93,1.64-1.51,1.74-1.4-1.27-1.98-1.18-.94,1.65-1.52,1.74-1.4-1.27-1.98-1.18-.94,1.65-1.51,1.74-1.4-1.27-1.98-1.18-.94,1.65-1.52,1.74-1.41-1.27-1.98-1.18-.94,1.65-1.52,1.74-1.41-1.27-1.98-1.18-.94,1.65-1.51,1.74c-.6.1-1.42-1.27-1.99-1.18-.6.1-.95,1.65-1.51,1.74-.61.1-1.42-1.27-1.98-1.18-.61.1-.96,1.65-1.51,1.74-.63.1-1.45-1.26-1.97-1.18"/>
        <path class="cls-5" d="M206.98,159.12c-.3.05-1.13-1.32-1.97-1.18-.5.08-.85,1.63-1.51,1.74-.53.08-1.35-1.28-1.98-1.18-.55.09-.9,1.64-1.51,1.74-.56.09-1.37-1.28-1.98-1.18-.56.09-.91,1.64-1.51,1.74-.57.09-1.38-1.28-1.97-1.18s-.92,1.64-1.51,1.74-1.39-1.28-1.98-1.18-.92,1.64-1.51,1.74-1.39-1.27-1.98-1.18-.92,1.64-1.51,1.74-1.39-1.27-1.98-1.18-.93,1.64-1.51,1.74-1.39-1.27-1.98-1.18-.93,1.64-1.51,1.74-1.4-1.27-1.98-1.18-.94,1.65-1.52,1.74-1.4-1.27-1.98-1.18-.94,1.65-1.51,1.74-1.4-1.27-1.98-1.18-.94,1.65-1.52,1.74-1.41-1.27-1.98-1.18-.94,1.65-1.52,1.74-1.41-1.27-1.98-1.18-.94,1.65-1.51,1.74c-.6.1-1.42-1.27-1.99-1.18-.6.1-.95,1.65-1.51,1.74-.61.1-1.42-1.27-1.98-1.18-.61.1-.96,1.65-1.51,1.74-.63.1-1.45-1.26-1.97-1.18"/>
        <path class="cls-5" d="M207.78,164.08c-.3.05-1.13-1.32-1.97-1.18-.5.08-.85,1.63-1.51,1.74-.53.08-1.35-1.28-1.98-1.18-.55.09-.9,1.64-1.51,1.74-.56.09-1.37-1.28-1.98-1.18-.56.09-.91,1.64-1.51,1.74-.57.09-1.38-1.28-1.97-1.18s-.92,1.64-1.51,1.74-1.39-1.28-1.98-1.18-.92,1.64-1.51,1.74-1.39-1.27-1.98-1.18-.92,1.64-1.51,1.74-1.39-1.27-1.98-1.18-.93,1.64-1.51,1.74-1.39-1.27-1.98-1.18-.93,1.64-1.51,1.74-1.4-1.27-1.98-1.18-.94,1.65-1.52,1.74-1.4-1.27-1.98-1.18-.94,1.65-1.51,1.74-1.4-1.27-1.98-1.18-.94,1.65-1.52,1.74-1.41-1.27-1.98-1.18-.94,1.65-1.52,1.74-1.41-1.27-1.98-1.18-.94,1.65-1.51,1.74c-.6.1-1.42-1.27-1.99-1.18-.6.1-.95,1.65-1.51,1.74-.61.1-1.42-1.27-1.98-1.18-.61.1-.96,1.65-1.51,1.74-.63.1-1.45-1.26-1.97-1.18"/>
        <path class="cls-8" d="M144.71,101.45c11.41,0,11.43-17.73,0-17.73s-11.43,17.73,0,17.73h0Z"/>
        <circle class="cls-2" cx="160.3" cy="88.59" r="2.7"/>
        <circle class="cls-2" cx="171" cy="86.67" r="2.7"/>
        <line class="cls-1" x1="152.83" y1="95.83" x2="216.47" y2="85.66"/>
        <path class="cls-4" d="M182.76,108.08s-3.47-6.57-11.67-5.26c-8.2,1.31-13.92,17.18-1.9,20.67"/>
        <path class="cls-4" d="M166.47,130.05s-10.22,10.04-2.19,13.03"/>
        <polyline class="cls-4" points="169.84 127.52 183.24 121.25 168.68 132.27 183.91 125.49"/>
        <path class="cls-4" d="M168.03,107.72s-2.28,5.35,1.93,12.09"/>
        <path class="cls-4" d="M173.59,111.96c-6.9.25-9.59,2.6-9.59,2.6"/>
        <path class="cls-7" d="M219.57,173.03l-74.56,11.91c-.8.13-1.56-.42-1.69-1.23l-23.66-104.9c-.13-.8.42-1.56,1.23-1.69l112.79-16.86c.8-.13,1.56.42,1.69,1.23l-14.57,109.85c.13.8-.42,1.56-1.23,1.69Z"/>
        <circle class="cls-2" cx="142.81" cy="92.08" r="8.42"/>
        <g>
          <path class="cls-8" d="M76.41,90.32c.03,10.39,1.28,20.75,3.58,30.88,1.44,6.32,8.72,10.04,14.76,8.38,6.5-1.79,9.82-8.42,8.38-14.76-1.85-8.12-2.7-16.17-2.72-24.5-.05-15.44-24.05-15.47-24,0h0Z"/>
          <g>
            <path class="cls-8" d="M29.87,35.25c.67,9.82,1.35,19.63,2.02,29.45.44,6.47,5.2,12,12,12,6.15,0,12.45-5.5,12-12-.67-9.82-1.35-19.63-2.02-29.45-.44-6.47-5.2-12-12-12-6.15,0-12.45,5.5-12,12h0Z"/>
            <circle class="cls-1" cx="92.8" cy="122.73" r="3.3"/>
            <path class="cls-6" d="M111.55,132.18l-30.71,5.43c-2.49.44-4.87-1.22-5.32-3.72l-11.85-49.95c-.44-2.49,1.22-4.87,3.72-5.32l35.01-5.08c2.49-.44,4.87,1.22,5.32,3.72l7.55,49.61c.44,2.49-1.22,4.87-3.72,5.32Z"/>
            <circle class="cls-1" cx="87.18" cy="90.93" r="3.3"/>
            <circle class="cls-1" cx="88.88" cy="100.56" r="3.3"/>
            <circle class="cls-1" cx="91.1" cy="113.1" r="3.3"/>
            <path class="cls-1" d="M98.74,84.09c.42,2.38-2.49,2.89-2.07,5.27s3.33,1.86,3.75,4.24-2.49,2.89-2.07,5.27,3.33,1.87,3.75,4.25-2.49,2.9-2.07,5.28,3.33,1.87,3.75,4.25"/>
            <g>
              <path class="cls-6" d="M69,72.39l-30.23,7.68c-2.46.62-4.95-.86-5.58-3.32L16.62,27.72c-.62-2.46.86-4.95,3.32-5.58l35.61-7.56c2.46-.62,4.95.86,5.58,3.32l11.19,48.91c.62,2.46-.86,4.95-3.32,5.58Z"/>
              <circle class="cls-1" cx="41.65" cy="33.05" r="3.3"/>
              <circle class="cls-1" cx="44.06" cy="42.53" r="3.3"/>
              <circle class="cls-1" cx="47.19" cy="54.87" r="3.3"/>
              <circle class="cls-1" cx="49.6" cy="64.35" r="3.3"/>
              <path class="cls-1" d="M52.67,25.38c.59,2.34-2.27,3.07-1.67,5.41s3.46,1.61,4.05,3.95-2.27,3.07-1.67,5.41,3.46,1.62,4.05,3.96-2.27,3.07-1.67,5.42,3.46,1.62,4.06,3.96"/>
            </g>
          </g>
        </g>
      </g>
    </g>
  </g>
</svg>