<?xml version="1.0" encoding="UTF-8"?>
<svg id="_レイヤー_2" data-name="レイヤー 2" xmlns="http://www.w3.org/2000/svg" xmlns:xlink="http://www.w3.org/1999/xlink" viewBox="0 0 280 280">
  <defs>
    <style>
      .cls-1, .cls-2, .cls-3, .cls-4 {
        fill: none;
      }

      .cls-1, .cls-3 {
        stroke: #000;
      }

      .cls-1, .cls-3, .cls-4 {
        stroke-miterlimit: 2.61;
        stroke-width: 1.5px;
      }

      .cls-5 {
        fill: #fcf0d0;
      }

      .cls-6 {
        clip-path: url(#clippath);
      }

      .cls-3, .cls-4 {
        fill-rule: evenodd;
      }

      .cls-4 {
        stroke: #300;
      }
    </style>
    <clipPath id="clippath">
      <rect class="cls-2" width="280" height="280"/>
    </clipPath>
  </defs>
  <g id="_デザイン" data-name="デザイン">
    <g class="cls-6">
      <g>
        <path class="cls-5" d="M93.51,133.33c5.06-10.31,21.53-17.67,20.25-30.82-.77-7.91-10.04-8.3-15.72-5.43-6.41,3.24-10.45,10.06-10.05,17.24.43,7.68,12.43,7.73,12,0-.11-1.98.17-3.56,1.58-5.1.54-.59,1.3-.88,1.85-1.4,1.51-1.44,1.86,1,.11-1.07l-1.76-4.24c.03,4.78-5.41,9.04-8.47,12.06-3.88,3.83-7.71,7.75-10.14,12.7-3.39,6.91,6.96,13,10.36,6.06h0Z"/>
        <path class="cls-5" d="M97.38,109.63c-2.32-2.79-4.85-6.07-7.91-8.08-3.53-2.32-8.06-1.62-10.69,1.7-5.41,6.85,2.09,14.02,6.11,19.28,1.96,2.57,5.17,3.93,8.21,2.15,2.53-1.48,4.13-5.62,2.15-8.21-1.31-1.72-2.62-3.43-3.93-5.15-.59-.77-1.19-1.53-1.76-2.31-1.93-2.66,1.01.9-1.99,2.33l-3.03.82c-1.26.09-2.59-1.5-.73.35.6.59,1.18,1.2,1.76,1.81,1.15,1.23,2.25,2.5,3.33,3.79,2.07,2.49,6.34,2.14,8.49,0,2.47-2.47,2.08-5.99,0-8.49h0Z"/>
        <path class="cls-5" d="M52.19,91.53c11.39-4.21,22.99-7.65,34.6-11.19,12.67-3.87,24.94-8.89,37.47-13.18,27.09-9.27,54.82-16.78,81.31-27.71,7.04-2.9,3.95-14.52-3.19-11.57-26.49,10.93-54.23,18.44-81.31,27.71-12.33,4.22-24.39,9.17-36.85,12.99-11.81,3.63-23.62,7.1-35.22,11.38-7.18,2.65-4.08,14.26,3.19,11.57h0Z"/>
        <g>
          <path class="cls-4" d="M1.31,202.41c34.6,0,3.28,0,24.84,0s30.08,0,34.58-.05c4.5-.05,4.98-.16,5.2-.34.23-.18.2-.42-.78-3.46-.97-3.05-2.9-8.89-4.64-14.41-1.75-5.52-3.32-10.72-4.2-14.02-.88-3.3-1.07-4.71-1.07-5.97s.19-2.37.43-3.05c.24-.68.54-.92,1.41-1.53.87-.61,2.3-1.58,4.79-2.65,2.49-1.07,6.04-2.23,8.07-2.79,2.03-.55,2.54-.5,3.02.12.47.62.91,1.81,1.26,2.52.35.7.62.92,4.03-.03,3.41-.95,9.96-3.06,27.87-8.8,17.91-5.74,47.17-15.1,67.15-21.48,19.98-6.37,30.67-9.76,36.17-11.63,5.5-1.87,5.79-2.22,5.94-2.73.15-.51.15-1.19-.01-2.1-.16-.91-.49-2.04-.6-2.83-.11-.79,0-1.22,1.11-1.75,1.11-.53,3.22-1.15,5.97-1.89s6.13-1.61,8.09-2.42c1.96-.81,2.5-1.57,2.5-7.12s-.54-15.89-1.25-30.56-1.57-33.67-2.14-43.58c-.57-9.91-.84-10.72-1.84-11.4-1-.68-2.73-1.22-4.82-1.22s-4.52.54-12.26,3.03c-7.74,2.49-20.79,6.93-53.86,17.7-33.07,10.77-86.15,27.88-114,36.99-27.85,9.11-30.48,10.22-32.23,11.34-1.75,1.12-2.61,2.26-3.15,3.29-.54,1.03-.76,1.95,1.08,5.68,1.84,3.74,5.74,10.29,13.13,22.17,7.39,11.88,18.27,29.1,24.2,38.11,5.93,9.01,6.9,9.83,8.99,9.84,2.08.01,5.28-.77,14.05-3.44,8.77-2.67,23.12-7.21,46.84-14.85,23.73-7.63,56.83-18.35,74.51-24.15,17.68-5.79,19.92-6.66,21.95-6.75,2.03-.09,3.84.58,6.24.39,2.4-.19,5.37-1.25,7.8-1.92,2.42-.68,4.29-.97,5.75-.85,1.46.12,2.52.66,3.36,1.64.84.97,1.46,2.38,2.68,5.79,1.22,3.41,3.03,8.82,7.46,22.66,4.43,13.83,11.46,36.08,16.11,50.42,4.64,14.33,6.89,20.75,7.85,24.82.96,4.07.64,5.81.01,7.21-.62,1.41-1.54,2.49-10.42,5.68-8.88,3.19-25.72,8.5-37.11,12.09-11.4,3.59-17.35,5.45-20.6,6.19-3.25.73-3.79.32-4.64.11-.85-.22-2.02-.24-6.43.93-4.41,1.18-12.07,3.56-16.34,4.97-4.26,1.41-5.13,1.84-5.93,2.45-.8.61-1.53,1.39-2.26,2.02-.73.62-1.46,1.08-2.37,1.45-.91.37-1.99.64-4.09,1.33-2.1.69-5.21,1.8-7.07,2.03-1.85.23-2.45-.42-2.92-1.41-.47-.99-.83-2.31-2.15-6.46-1.33-4.14-3.63-11.1-5.5-16.82-1.87-5.73-3.3-10.22-3.98-12.87-.68-2.65-.6-3.46-.04-4.03.55-.57,1.58-.89,6.23-2.38,4.64-1.49,12.9-4.14,22.21-7.16,9.31-3.02,19.68-6.4,25.3-8.2,5.62-1.8,6.48-2.02,7.16-1.91.68.11,1.16.54,1.56,1.15.39.61.69,1.39,2.25,6.32,1.56,4.93,4.37,14,5.98,19.33,1.61,5.33,2.02,6.93,2.21,7.97.19,1.04.16,1.53-.39,1.98-.55.45-1.64.85-7.3,2.65-5.66,1.8-15.89,4.99-25.34,7.99-9.45,2.99-18.11,5.78-22.85,8.28-4.74,2.5-5.55,4.72-7.12,6.14-1.57,1.42-3.9,2.04-8.51,3.51-4.62,1.46-11.52,3.76-18.34,5.97-6.82,2.21-13.56,4.32-17.88,5.56-4.32,1.25-6.21,1.62-7.89,1.52-1.68-.11-3.14-.7-4.03-1.52-.89-.81-1.22-1.84-3.52-8.74-2.3-6.9-6.58-19.68-9.95-29.98s-5.83-18.12-7.17-22.55c-1.34-4.43-1.56-5.45-1.52-6.17.04-.72.34-1.12,1.49-1.54,1.15-.42,3.15-.85,4.17-.91,1.02-.05,1.04.27,1.62,2.14.58,1.87,1.72,5.28,3.07,9.35,1.35,4.07,2.92,8.81,3.95,11.38,1.03,2.57,1.52,2.98,2.14,3.21.62.23,1.38.28,7.7-1.73,6.32-2.02,18.2-6.1,39.01-12.99,20.8-6.89,50.53-16.58,71.78-23.56,12.59-4.14,48.47-17.31,75.62-27.35"/>
          <path class="cls-3" d="M51.77,97.36l52.68-18.63c2.54-.9,5.28.66,5.8,3.3l12.77,38.61c.43,2.17-.81,4.32-2.89,5.04l-39.84,13.72c-1.91.66-4.01-.06-5.12-1.74l-25.6-33.7c-1.58-2.39-.49-5.64,2.21-6.59Z"/>
          <path class="cls-3" d="M90.63,123.48s.51-2.81-6.64-7.15c-7.15-4.34,7.66-15.83,12.26-9.7s-8.94,6.09.77-1.53c7.15-5.62,13.79-4.6,12.26,1.53-1.53,6.13-17.36,17.87-21.45,22.72"/>
          <path class="cls-3" d="M40.14,78.35L203.23,23.51c2.96-1,6.02,1.24,5.97,4.36l-.11,6.74c-.03,1.92-1.26,3.61-3.08,4.22L48.28,92.07c-1.61.55-3.4.14-4.62-1.06l-5.25-5.14c-2.42-2.37-1.48-6.45,1.73-7.53Z"/>
          <path class="cls-1" d="M208.33,54.14c-.56.18-2.06-1.42-3.21-1.03-.75.26-.96,2.44-1.93,2.78-.79.27-2.31-1.32-3.23-1-.81.28-1.02,2.47-1.92,2.78-.82.29-2.34-1.3-3.23-.99-.83.29-1.03,2.48-1.92,2.79-.83.29-2.35-1.3-3.23-.99s-1.04,2.48-1.91,2.79-2.36-1.29-3.23-.99-1.04,2.48-1.91,2.79-2.37-1.29-3.23-.99-1.05,2.48-1.92,2.79-2.37-1.29-3.23-.99-1.05,2.49-1.92,2.79-2.37-1.29-3.23-.99-1.06,2.49-1.92,2.79-2.37-1.29-3.23-.99-1.07,2.49-1.93,2.78-2.38-1.29-3.24-1-1.07,2.49-1.93,2.78-2.38-1.29-3.24-1-1.08,2.49-1.94,2.78-2.38-1.3-3.23-1-1.08,2.49-1.94,2.78-2.38-1.3-3.23-1.01-1.09,2.48-1.94,2.77-2.38-1.3-3.23-1.02-1.1,2.48-1.95,2.77-2.38-1.31-3.22-1.03c-.89.3-1.12,2.48-1.96,2.76-.89.3-2.38-1.32-3.21-1.05"/>
          <path class="cls-1" d="M208.33,63.85c-.56.18-2.06-1.42-3.21-1.03-.75.26-.96,2.44-1.93,2.78-.79.27-2.31-1.32-3.23-1-.81.28-1.02,2.47-1.92,2.78-.82.29-2.34-1.3-3.23-.99-.83.29-1.03,2.48-1.92,2.79-.83.29-2.35-1.3-3.23-.99s-1.04,2.48-1.91,2.79-2.36-1.29-3.23-.99-1.04,2.48-1.91,2.79-2.37-1.29-3.23-.99-1.05,2.48-1.92,2.79-2.37-1.29-3.23-.99-1.05,2.49-1.92,2.79-2.37-1.29-3.23-.99-1.06,2.49-1.92,2.79-2.37-1.29-3.23-.99-1.07,2.49-1.93,2.78-2.38-1.29-3.24-1-1.07,2.49-1.93,2.78-2.38-1.29-3.24-1-1.08,2.49-1.94,2.78-2.38-1.3-3.23-1-1.08,2.49-1.94,2.78-2.38-1.3-3.23-1.01-1.09,2.48-1.94,2.77-2.38-1.3-3.23-1.02-1.1,2.48-1.95,2.77-2.38-1.31-3.22-1.03c-.89.3-1.12,2.48-1.96,2.76-.89.3-2.38-1.32-3.21-1.05"/>
          <path class="cls-1" d="M208.33,73.55c-.56.18-2.06-1.42-3.21-1.03-.75.26-.96,2.44-1.93,2.78-.79.27-2.31-1.32-3.23-1-.81.28-1.02,2.47-1.92,2.78-.82.29-2.34-1.3-3.23-.99-.83.29-1.03,2.48-1.92,2.79-.83.29-2.35-1.3-3.23-.99s-1.04,2.48-1.91,2.79-2.36-1.29-3.23-.99-1.04,2.48-1.91,2.79-2.37-1.29-3.23-.99-1.05,2.48-1.92,2.79-2.37-1.29-3.23-.99-1.05,2.49-1.92,2.79-2.37-1.29-3.23-.99-1.06,2.49-1.92,2.79-2.37-1.29-3.23-.99-1.07,2.49-1.93,2.78-2.38-1.29-3.24-1-1.07,2.49-1.93,2.78-2.38-1.29-3.24-1-1.08,2.49-1.94,2.78-2.38-1.3-3.23-1-1.08,2.49-1.94,2.78-2.38-1.3-3.23-1.01-1.09,2.48-1.94,2.77-2.38-1.3-3.23-1.02-1.1,2.48-1.95,2.77-2.38-1.31-3.22-1.03c-.89.3-1.12,2.48-1.96,2.76-.89.3-2.38-1.32-3.21-1.05"/>
        </g>
      </g>
    </g>
  </g>
</svg>