<?xml version="1.0" encoding="UTF-8"?>
<svg id="_レイヤー_2" data-name="レイヤー 2" xmlns="http://www.w3.org/2000/svg" xmlns:xlink="http://www.w3.org/1999/xlink" viewBox="0 0 250 200">
  <defs>
    <style>
      .cls-1 {
        stroke: #300;
        stroke-linecap: round;
        stroke-linejoin: round;
        stroke-width: 1.5px;
      }

      .cls-1, .cls-2 {
        fill: none;
      }

      .cls-3 {
        fill: #300;
      }

      .cls-4 {
        fill: #fcf0d0;
      }

      .cls-5 {
        clip-path: url(#clippath);
      }
    </style>
    <clipPath id="clippath">
      <rect class="cls-2" width="250" height="200"/>
    </clipPath>
  </defs>
  <g id="_デザイン" data-name="デザイン">
    <g class="cls-5">
      <g>
        <path class="cls-4" d="M89.73,190.45c48.8-17,98.4-31.61,148.62-43.78,7.88-1.91,4.54-14.06-3.35-12.15-50.22,12.17-99.82,26.79-148.62,43.78-7.61,2.65-4.34,14.83,3.35,12.15h0Z"/>
        <g>
          <path class="cls-4" d="M80.29,112.44c8.11,0,8.12-12.6,0-12.6s-8.12,12.6,0,12.6h0Z"/>
          <g>
            <path class="cls-4" d="M76.59,63.57c9.66-13.62,24.95-23.91,37.87-34.22,6.34-5.06-2.63-13.92-8.91-8.91-13.94,11.13-29.42,22.08-39.84,36.77-4.7,6.63,6.22,12.93,10.88,6.36h0Z"/>
            <path class="cls-4" d="M63.1,58.68c9.66-13.62,24.95-23.91,37.87-34.22,6.34-5.06-2.63-13.92-8.91-8.91-13.94,11.13-29.42,22.08-39.84,36.77-4.7,6.63,6.22,12.93,10.88,6.36h0Z"/>
            <path class="cls-4" d="M77.11,81.9c13.32-13.5,26.72-26.91,40.21-40.23,5.78-5.71-3.13-14.62-8.91-8.91-13.49,13.32-26.9,26.73-40.21,40.23-5.7,5.78,3.2,14.69,8.91,8.91h0Z"/>
            <path class="cls-4" d="M119.49,102.09c8.11,0,8.12-12.6,0-12.6s-8.12,12.6,0,12.6h0Z"/>
            <path class="cls-4" d="M97.28,80.32c7.88-7.11,15.75-14.21,23.63-21.32,6.03-5.44-2.9-14.33-8.91-8.91-7.88,7.11-15.75,14.21-23.63,21.32-6.03,5.44,2.9,14.33,8.91,8.91h0Z"/>
            <g>
              <path class="cls-1" d="M10.13,20l22.66,5.14,36.23,53.51,53.65-10.23,10.05-44.97c.64-2.85-1.88-5.4-4.73-4.81l-82.59,17.06"/>
              <polyline class="cls-1" points="69.1 79.02 63.95 96.76 129.97 84.17"/>
              <line class="cls-1" x1="52.12" y1="48.79" x2="127.82" y2="35.24"/>
              <line class="cls-1" x1="62.48" y1="63.06" x2="125.46" y2="51.9"/>
              <line class="cls-1" x1="77.09" y1="31.86" x2="85.21" y2="74.46"/>
              <line class="cls-1" x1="108.38" y1="24.36" x2="108.51" y2="71.12"/>
              <ellipse class="cls-1" cx="79.08" cy="104.94" rx="8.43" ry="8.41" transform="translate(-18.25 16.67) rotate(-10.79)"/>
              <ellipse class="cls-1" cx="119.03" cy="97.32" rx="8.43" ry="8.41" transform="translate(-16.12 24.01) rotate(-10.79)"/>
            </g>
          </g>
        </g>
        <path class="cls-4" d="M125.12,134.22c18.56-6.47,37.17-12.82,56.07-18.23,18.9-5.4,38.05-9.94,57.15-14.56,7.88-1.91,4.54-14.06-3.35-12.15-19.11,4.62-38.25,9.16-57.15,14.56-18.9,5.4-37.51,11.75-56.07,18.23-7.61,2.65-4.34,14.83,3.35,12.15h0Z"/>
        <g>
          <g>
            <path class="cls-3" d="M118.3,141.86c-.62.18-1.58.92-2.09,1.38-2.78,2.45-4.86,5.95-4.84,9.23.02,3.31,2.89,3.87,5.58,4.22.92.14,2.39.19,2.4,1.38,0,1.08-2.73,6.03-3.31,7.14-.62,1.18-2.77,5.11-3.02,6.12-.18.7-.29.95-1.02,1.3l-.07.02c-.62.18-1.11-.19-1.11-.8,0-1.33,5.06-10.34,6.15-12.77-3.83-.54-7.77-1.19-7.8-5.98-.02-2.99,1.36-6.19,3.52-8.89,1.32-1.63,3.69-3.96,5.61-4.51.59-.17,1.11.19,1.11.77,0,.58-.51,1.22-1.1,1.39Z"/>
            <path class="cls-3" d="M139.38,158.5c-1.17,1.48-2.41,2.81-4.14,3.3-1.95.55-2.25-1.38-2.26-2.86-.01-1.76.24-3.6.23-5.36,0-.36.02-2.39-.56-2.22-.88.25-2.34,2.93-2.7,3.65-1.24,2.37-2.18,4.87-3.12,7.34-.29.73-.51,1.44-.83,2.15-.29.7-.65,1.52-1.46,1.75-.44.12-.74,0-1.03-.21-1.07-.81-1.07-6.8-1.08-8.17,0-1.01-.01-2.05.02-3.07.05-3.48.25-7.03.57-10.58.14-1.66.27-3.61.63-5.3.11-.57.55-1.02,1.1-1.18.59-.17,1.07.17,1.07.74v.18c-.96,6.15-1.22,12.28-1.18,18.18.01,1.76.06,3.48.18,5.18,1.12-2.91,4.31-11.82,7.8-12.81,2.5-.71,2.85,1.9,2.86,3.77.01,1.76-.27,3.61-.26,5.41,0,.36,0,.9.15,1.18,1.62-.53,2.41-2.59,3.37-2.86.59-.17,1.1.15,1.11.73,0,.4-.18.74-.44,1.06Z"/>
            <path class="cls-3" d="M145.9,158.72c-3.6,1.02-5.46-2.42-5.48-5.48,0-1.26.19-5.93,1.99-6.44.11-.03.18-.05.29-.05.65-2.49,2.44-4.51,4.9-5.21,3.86-1.09,6.41.89,6.43,4.63.02,4.28-3.21,11.15-8.14,12.54ZM147.62,143.7c-1.76.5-2.9,2.22-2.89,3.88,0,.5.23.87.23,1.3,0,.58-.47,1.25-1.06,1.42-.48.13-.88-.08-1.07-.42-.14.94-.21,1.83-.21,2.73.01,1.8,1.02,4.58,3.26,3.94,3.53-1,5.96-6.77,5.94-9.76-.01-2.48-1.57-3.85-4.21-3.1Z"/>
            <path class="cls-3" d="M168.29,147.55c-2.16,2.7-5.09,4.97-8.1,6.33-.06,2.43-.16,4.88-.14,7.25,0,.79-.03,1.63.12,2.34.11.15.22.33.22.55,0,.61-.51,1.23-1.1,1.39-.37.1-.59.09-.85-.08-.66-.39-.61-3-.61-3.79-.01-2.23.05-4.49.11-6.77-.81.23-1.58.3-1.59-.7,0-.94.95-1.28,1.65-1.51v-.11c-.02-3.38.22-6.8.2-10.22-.18.2-.44.34-.66.4-.59.17-1.07-.13-1.07-.74,0-.36.14-.65.4-.98,1.39-1.62,3.92-2.91,5.76-3.43,3.75-1.06,8.43-.37,8.45,3.85.01,2.12-1.34,4.42-2.8,6.24ZM162.69,139.62c-.81.23-1.58.55-2.35.95.04.13.07.23.08.34.02,3.56-.07,7.16-.16,10.75,2.35-1.17,4.77-3.08,6.49-5.22,1.02-1.26,2.15-2.99,2.15-4.5-.02-2.92-3.77-3.01-6.2-2.32Z"/>
            <path class="cls-3" d="M185.35,142.73c-2.16,2.7-5.09,4.97-8.1,6.33-.06,2.43-.16,4.88-.14,7.25,0,.79-.03,1.63.12,2.34.11.15.22.33.22.55,0,.61-.51,1.23-1.1,1.39-.37.1-.59.09-.85-.08-.66-.39-.61-3-.61-3.79-.01-2.23.05-4.48.11-6.77-.81.23-1.58.3-1.59-.71,0-.94.95-1.28,1.65-1.51v-.11c-.02-3.38.22-6.8.2-10.22-.18.2-.44.34-.66.4-.59.17-1.07-.13-1.07-.74,0-.36.14-.65.4-.98,1.39-1.62,3.92-2.91,5.76-3.43,3.75-1.06,8.43-.36,8.45,3.85.01,2.12-1.34,4.42-2.8,6.24ZM179.74,134.79c-.81.23-1.58.56-2.35.95.04.13.07.23.08.34.02,3.56-.07,7.16-.16,10.75,2.35-1.17,4.77-3.08,6.49-5.22,1.02-1.26,2.15-2.99,2.15-4.5-.02-2.92-3.77-3.01-6.2-2.32Z"/>
            <path class="cls-3" d="M193.54,145.78c-2.5.71-2.68-4.65-2.69-6.23,0-1.69.09-3.52.49-5.26.11-.54.51-1.01,1.06-1.17.59-.17,1.1.19,1.11.77,0,.07-.04.15-.04.23-.29,1.56-.46,3.12-.45,4.63,0,1.33.17,3.59.73,4.66.33-.42.47-.75,1.03-.9.59-.17,1.11.19,1.11.77,0,1.01-1.42,2.24-2.34,2.5ZM194.98,126.41c-1.18.33-2.29-1.7-2.7-2.37-.11-.15-.19-.34-.19-.56,0-.61.47-1.21,1.1-1.39.4-.11.77,0,.96.31.3.49.97,1.64,1.48,1.89.26.14.44.41.45.74,0,.61-.47,1.21-1.1,1.39Z"/>
            <path class="cls-3" d="M213.2,138.99c-2.76.78-2.89-2.57-2.9-4.51,0-1.22.06-2.43.05-3.62,0-.65-.06-3.3-.65-3.35-.11,0-.22,0-.37.03-1.65.47-4.28,3.99-5.2,5.44-.58.89-1.09,1.79-1.57,2.71-.18.34-.44.59-.81.77,0,1.73.06,3.55.18,5.25v.14c.04.6-.47,1.25-1.1,1.43-.55.16-.96-.16-1.07-.63-.27-1.26-.25-4.47-.25-5.91-.01-1.76.02-3.57.04-5.35.03-.91-.01-1.87.09-2.77.07-.6.47-1.14,1.1-1.32.62-.18,1.14.18,1.11.77v.11c-.06,1.68-.09,3.31-.12,4.97,1.53-2.56,4.71-6.96,7.61-7.78,3.01-.85,3.18,2.42,3.19,4.58,0,1.26-.06,2.5-.05,3.76,0,.4.02,3.31.64,3.13.22-.06.44-.23.66-.29.62-.18,1.11.19,1.11.8,0,.9-.95,1.42-1.72,1.64Z"/>
            <path class="cls-3" d="M232.17,134.96c-1.36.74-2.72,1.34-4.04,2.12-.1,1.11-.17,2.21-.17,3.26.01,2.52-.26,5.81-3.68,6.77-2.43.69-4.68-.19-4.69-2.6-.02-3.56,3.57-6.53,6.54-8.45.14-1.23.39-2.49.64-3.75-1.5,1.22-3.45,2.34-5.14,2.82-3.31.94-4.86-.93-4.88-4.13-.02-4.21,3.29-10.45,7.85-11.74,3.27-.92,5.38.97,5.4,4.06,0,1.26-.17,2.43-.68,3.73-.18.48-.51.83-.99.96-.59.17-1.07-.09-1.07-.71,0-.14.03-.3.07-.45.36-1.11.54-1.81.54-2.93-.01-1.91-1.2-3.16-3.25-2.58-3.31.94-5.74,6.02-5.73,9.01.01,2.02.68,3.27,2.78,2.68.11-.03.26-.07.4-.15,2.46-.91,3.85-2.17,5.79-4.09.22-.21.4-.33.66-.4.62-.18,1.07.17,1.07.78,0,.11,0,.22-.04.3-.47,1.75-.86,3.49-1.11,5.22.62-.32,3.01-1.61,3.52-1.75.55-.16,1.07.2,1.07.78,0,.5-.36,1-.88,1.26ZM221.73,143.9c0,1.26,1.3,1.47,2.55,1.12,1.65-.47,1.56-3.08,1.56-4.08,0-.79,0-1.58.06-2.43-1.69,1.23-4.18,3.31-4.17,5.4Z"/>
          </g>
          <g>
            <path class="cls-3" d="M157.13,106.66c-1.78,4.83-5.94,10.33-10.98,11.76-4.41,1.25-5.91-3.59-5.93-7.05-.02-3.71,1.5-8.71,4.9-11.7,1.09-2.62,3.18-4.29,5.75-5.02,3.97-1.12,7.34,2.36,7.36,6.03.01,1.94-.38,4-1.11,5.97ZM150.89,96.82c-2.21.62-3.6,2.06-4.13,4.31-.14.51-.14,1.01-.25,1.55-.14.62-.44,1.1-1.1,1.28-.48.13-.92-.03-1.07-.45-1.35,2.33-1.92,4.94-1.91,7.25.01,2.12.81,6.33,3.71,5.51,4.23-1.2,7.66-6.13,9-10.08.58-1.64.9-3.28.89-4.87-.01-2.45-2.46-5.25-5.14-4.5Z"/>
            <path class="cls-3" d="M174.34,109.51c-2.76.78-2.89-2.57-2.9-4.52,0-1.22.06-2.43.05-3.62,0-.65-.06-3.3-.64-3.35-.11,0-.22,0-.37.03-1.65.47-4.28,3.99-5.2,5.43-.58.89-1.09,1.79-1.57,2.71-.18.34-.44.59-.81.77,0,1.73.06,3.55.18,5.25v.14c.04.6-.47,1.25-1.1,1.43-.55.16-.96-.16-1.07-.63-.27-1.26-.25-4.47-.25-5.91-.01-1.76.02-3.57.04-5.35.03-.91-.01-1.87.09-2.77.07-.6.47-1.14,1.1-1.32s1.14.18,1.11.77v.11c-.06,1.68-.09,3.31-.12,4.97,1.53-2.56,4.71-6.96,7.61-7.78,3.01-.85,3.18,2.42,3.19,4.58,0,1.26-.06,2.5-.05,3.76,0,.4.02,3.31.64,3.13.22-.06.44-.23.66-.29.62-.18,1.11.19,1.11.8,0,.9-.95,1.42-1.72,1.64Z"/>
            <path class="cls-3" d="M183.2,80.54c-1.26,5.08-1.71,10.4-1.94,15.33-.1,1.69-.13,3.35-.12,5.01,0,1.4.06,4.42.51,5.62.15-.11.33-.24.51-.29.62-.18,1.11.23,1.11.8,0,.97-1.13,1.62-1.94,1.85-.15.04-.33.06-.48.06-1.51,0-1.67-2.74-1.79-3.93-.12-1.26-.16-2.59-.17-3.92,0-1.26.02-2.53.09-3.81.16-3.72.47-7.52,1.04-11.33.25-1.76.49-3.64,1.04-5.41.14-.51.55-.95,1.06-1.09.62-.18,1.1.19,1.11.8,0,.11,0,.18-.03.3Z"/>
            <path class="cls-3" d="M189.72,106.39c-2.5.71-2.68-4.65-2.69-6.23,0-1.69.09-3.52.49-5.26.11-.54.51-1.01,1.06-1.17.59-.17,1.1.19,1.11.77,0,.07-.04.16-.04.23-.29,1.56-.46,3.12-.45,4.63,0,1.33.17,3.59.73,4.66.33-.42.47-.75,1.03-.9.59-.17,1.11.19,1.11.77,0,1.01-1.42,2.24-2.34,2.5ZM191.15,87.02c-1.18.33-2.29-1.7-2.7-2.37-.11-.15-.19-.34-.19-.56,0-.61.47-1.21,1.1-1.39.4-.11.77,0,.96.31.3.49.97,1.64,1.48,1.89.26.14.44.41.45.74,0,.61-.47,1.22-1.1,1.39Z"/>
            <path class="cls-3" d="M209.37,99.6c-2.76.78-2.89-2.57-2.9-4.51,0-1.22.06-2.43.05-3.62,0-.65-.06-3.3-.65-3.35-.11,0-.22,0-.37.03-1.65.47-4.28,3.99-5.2,5.43-.58.89-1.09,1.79-1.57,2.71-.18.34-.44.59-.81.77.01,1.73.06,3.55.18,5.25v.14c.04.6-.47,1.25-1.1,1.43-.55.16-.96-.16-1.07-.63-.27-1.26-.25-4.47-.25-5.91-.01-1.76.02-3.57.04-5.35.03-.91-.01-1.87.1-2.77.07-.6.47-1.14,1.1-1.32s1.14.18,1.11.77v.11c-.06,1.68-.09,3.31-.12,4.97,1.53-2.56,4.71-6.96,7.61-7.78,3.01-.85,3.18,2.42,3.19,4.58,0,1.26-.06,2.5-.05,3.76,0,.4.02,3.31.64,3.13.22-.06.44-.23.66-.29.62-.18,1.11.19,1.11.8,0,.9-.95,1.42-1.72,1.64Z"/>
            <path class="cls-3" d="M228.58,91.46c-.29.37-.69.77-1.06,1.13-2.09,2.07-4.62,3.69-7.23,4.42-4.59,1.3-7.25-.36-7.28-4.9,0-1.4.2-2.87.68-4.34,1.01-3.39,3.6-7.36,7.24-8.39,3.01-.85,6.38,1.41,6.39,4.36.02,3.38-7.95,6.79-10.48,7.51-.73.21-1.43.33-1.59-.52v.76c.02,3.31,1.69,4.32,5.03,3.37,2.06-.58,4.11-1.88,5.8-3.48.37-.36.7-.74,1.06-1.13.22-.24.44-.38.7-.45.62-.18,1.1.16,1.11.73,0,.36-.11.61-.36.93ZM224.08,82.46c-.7-.74-1.88-1.27-3.13-.92-3.45.98-5.34,5.8-5.66,8.74.25-.9.95-1.03,1.65-1.22,1.8-.51,7.01-2.81,8.18-4.62v-.11c0-.65-.67-1.47-1.04-1.87Z"/>
          </g>
        </g>
      </g>
    </g>
  </g>
</svg>