<?xml version="1.0" encoding="UTF-8"?>
<svg id="_レイヤー_2" data-name="レイヤー 2" xmlns="http://www.w3.org/2000/svg" xmlns:xlink="http://www.w3.org/1999/xlink" viewBox="0 0 250 200">
  <defs>
    <style>
      .cls-1 {
        stroke: #000;
      }

      .cls-1, .cls-2, .cls-3 {
        fill: none;
      }

      .cls-1, .cls-3 {
        stroke-miterlimit: 2.61;
        stroke-width: 1.5px;
      }

      .cls-4 {
        fill: #300;
      }

      .cls-5 {
        fill: #fcf0d0;
      }

      .cls-6 {
        clip-path: url(#clippath);
      }

      .cls-3 {
        fill-rule: evenodd;
        stroke: #300;
      }
    </style>
    <clipPath id="clippath">
      <rect class="cls-2" width="250" height="200"/>
    </clipPath>
  </defs>
  <g id="_デザイン" data-name="デザイン">
    <g class="cls-6">
      <g>
        <path class="cls-5" d="M50.84,140.04c25.33-9.05,51.48-15.47,78.13-19.17,7.62-1.06,4.37-12.62-3.19-11.57-26.65,3.7-52.79,10.11-78.13,19.17-7.22,2.58-4.11,14.18,3.19,11.57h0Z"/>
        <path class="cls-5" d="M42.62,111.12c4.66-5.69,11.57-8.1,18.41-10.19,7.59-2.31,15.4-3.77,23.21-5.04,16.54-2.7,33.18-4.61,49.89-5.9,7.65-.59,7.71-12.6,0-12-18.37,1.42-36.71,3.57-54.88,6.62-14.98,2.52-34.88,5.51-45.12,18.02-4.85,5.93,3.59,14.47,8.49,8.49h0Z"/>
        <path class="cls-1" d="M182.64,33.16c-.93.17-3.12-1.47-5.73-1-1.54.28-2.98,2.57-5.01,2.95-1.64.3-3.8-1.34-5.73-.99-1.69.31-3.13,2.6-5.02,2.95-1.72.31-3.87-1.33-5.73-.99-1.73.32-3.17,2.61-5.01,2.95-1.74.32-3.9-1.32-5.73-.99s-3.19,2.62-5.01,2.95c-1.76.32-3.91-1.32-5.73-.99s-3.2,2.62-5.01,2.95-3.92-1.32-5.73-.99c-1.77.32-3.21,2.62-5.01,2.95-1.78.33-3.93-1.31-5.73-.99s-3.21,2.62-5.01,2.95c-1.78.33-3.94-1.31-5.73-.98-1.79.33-3.22,2.62-5.02,2.95s-3.95-1.31-5.74-.98c-1.8.33-3.23,2.62-5.02,2.95-1.8.33-3.95-1.31-5.74-.98-1.8.33-3.23,2.63-5.02,2.95-1.8.33-3.96-1.31-5.74-.98s-3.24,2.63-5.02,2.95c-1.81.33-3.97-1.31-5.74-.98-1.82.33-3.25,2.63-5.02,2.95s-3.98-1.3-5.74-.98c-1.83.34-3.26,2.63-5.02,2.95-1.84.34-3.99-1.3-5.74-.98-1.85.34-3.28,2.64-5.02,2.95-1.87.34-4.02-1.3-5.73-.98-1.89.35-3.33,2.64-5.01,2.95-1.94.36-4.1-1.28-5.73-.98"/>
        <path class="cls-1" d="M183.48,18.94c-.93.17-3.12-1.47-5.73-1-1.54.28-2.98,2.57-5.01,2.95-1.64.3-3.8-1.34-5.73-.99-1.69.31-3.13,2.6-5.02,2.95-1.72.31-3.87-1.33-5.73-.99-1.73.32-3.17,2.61-5.01,2.95-1.74.32-3.9-1.32-5.73-.99s-3.19,2.62-5.01,2.95c-1.76.32-3.91-1.32-5.73-.99-1.77.32-3.2,2.62-5.01,2.95s-3.92-1.32-5.73-.99c-1.77.32-3.21,2.62-5.01,2.95-1.78.33-3.93-1.31-5.73-.99-1.78.33-3.21,2.62-5.01,2.95s-3.94-1.31-5.73-.98-3.22,2.62-5.02,2.95c-1.79.33-3.95-1.31-5.74-.98-1.8.33-3.23,2.62-5.02,2.95s-3.95-1.31-5.74-.98c-1.8.33-3.23,2.63-5.02,2.95s-3.96-1.31-5.74-.98c-1.81.33-3.24,2.63-5.02,2.95s-3.97-1.31-5.74-.98c-1.82.33-3.25,2.63-5.02,2.95s-3.98-1.3-5.74-.98c-1.83.34-3.26,2.63-5.02,2.95s-3.99-1.3-5.74-.98c-1.85.34-3.28,2.64-5.02,2.95-1.87.34-4.02-1.3-5.73-.98-1.89.35-3.33,2.64-5.01,2.95-1.94.36-4.1-1.28-5.73-.98"/>
        <path class="cls-1" d="M180.62,48.07c-.93.17-3.12-1.47-5.73-1-1.54.28-2.98,2.57-5.01,2.95-1.64.3-3.8-1.34-5.73-.99-1.69.31-3.13,2.6-5.02,2.95-1.72.31-3.87-1.33-5.73-.99-1.73.32-3.17,2.61-5.01,2.95-1.74.32-3.9-1.32-5.73-.99s-3.19,2.62-5.01,2.95c-1.76.32-3.91-1.32-5.73-.99-1.77.32-3.2,2.62-5.01,2.95-1.77.32-3.92-1.32-5.73-.99-1.77.32-3.21,2.62-5.01,2.95-1.78.33-3.93-1.31-5.73-.99-1.78.33-3.21,2.62-5.01,2.95s-3.94-1.31-5.73-.98c-1.79.33-3.22,2.62-5.02,2.95-1.79.33-3.95-1.31-5.74-.98-1.8.33-3.23,2.62-5.02,2.95s-3.95-1.31-5.74-.98c-1.8.33-3.23,2.63-5.02,2.95-1.8.33-3.96-1.31-5.74-.98-1.81.33-3.24,2.63-5.02,2.95s-3.97-1.31-5.74-.98c-1.82.33-3.25,2.63-5.02,2.95s-3.98-1.3-5.74-.98c-1.83.34-3.26,2.63-5.02,2.95s-3.99-1.3-5.74-.98c-1.85.34-3.28,2.64-5.02,2.95-1.87.34-4.02-1.3-5.73-.98-1.89.35-3.33,2.64-5.01,2.95-1.94.36-4.1-1.28-5.73-.98"/>
        <path class="cls-3" d="M183.38,113.44l-128.33,25.18c-2.83.68-4.49,1.35-6.34-1.86l-7.52-11.52c-.32-1.62.75-3.2,2.37-3.52l140.48-26.35c1.62-.32,3.2.75,3.52,2.37l.08,9.4c-.35,3.8-2.64,5.98-4.26,6.29Z"/>
        <path class="cls-3" d="M180.12,84.4l-137.98,26.44c-2.83.68-4.49,1.35-6.34-1.86l-7.52-11.52c-.32-1.62.75-3.2,2.37-3.52l150.13-27.61c1.62-.32,3.2.75,3.52,2.37l.08,9.4c-.35,3.8-2.64,5.98-4.26,6.29Z"/>
        <g>
          <g>
            <path class="cls-5" d="M166.65,151.04l-.12-.77-1.54,5.84c.82-.93,5.03-1.36,6.29-1.7,2.46-.66,4.93-1.28,7.4-1.88,4.95-1.2,9.93-2.28,14.93-3.24,10.11-1.95,20.29-3.37,30.53-4.33,7.62-.72,7.7-12.72,0-12-13.53,1.27-26.99,3.25-40.27,6.09-6.54,1.4-13.03,3-19.47,4.79-5.63,1.57-10.39,3.66-9.32,10.39,1.21,7.61,12.77,4.38,11.57-3.19h0Z"/>
            <path class="cls-5" d="M166.25,173.76c8.85-3.29,18.28-3.33,27.47-5.02s17.64-4.78,25.85-8.82c6.93-3.41.85-13.76-6.06-10.36-7.82,3.85-16.13,6.52-24.74,7.92-8.66,1.41-17.41,1.62-25.72,4.72-7.17,2.67-4.07,14.27,3.19,11.57h0Z"/>
            <path class="cls-5" d="M170,189.71c6.58-3.64,14.2-4.1,21.42-5.7,7.64-1.7,14.57-5.11,22.47-5.73s7.71-12.6,0-12c-9.07.71-16.91,4.21-25.66,6.16s-16.66,2.69-24.28,6.91c-6.76,3.74-.71,14.11,6.06,10.36h0Z"/>
            <path class="cls-3" d="M222.15,182.89l-55.91,10.04c-1.63.27-3.18-.84-3.45-2.47l-9.81-48.94c-.27-1.63.84-3.18,2.47-3.45l77.57-15.87c1.63-.27,3.18.84,3.45,2.47l-11.85,54.78c.27,1.63-.84,3.18-2.47,3.45Z"/>
            <g>
              <path class="cls-4" d="M164.62,149.11c.76-.15,1.28-.34,1.55-.54.75-.58,1.23-.97,1.48-1.2l.15-.46,2.15.26c-.22.66-.32,1.05-.33,1.12-.11,2.2-.29,4.54-.56,7.03,0,.09-.06.37-.17.84-.12.52-.2.79-.23.81-.2,0-.8-.11-1.97-.32.31-.89.45-1.33.45-1.32.35-1.83.54-3.17.56-4l.08-2.21c-1.07.76-1.87,1.34-2.42,1.71-.04.02-.18-.25-.42-.82-.22-.59-.33-.88-.31-.9Z"/>
              <path class="cls-4" d="M173.12,147.23c1.34-.61,2.45-1,3.34-1.14.91-.14,1.68-.08,2.32.21.82.37,1.22.99,1.21,1.88,0,.5-.14.96-.39,1.5-.38.74-1.03,1.47-1.73,2.17-.6.58-1.63,1.68-1.63,1.68l1.85-.4c.53-.16.99-.32,1.38-.47l.21,1.94-5.31.91-1.12.37c.08,0-.34-1.87-.34-1.87.03.05.27-.03.71-.23.33-.17,1.54-1.27,2.56-2.29,1.11-1.13,1.77-2.14,1.78-2.89,0-.12-.01-.22-.04-.32-.15-.58-.63-.8-1.41-.68-.41.07-.82.19-1.25.41-.49.26-1,.6-1.52,1.03l-.64-1.8Z"/>
              <path class="cls-4" d="M188.01,150.12c.03-.11.05-.22.05-.32,0-.31-.1-.58-.3-.77-.21-.17-.48-.22-.8-.12l-1.96.62-.19-1.63c1.03-.3,1.84-.59,2.39-.87.21-.12.38-.22.5-.32.08-.21.12-.41.13-.57,0-.22-.07-.36-.22-.42-.24-.11-.58-.13-1-.06-.47.08-1.02.27-1.62.56-.14.07-.46.27-1.01.62l-.35-1.84c.68-.18,1.08-.3,1.16-.35.55-.29,1.16-.41,1.79-.51.85-.13,1.59-.12,2.2.05.29.09.53.23.73.46.27.28.4.63.4,1.04,0,.79-.39,1.46-1.15,1.98.5.14.86.46,1.1.94.21.44.28.95.23,1.54-.13,1.21-.89,2.19-2.34,2.94-.88.48-2.13.89-3.72,1.25l-.58-1.82c.65.1.98.17,1,.17.88-.18,1.55-.4,2.02-.63.81-.43,1.33-1.06,1.56-1.91Z"/>
              <path class="cls-4" d="M195.8,144.7c.37-.7.63-1.38.8-2.03.74.3,1.19.43,1.18.43,0-.21.04-.61.08-1.21l1.82.13s-.03.26-.11.65c-.06.38-.11.61-.13.67-.02.61-.05,1.4-.11,2.41-.05.84-.08,1.32-.08,1.42l.35-.06,1.41-.4.22,1.73c-.64.04-1.4.15-2.12.26-.08,1.19-.23,2.07-.4,2.47-.11.29-.26.65-.63,1.14-.08-.03-.65-.27-1.72-.67.32-.32.54-.57.67-.76.23-.51.4-1.19.51-1.88-1.93.31-2.94.47-3.07.5-.23.07-.58.21-1.06.41l-.47-1.81c.32-.17.53-.31.62-.4.88-.87,1.63-1.88,2.23-3.01ZM196.23,146.5c-.29.42-.58.83-.89,1.24,1.02-.13,1.78-.22,2.28-.29.09-2.14.14-3.29.14-3.46-.23.35-.38.6-.46.73-.25.53-.6,1.12-1.07,1.79Z"/>
              <path class="cls-4" d="M210.01,140.91l.9-.41.38,1.7c-2.54.42-3.81.64-3.82.64l-.35.17c-.12.49-.23.93-.36,1.32.24-.07.35-.12.35-.12,0,0,.06,0,.18-.04.12-.02.24-.05.36-.07.8-.13,1.5.01,2.1.44.6.41.9.98.9,1.73,0,.19-.02.4-.06.62-.5,2.04-2.14,3.4-4.97,4.1l-1.17.28-.26-1.96c.57.12.88.17.91.18.91-.17,1.58-.38,2-.63.78-.42,1.27-1.09,1.45-2,.03-.12.05-.23.05-.35,0-.71-.39-1.02-1.18-.94-.7.1-1.38.32-2.05.67l-.42-1.46c.14-.19.34-.63.43-1.3.05-.29.08-.59.1-.95.03-.45.04-1.02.04-1.67l1.94-.13c0,.1,0,.53-.04.63.68-.08,1.55-.23,2.57-.44Z"/>
              <path class="cls-4" d="M218.41,139.26c.5-.29.87-.49,1.11-.65l.7,1.77c-.74.15-1.46.46-2.11.92-.7.47-1.25,1.04-1.65,1.69.52-.27,1.03-.42,1.49-.49.83-.13,1.52.08,2.06.64.51.5.75,1.16.74,1.96,0,1.25-.56,2.25-1.66,3.04-.66.47-1.32.76-2.01.87-.65.1-1.23.03-1.74-.23-.5-.26-.86-.68-1.07-1.24-.21-.56-.31-1.2-.31-1.91.02-2.55,1.49-4.67,4.44-6.36ZM215.83,145.85c0,.85.29,1.33.88,1.49.23.05.44.05.65.01.61-.1,1.08-.47,1.42-1.12.15-.34.25-.69.25-1.06,0-.64-.25-1.04-.75-1.21-.35-.12-.68-.07-1-.02-.46.07-.81.29-1.07.69-.26.4-.38.74-.39,1.22Z"/>
            </g>
          </g>
          <g>
            <path class="cls-4" d="M60.32,131.59c.11.8,1,1.35,1.01,1.35l.06.05-1.53,1.44-.04-.02s-.45-.38-.74-.81c-.51.68-1.29,1.36-2.3,1.36-.63,0-1.12-.2-1.48-.6-.75-.83-.63-2.27-.6-2.56.16-1.52.86-2.76,1.79-3.27.57-.29,1.21-.29,1.86,0-.08-.6-.2-1.19-.2-1.19l2.13.27s-.14.84-.14.98c-.04,1.01.09,2.31.18,3ZM58.49,130.03c-.23-.13-.5-.26-.71-.32-.3-.1-.57-.06-.8.08-.44.31-.7,1.09-.77,2.3-.03.44.1.79.33.97.24.18.58.18.99.03.88-.33.99-1.95.99-2.79-.02-.09-.02-.18-.03-.27Z"/>
            <path class="cls-4" d="M63.34,131.45c.18-1.56-.29-4.37-.54-5.52-.02-.09-.04-.16-.05-.22l-.44-1.88,1.9-.09c.02.07.03.29.05.65.03.35.05.74.08.93.08.43.14.94.21,1.47.63-.14,1.31-.27,1.69-.26,2.42-.02,2.73,1.83,2.75,2.64.05,1.8-2.07,3.63-3.5,4.04h-.04s-.51-1-.51-1c-.05.6-.26,1.21-.26,1.21l-1.88-.87s.49-.72.53-1.11ZM64.99,131.31c.22.04.46.08.46.08.46-.05,1.11-.55,1.51-1.12.23-.34.49-.86.36-1.4-.09-.4-.37-.76-.7-.95-.31-.18-.67-.21-1.03-.08-.33.1-.61.22-.85.34.13,1.18.22,2.38.25,3.14Z"/>
            <path class="cls-4" d="M72.8,127.14c-.38.56-.53,1.24-.38,1.83.09.33.27.6.53.75.34.2.8.21,1.36.04,1.01-.3,2.43-2.08,2.45-2.1l.1-.13v2.38s-.02,0-.02,0c-.03.02-1.48,1.5-3.25,1.55-2.6.06-2.94-1.96-2.96-2.83-.07-2.38,2.3-3.77,4-3.98h.04s.77,1.54.77,1.54h-.09s-.5-.03-1.23.07c-.46.05-.96.38-1.3.87Z"/>
            <path class="cls-4" d="M78.92,129.3c-.76-.83-.63-2.29-.6-2.56.16-1.52.84-2.76,1.78-3.27.58-.29,1.21-.29,1.86,0-.09-.78-.17-1.47-.2-1.84-.08-.87-.29-1.89-.29-1.89l-.02-.07,1.91-.03h.05s0,.97,0,.97c-.02.85.49,5.39.64,6.32.12.77.7.75.73.76h.12s-1.3,1.7-1.3,1.7l-.05-.04s-.49-.42-.8-.87c-.52.7-1.31,1.4-2.35,1.42-.61,0-1.12-.2-1.46-.6ZM80.14,128.02c.24.18.58.18.99.03.99-.38,1.01-2.34.98-3.05-.23-.13-.5-.27-.72-.33-.31-.1-.58-.06-.81.08-.44.31-.7,1.09-.77,2.3-.03.44.1.79.33.97Z"/>
          </g>
          <g>
            <path class="cls-4" d="M43.78,108.28s-1.58-1.62-1.55-1.64c0,0,.96-.9,1.01-1,.37-.97.72-2.4.93-3.33.31-1.45.45-3.3.51-4.42,0-.14-.07-1.52-.07-1.52,0-.05,1.99.27,2,.26-.05.07-.06.44-.06.44.54.87,1.12,1.84,1.9,3.01.73,1.1,1.8,2.62,2.52,3.32.23.23,1.2.65,1.2.65-.06.03-1.05,1.9-1.05,1.9,0,0-.95-.62-1.59-1.44-.34-.42-.66-.85-.97-1.31l-3.15.85c-.32,1.51-.67,2.8-.75,3.05-.05.1-.89,1.19-.89,1.19ZM45.73,102.35l1.9-.52c-.85-1.29-1.49-2.33-1.49-2.33-.08.35-.22,1.55-.41,2.85Z"/>
            <path class="cls-4" d="M60.13,98.32s.89.08,1.3.84c.25.45.33.76.41,1.32.15,1.17-.53,2.25-1.62,3.01-.68.47-1.65.96-3.03,1.24l-.56-1.08c-.03,1.34-.33,1.88-.31,1.89-.29-.14-1.97-.95-1.98-.94.37-.63.47-.58.56-1.24.21-1.9-.36-5.49-.64-6.63-.14-.57-.57-2.21-.57-2.21,0,0,2.02-.16,2.03-.15.02.07.07.48.1.73,1.47-.72,2.24-.95,2.66-.96,2.32-.13,2.98,3.33,1.66,4.17ZM60.17,100.12c-.13-.68-.8-.79-1.58-.72l-1.71.39-.08-1.07c3.85-.79,2.14-3.17,1.58-3.17-.55,0-1.09.16-1.67.78-.06.07-.54.64-.62.66l-.1-.16c.29,1.84.58,4.51.64,6.06.36.09.55.12.55.12.74-.05,1.43-.34,1.83-.57.92-.55,1.37-1.39,1.17-2.32Z"/>
            <path class="cls-4" d="M65.88,97.79c.26,1.22,2.09,2.13,3.81,2.2.45.03,1.7-.08,1.7-.08l-.69,2.14c-2.69-.15-6.23-1.46-6.75-3.86-.43-1.99,1.18-4.11,3.19-5.51.41-.29.99-.69,1.45-.97l1.1,1.82c-1.59.53-4.18,2.61-3.82,4.27Z"/>
            <path class="cls-4" d="M76.09,100.2c-.1.82-.28,1.17-.27,1.18-.29-.12-1.97-.95-1.98-.94.37-.63.47-.58.56-1.23.22-1.91-.49-5.42-.76-6.56-.12-.56-.48-2.08-.48-2.08,0,0,2.1-.18,2.1-.16.04.11.06.69.09,1.18l1.25-1.54s.49.33,1.78,1.01c3.35,1.78,4.15,5.02,1.72,7.35-1.46,1.41-3.72,2.39-3.72,2.39l-.28-.6ZM76.11,98.69c.4.02.8.01,1.15-.2,4.52-2.81,2.09-5.7-.56-6.52-.07-.02-.94-.09-1.35-.12.02.16.03.3.04.39.32,1.82.64,4.77.71,6.46Z"/>
          </g>
        </g>
      </g>
    </g>
  </g>
</svg>