<?xml version="1.0" encoding="UTF-8"?>
<svg id="_レイヤー_2" data-name="レイヤー 2" xmlns="http://www.w3.org/2000/svg" xmlns:xlink="http://www.w3.org/1999/xlink" viewBox="0 0 280 280">
  <defs>
    <style>
      .cls-1 {
        fill: #300;
      }

      .cls-2, .cls-3, .cls-4, .cls-5 {
        fill: none;
      }

      .cls-6 {
        fill: #fcf0d0;
      }

      .cls-7 {
        clip-path: url(#clippath);
      }

      .cls-3, .cls-4, .cls-5 {
        stroke-miterlimit: 2.61;
        stroke-width: 1.5px;
      }

      .cls-3, .cls-5 {
        stroke: #300;
      }

      .cls-4 {
        stroke: #000;
      }

      .cls-4, .cls-5 {
        fill-rule: evenodd;
      }
    </style>
    <clipPath id="clippath">
      <rect class="cls-2" width="280" height="280"/>
    </clipPath>
  </defs>
  <g id="_デザイン" data-name="デザイン">
    <g class="cls-7">
      <g>
        <circle class="cls-6" cx="97" cy="97.17" r="21.19"/>
        <circle class="cls-6" cx="130.9" cy="64.27" r="10.59"/>
        <path class="cls-6" d="M139.48,99.96c17.08-13.03,35.37-24.3,54.68-33.71,6.94-3.38.86-13.73-6.06-10.36-19.31,9.41-37.6,20.68-54.68,33.71-6.06,4.62-.09,15.05,6.06,10.36h0Z"/>
        <path class="cls-6" d="M146.25,120.05c20.8-13.8,42.92-25.54,66.1-34.79,7.09-2.83,3.99-14.44-3.19-11.57-24.18,9.65-47.27,21.61-68.97,36-6.41,4.25-.4,14.65,6.06,10.36h0Z"/>
        <g>
          <path class="cls-4" d="M207.88,101.67c.94-.45,2.74-.98,5.07-1.61s5.21-1.37,6.88-2.06c1.67-.69,2.13-1.33,2.13-6.05s-.46-13.51-1.06-25.98c-.6-12.47-1.33-28.62-1.82-37.05-.48-8.42-.71-9.11-1.56-9.69-.85-.58-2.32-1.04-4.1-1.04s-3.84.46-10.42,2.58c-6.58,2.12-17.67,5.89-45.78,15.05-28.11,9.16-73.23,23.7-96.9,31.44-23.68,7.74-25.91,8.69-27.39,9.64-1.48.95-2.22,1.92-2.68,2.8-.46.87-.64,1.66.92,4.83,1.56,3.18,4.88,8.74,11.16,18.84,6.28,10.1,15.53,24.74,20.57,32.4,5.04,7.66,5.87,8.35,7.64,8.36,1.77.01,4.49-.66,11.94-2.92,7.46-2.27,19.65-6.13,39.82-12.62,20.17-6.49,48.31-15.6,63.33-20.52,15.03-4.92,16.93-5.66,18.66-5.74"/>
          <path class="cls-5" d="M1.31,202.41c34.6,0,3.28,0,24.84,0s30.08,0,34.58-.05c4.5-.05,4.98-.16,5.2-.34.23-.18.2-.42-.78-3.46-.97-3.05-2.9-8.89-4.64-14.41-1.75-5.52-3.32-10.72-4.2-14.02-.88-3.3-1.07-4.71-1.07-5.97s.19-2.37.43-3.05c.24-.68.54-.92,1.41-1.53.87-.61,2.3-1.58,4.79-2.65,2.49-1.07,6.04-2.23,8.07-2.79,2.03-.55,2.54-.5,3.02.12.47.62.91,1.81,1.26,2.52.35.7.62.92,4.03-.03,3.41-.95,9.96-3.06,27.87-8.8,17.91-5.74,47.17-15.1,67.15-21.48,19.98-6.37,30.67-9.76,36.17-11.63,5.5-1.87,5.79-2.22,5.94-2.73.15-.51.15-1.19-.01-2.1-.16-.91-.49-2.04-.6-2.83-.11-.79,0-1.22,1.11-1.75,1.11-.53,3.22-1.15,5.97-1.89s6.13-1.61,8.09-2.42c1.96-.81,2.5-1.57,2.5-7.12s-.54-15.89-1.25-30.56c-.7-14.67-1.57-33.67-2.14-43.58-.57-9.91-.84-10.72-1.84-11.4-1-.68-2.73-1.22-4.82-1.22s-4.52.54-12.26,3.03c-7.74,2.49-20.79,6.93-53.86,17.7-33.07,10.77-86.15,27.88-114,36.99-27.85,9.11-30.48,10.22-32.23,11.34-1.75,1.12-2.61,2.26-3.15,3.29-.54,1.03-.76,1.95,1.08,5.68,1.84,3.74,5.74,10.29,13.13,22.17,7.39,11.88,18.27,29.1,24.2,38.11,5.93,9.01,6.9,9.83,8.99,9.84,2.08.01,5.28-.77,14.05-3.44,8.77-2.67,23.12-7.21,46.84-14.85,23.73-7.63,56.83-18.35,74.51-24.15,17.68-5.79,19.92-6.66,21.95-6.75,2.03-.09,3.84.58,6.24.39,2.4-.19,5.37-1.25,7.8-1.92,2.42-.68,4.29-.97,5.75-.85,1.46.12,2.52.66,3.36,1.64.84.97,1.46,2.38,2.68,5.79,1.22,3.41,3.03,8.82,7.46,22.66,4.43,13.83,11.46,36.08,16.11,50.42,4.64,14.33,6.89,20.75,7.85,24.82.96,4.07.64,5.81.01,7.21-.62,1.41-1.54,2.49-10.42,5.68-8.88,3.19-25.72,8.5-37.11,12.09-11.4,3.59-17.35,5.45-20.6,6.19-3.25.73-3.79.32-4.64.11-.85-.22-2.02-.24-6.43.93-4.41,1.18-12.07,3.56-16.34,4.97-4.26,1.41-5.13,1.84-5.93,2.45-.8.61-1.53,1.39-2.26,2.02-.73.62-1.46,1.08-2.37,1.45-.91.37-1.99.64-4.09,1.33-2.1.69-5.21,1.8-7.07,2.03-1.85.23-2.45-.42-2.92-1.41-.47-.99-.83-2.31-2.15-6.46-1.33-4.14-3.63-11.1-5.5-16.82-1.87-5.73-3.3-10.22-3.98-12.87-.68-2.65-.6-3.46-.04-4.03.55-.57,1.58-.89,6.23-2.38,4.64-1.49,12.9-4.14,22.21-7.16,9.31-3.02,19.68-6.4,25.3-8.2,5.62-1.8,6.48-2.02,7.16-1.91.68.11,1.16.54,1.56,1.15.39.61.69,1.39,2.25,6.32,1.56,4.93,4.37,14,5.98,19.33,1.61,5.33,2.02,6.93,2.21,7.97.19,1.04.16,1.53-.39,1.98-.55.45-1.64.85-7.3,2.65-5.66,1.8-15.89,4.99-25.34,7.99-9.45,2.99-18.11,5.78-22.85,8.28-4.74,2.5-5.55,4.72-7.12,6.14-1.57,1.42-3.9,2.04-8.51,3.51-4.62,1.46-11.52,3.76-18.34,5.97-6.82,2.21-13.56,4.32-17.88,5.56-4.32,1.25-6.21,1.62-7.89,1.52-1.68-.11-3.14-.7-4.03-1.52-.89-.81-1.22-1.84-3.52-8.74-2.3-6.9-6.58-19.68-9.95-29.98s-5.83-18.12-7.17-22.55c-1.34-4.43-1.56-5.45-1.52-6.17.04-.72.34-1.12,1.49-1.54,1.15-.42,3.15-.85,4.17-.91,1.02-.05,1.04.27,1.62,2.14.58,1.87,1.72,5.28,3.07,9.35,1.35,4.07,2.92,8.81,3.95,11.38,1.03,2.57,1.52,2.98,2.14,3.21.62.23,1.38.28,7.7-1.73,6.32-2.02,18.2-6.1,39.01-12.99,20.8-6.89,50.53-16.58,71.78-23.56,12.59-4.14,48.47-17.31,75.62-27.35"/>
          <g>
            <path class="cls-1" d="M153.79,68.44c-.35.11-.88.54-1.16.8-1.53,1.4-2.61,3.37-2.48,5.18.13,1.82,1.81,2.07,3.38,2.22.54.06,1.39.06,1.44.71.04.59-1.37,3.38-1.67,4-.32.66-1.42,2.87-1.53,3.43-.08.39-.13.53-.55.73h-.04c-.36.12-.65-.07-.67-.41-.05-.73,2.57-5.79,3.11-7.15-2.24-.22-4.54-.51-4.72-3.14-.11-1.65.57-3.44,1.73-4.97.7-.92,2-2.26,3.09-2.59.33-.1.65.09.67.4.02.32-.25.68-.59.79Z"/>
            <path class="cls-1" d="M167.69,73.38c.29.82.58,1.66.83,2.5.11.43.27.89.31,1.34.02.32-.25.69-.59.79-.33.1-.65-.08-.67-.4-.03-.44-.21-.89-.32-1.28-.25-.83-.54-1.67-.83-2.5-2.03.62-4.07,1.28-6.09,1.73-.73,1.78-1.48,3.59-2.08,5.4-.09.29-.26.53-.58.62-.33.1-.65-.1-.67-.4-.05-.75,4.05-10.31,4.92-12.14.32-.65,1.07-2.42,1.86-2.66.86-.26,1.44,1.03,1.71,1.56.71,1.38,1.23,2.9,1.82,4.36.33-.12.68-.33.99-.43.33-.1.67.06.69.4.05.67-.81.94-1.31,1.11ZM165.91,72.43c-.5-1.34-1.28-3.45-2.09-4.62-.5.82-.91,1.72-1.29,2.58-.57,1.27-1.13,2.55-1.66,3.83,1.47-.37,2.95-.79,4.44-1.26l.71-.22-.11-.31Z"/>
            <path class="cls-1" d="M179.17,74.66l-.06.02c-1.03.28-2.04.47-3.06.78s-2.27.76-3.16,1.5c-.2.16-.34.33-.52.5-.12.12-.24.2-.39.24-.35.11-.64-.06-.67-.4,0-.06,0-.12,0-.18.17-.88.1-1.97.08-2.84-.05-1.6-.11-3.2-.23-4.81-.06-.85-.23-3.63-.49-4.3-.02-.05-.05-.13-.06-.19-.02-.34.23-.68.59-.79.29-.09.47.02.61.22.29.44.57,4.18.61,4.87.15,2.12.25,4.29.21,6.47,1.04-.72,2.24-1.18,3.37-1.52.9-.28,2.26-.66,3.13-.78.32-.04.58.1.6.42.02.32-.25.71-.59.79Z"/>
            <path class="cls-1" d="M189.98,59.79c-.89.66-5.27,1.93-6.56,2.37-.05,1.45-.01,2.9-.02,4.36,1.31-.46,2.63-.85,3.93-1.25l1.9-.58c.33-.1.65.08.67.4.02.32-.25.68-.59.79l-2.78.86c-1.02.32-2.09.62-3.13,1.02,0,1.56.02,3.09.04,4.64.5-.13,1-.29,1.53-.45,1.15-.35,2.49-.79,3.54-1.52.28-.21.55-.43.83-.66.1-.07.18-.14.29-.17.35-.11.67.08.69.42.02.24-.1.43-.3.62-1.44,1.33-3.22,1.96-4.93,2.49-.73.23-1.5.48-2.24.65-.4.08-.61-.14-.63-.49-.06-.83-.05-1.7-.07-2.57l-.02-3.7c0-1.44,0-2.89.02-4.34-.19.1-.59.37-.74.41-.36.11-.65-.06-.67-.4-.02-.26.12-.48.34-.67.79-.65,3.72-1.51,4.7-1.83.92-.3,2.88-.89,3.7-1.38.06-.04.12-.08.19-.1.36-.11.67.08.69.42.02.26-.14.51-.38.68Z"/>
          </g>
          <g>
            <path class="cls-1" d="M150.84,94.28c-.48.23-1.01.37-1.51.57-.6.23-3.22,1.2-3.62,1.58-.12.12-.22.21-.36.26-.04.01-.08,0-.12,0-.08.61-.13,1.24-.15,1.85,1.86.05,4.38-.3,4.49,2.26.09,2.36-2.65,4.8-4.48,5.99-.06.04-.12.06-.18.08-.32.1-.62-.08-.63-.43-.01-.27.16-.53.4-.71.46-.31.92-.62,1.35-.98.93-.79,2.38-2.33,2.33-3.57-.09-2.26-3.87-.67-4.38-1.75-.07-.15-.07-.31-.08-.48-.03-.66.05-1.36.12-2.03.12-1.04.24-2.07.39-3.1l.12-.98c.05-.31.28-.63.58-.73.34-.11.62.1.63.43.01.33-.09.78-.14,1.13l-.2,1.61c1.04-.68,2.69-1.25,3.8-1.65.46-.16,1.11-.45,1.55-.58.32-.1.6.11.61.44.01.35-.22.65-.52.79Z"/>
            <path class="cls-1" d="M159.85,96.32c-.8,2.51-2.91,6.35-5.54,7.16-1.7.52-2.24-1.24-2.29-2.65-.09-2.11.66-7.54,3.14-8.75.45-.9,1.15-1.91,2.1-2.2,1.82-.56,3.12,1.22,3.18,2.9.05,1.14-.21,2.37-.59,3.54ZM157.31,91.13c-1.03.32-2.08,3.64-2.05,4.55.01.33-.26.71-.58.81-.34.11-.62-.08-.63-.43-.01-.31.04-.64.08-.95-.67,1.67-.97,3.72-.91,5.35.02.6.16,2.05,1.03,1.78,1.37-.42,2.67-2.29,3.37-3.56.91-1.65,1.67-3.83,1.6-5.52-.04-.97-.81-2.37-1.92-2.03Z"/>
            <path class="cls-1" d="M165.64,91.83c-.22.07-.45,0-.56-.18-1,.12-1.97-.27-2.02-1.39-.06-1.55,1.81-4.21,3.67-4.78,1.21-.37,2.11.5,2.15,1.68.07,1.64-1.61,4.17-3.25,4.67ZM174.72,86.85c-3.21,4.51-6.71,8.91-9.68,13.55-.31.49-.61,1.17-1.05,1.31-.32.1-.6-.11-.61-.44,0-.14.03-.28.11-.41.65-1.14,1.69-2.6,2.47-3.7,1.55-2.2,3.16-4.39,4.74-6.58l3.39-4.67c.31-.43.62-.86.91-1.31.25-.39.53-.94.92-1.06.32-.1.6.09.61.42.02.54-1.27,2.11-1.81,2.88ZM166.78,86.7c-1.21.37-2.59,2.29-2.55,3.2.02.54.88.57,1.31.44.16-.05.33-.02.45.07.81-.59,1.76-1.93,1.72-2.88-.02-.52-.39-.99-.93-.82ZM173.95,99.2c-.32.1-.6-.05-.61-.4,0-.12.01-.24.09-.36-1.09-.04-1.69-.76-1.73-1.9-.06-1.55,1.1-3.65,2.72-4.15,1.7-.52,2.66.65,2.73,2.24.08,2.03-1.17,3.95-3.19,4.57ZM174.46,93.62c-.95.29-1.63,1.68-1.59,2.57.03.83.62,1.15,1.41.91.14-.04.26-.1.4-.14.24-.08.45-.01.56.18l.04-.05c.5-.7.72-1.31.69-2.08-.04-.91-.5-1.69-1.51-1.38Z"/>
            <path class="cls-1" d="M188.45,87.87c-.89,2.79-3.09,5.99-5.86,6.84-2.42.75-3.35-2.03-3.43-4.01-.09-2.13.66-5.02,2.49-6.76.55-1.51,1.68-2.49,3.09-2.92,2.18-.67,4.12,1.31,4.21,3.42.04,1.12-.13,2.3-.49,3.44ZM184.79,82.25c-1.21.37-1.95,1.21-2.21,2.51-.07.29-.06.58-.11.89-.07.36-.22.63-.58.75-.26.08-.51,0-.6-.25-.7,1.35-.97,2.86-.92,4.18.05,1.22.58,3.64,2.17,3.14,2.32-.72,4.13-3.58,4.79-5.86.29-.95.43-1.89.4-2.81-.06-1.41-1.47-3.01-2.94-2.55Z"/>
            <path class="cls-1" d="M198.49,77.92c-2,.62-4.02,1.22-6.02,1.9.02.06.03.14.03.2.02.44-.07,1.3-.09,1.79-.07,1.24-.13,2.47-.18,3.7l3.62-1.37c.69-.23,1.37-.51,2.06-.72.32-.1.64.06.65.41.02.37-.2.69-.56.82-.58.22-1.19.41-1.77.63-1.35.48-2.7,1-4.05,1.52-.07,1.72-.17,3.49-.1,5.17,0,.14.01.27.04.41.06.08.09.16.09.29.01.35-.26.69-.58.79-.77.24-.72-.72-.75-1.26-.06-1.62.01-3.27.07-4.91-.02.03-.06.04-.08.05-.32.1-.62-.08-.63-.43-.02-.5.36-.76.76-.88.05-1.23.11-2.44.18-3.68.03-.68.09-1.39.1-2.06-.28.13-.86.35-1.08.63-.14.19-.25.31-.48.38-.32.1-.6-.09-.61-.42,0-.17.03-.28.11-.43.61-1.13,3.64-1.98,4.61-2.3.87-.29,1.74-.56,2.62-.83l1.98-.61c.32-.1.62.1.63.43.01.35-.24.7-.58.81Z"/>
            <path class="cls-1" d="M208.31,74.89c-2,.62-4.02,1.22-6.02,1.9.02.06.03.14.03.2.02.44-.07,1.3-.09,1.79-.07,1.24-.13,2.47-.18,3.7l3.63-1.37c.69-.23,1.37-.51,2.06-.72.32-.1.64.06.65.41.02.37-.2.69-.56.82-.58.22-1.19.41-1.77.63-1.35.48-2.7,1-4.05,1.52-.07,1.72-.17,3.49-.1,5.17,0,.14.01.27.04.41.06.09.09.16.09.29.01.35-.26.69-.58.79-.77.24-.72-.72-.75-1.26-.06-1.62.01-3.27.07-4.91-.02.03-.06.04-.08.05-.32.1-.62-.08-.63-.43-.02-.5.36-.76.76-.88.05-1.23.11-2.44.18-3.68.03-.68.09-1.39.1-2.06-.28.13-.86.35-1.08.63-.14.19-.25.31-.48.38-.32.1-.6-.09-.61-.42,0-.17.03-.28.11-.43.61-1.13,3.64-1.98,4.61-2.3.87-.29,1.74-.56,2.62-.83l1.98-.61c.32-.1.62.1.63.43.01.35-.24.7-.58.81Z"/>
          </g>
          <circle class="cls-3" cx="92.76" cy="96.86" r="24.94"/>
          <circle class="cls-3" cx="127.61" cy="67.76" r="13.11"/>
        </g>
      </g>
    </g>
  </g>
</svg>