<?xml version="1.0" encoding="UTF-8"?>
<svg id="_レイヤー_2" data-name="レイヤー 2" xmlns="http://www.w3.org/2000/svg" xmlns:xlink="http://www.w3.org/1999/xlink" viewBox="0 0 300 240">
  <defs>
    <style>
      .cls-1 {
        stroke: #000;
      }

      .cls-1, .cls-2, .cls-3 {
        fill: none;
      }

      .cls-1, .cls-3 {
        stroke-miterlimit: 2.61;
        stroke-width: 1.5px;
      }

      .cls-4 {
        fill: #300;
      }

      .cls-5 {
        fill: #fcf0d0;
      }

      .cls-6 {
        clip-path: url(#clippath);
      }

      .cls-3 {
        fill-rule: evenodd;
        stroke: #300;
      }
    </style>
    <clipPath id="clippath">
      <rect class="cls-2" width="300" height="240"/>
    </clipPath>
  </defs>
  <g id="_デザイン" data-name="デザイン">
    <g class="cls-6">
      <g>
        <g>
          <path class="cls-5" d="M199.68,181.04l-.15-.92-1.85,6.99c1.06-1.2,6.29-1.7,7.81-2.11,3.04-.81,6.09-1.58,9.15-2.31,5.81-1.39,11.65-2.66,17.52-3.78,12.04-2.31,24.17-4.01,36.38-5.15,9.13-.85,9.22-15.24,0-14.38-15.67,1.47-31.27,3.73-46.68,6.97-7.39,1.55-14.73,3.31-22.02,5.28s-15.53,3.8-14.03,13.23c.61,3.86,5.39,5.93,8.84,5.02,4.1-1.08,5.63-5.03,5.02-8.84h0Z"/>
          <path class="cls-5" d="M199.19,208.26c10.42-3.93,21.56-3.98,32.42-5.93,10.98-1.97,21.49-5.73,31.47-10.66,8.29-4.1,1.02-16.5-7.26-12.41-9.41,4.65-19.44,7.83-29.81,9.51s-20.77,1.9-30.64,5.62c-8.57,3.23-4.86,17.14,3.82,13.86h0Z"/>
          <path class="cls-5" d="M203.68,227.37c7.82-4.38,16.96-4.89,25.56-6.8,9.18-2.04,17.52-6.17,27.01-6.89,9.17-.7,9.24-15.08,0-14.38-10.91.83-20.31,5.08-30.83,7.4-9.97,2.2-19.91,3.17-29,8.25-8.07,4.52-.83,16.94,7.26,12.41h0Z"/>
          <path class="cls-3" d="M266.16,219.2l-66.97,12.02c-1.95.32-3.81-1.01-4.13-2.96l-11.75-58.63c-.32-1.95,1.01-3.81,2.96-4.13l92.93-19.01c1.95-.32,3.81,1.01,4.13,2.96l-14.2,65.62c.32,1.95-1.01,3.81-2.96,4.13Z"/>
          <g>
            <path class="cls-4" d="M197.24,178.74c.91-.18,1.53-.4,1.86-.65.89-.69,1.48-1.16,1.77-1.44l.18-.55,2.58.32c-.26.79-.39,1.25-.39,1.34-.13,2.63-.34,5.44-.67,8.42,0,.11-.08.44-.21,1.01-.15.63-.24.95-.28.97-.24,0-.96-.13-2.36-.39.37-1.07.54-1.6.54-1.58.41-2.2.64-3.8.67-4.8l.09-2.64c-1.28.92-2.24,1.6-2.9,2.04-.05.03-.22-.3-.5-.99-.27-.7-.39-1.06-.37-1.08Z"/>
            <path class="cls-4" d="M207.42,176.5c1.6-.73,2.93-1.2,4-1.37,1.09-.17,2.01-.09,2.78.25.98.45,1.46,1.19,1.46,2.26,0,.6-.17,1.15-.47,1.8-.46.89-1.23,1.76-2.07,2.61-.71.7-1.96,2.02-1.96,2.02l2.22-.48c.64-.19,1.18-.38,1.66-.57l.26,2.32-6.36,1.08-1.35.44c.09,0-.4-2.25-.4-2.25.04.07.33-.04.85-.28.4-.21,1.84-1.52,3.07-2.75,1.33-1.35,2.12-2.56,2.13-3.47,0-.14-.02-.26-.05-.38-.18-.7-.76-.96-1.68-.82-.49.08-.98.23-1.49.49-.58.31-1.2.72-1.82,1.23l-.77-2.15Z"/>
            <path class="cls-4" d="M225.26,179.96c.04-.13.06-.26.06-.38,0-.38-.12-.69-.36-.92-.25-.21-.58-.26-.96-.15l-2.34.75-.22-1.96c1.24-.36,2.2-.71,2.86-1.04.25-.15.46-.27.6-.38.09-.25.15-.49.15-.68,0-.27-.09-.43-.27-.51-.29-.13-.69-.16-1.2-.08-.56.09-1.22.32-1.95.67-.17.08-.55.32-1.2.74l-.42-2.21c.82-.22,1.29-.37,1.38-.42.66-.35,1.38-.49,2.15-.61,1.02-.16,1.91-.14,2.63.06.34.11.63.27.87.55.32.34.48.76.48,1.24,0,.94-.47,1.75-1.38,2.37.6.17,1.03.55,1.32,1.12.25.53.34,1.14.28,1.84-.16,1.45-1.07,2.62-2.8,3.52-1.06.58-2.55,1.06-4.46,1.49l-.69-2.18c.78.12,1.18.2,1.2.2,1.05-.22,1.85-.47,2.42-.76.97-.51,1.59-1.27,1.87-2.29Z"/>
            <path class="cls-4" d="M234.59,173.46c.44-.83.75-1.65.96-2.43.89.36,1.43.52,1.41.52,0-.25.04-.74.1-1.46l2.18.15c0,.05-.04.31-.13.79-.08.46-.13.73-.15.81-.02.73-.06,1.68-.13,2.88-.06,1.01-.1,1.58-.1,1.71l.42-.07,1.69-.48.26,2.07c-.76.05-1.67.18-2.54.32-.1,1.42-.27,2.48-.47,2.96-.13.34-.31.78-.75,1.36-.09-.04-.78-.32-2.06-.81.38-.38.64-.69.81-.91.28-.61.48-1.43.61-2.25-2.31.37-3.52.56-3.67.6-.27.08-.69.25-1.27.49l-.57-2.17c.38-.2.64-.37.75-.47,1.06-1.04,1.96-2.25,2.67-3.61ZM235.1,175.62c-.35.5-.7,1-1.06,1.48,1.22-.16,2.13-.27,2.73-.35.11-2.56.17-3.94.17-4.15-.27.42-.46.71-.55.87-.29.63-.72,1.34-1.28,2.14Z"/>
            <path class="cls-4" d="M251.61,168.92l1.08-.49.46,2.04c-3.04.5-4.56.76-4.58.77l-.42.21c-.15.59-.28,1.11-.43,1.58.29-.08.42-.14.42-.14,0,0,.07-.01.22-.05.15-.02.29-.07.44-.09.96-.15,1.8.02,2.52.52.72.49,1.08,1.18,1.08,2.07,0,.23-.02.48-.08.74-.6,2.44-2.57,4.07-5.95,4.91l-1.4.33-.31-2.35c.69.14,1.05.21,1.09.22,1.09-.21,1.89-.46,2.4-.76.93-.5,1.52-1.31,1.74-2.39.04-.15.06-.28.06-.42,0-.85-.46-1.22-1.41-1.13-.84.12-1.66.39-2.46.8l-.5-1.75c.17-.22.41-.76.52-1.56.06-.35.1-.71.12-1.14.04-.54.04-1.22.05-2l2.32-.16c0,.12,0,.64-.04.75.82-.09,1.85-.28,3.07-.52Z"/>
            <path class="cls-4" d="M261.68,166.94c.6-.34,1.04-.59,1.33-.78l.84,2.12c-.89.18-1.75.54-2.53,1.1-.84.56-1.5,1.25-1.97,2.02.62-.33,1.24-.5,1.78-.59,1-.16,1.81.1,2.46.76.61.6.9,1.39.89,2.35,0,1.49-.67,2.7-1.98,3.64-.78.57-1.59.91-2.4,1.04-.78.12-1.47.04-2.09-.27-.6-.31-1.03-.81-1.28-1.48-.25-.67-.37-1.43-.37-2.29.02-3.06,1.78-5.6,5.31-7.62ZM258.59,174.84c0,1.01.35,1.6,1.06,1.79.27.06.53.06.78.02.73-.12,1.29-.56,1.7-1.34.18-.4.3-.83.3-1.27,0-.76-.3-1.25-.9-1.46-.42-.15-.82-.08-1.2-.02-.55.09-.96.35-1.28.83-.31.48-.46.89-.46,1.46Z"/>
          </g>
        </g>
        <path class="cls-5" d="M60.94,167.86c30.34-10.85,61.68-18.54,93.6-22.96,3.87-.54,5.92-5.44,5.02-8.84-1.1-4.15-5.01-5.55-8.84-5.02-31.92,4.42-63.26,12.11-93.6,22.96-8.65,3.09-4.92,16.99,3.82,13.86h0Z"/>
        <g>
          <path class="cls-4" d="M72.33,157.77c.14.96,1.2,1.62,1.21,1.61l.07.06-1.83,1.72-.04-.03s-.54-.45-.89-.96c-.61.81-1.54,1.62-2.75,1.63-.75,0-1.34-.24-1.77-.72-.9-1-.76-2.72-.72-3.06.19-1.83,1.03-3.31,2.15-3.92.68-.35,1.45-.35,2.22,0-.1-.72-.24-1.42-.24-1.42l2.55.33s-.17,1.01-.17,1.18c-.05,1.21.11,2.77.21,3.6ZM70.14,155.91c-.27-.16-.6-.31-.86-.38-.36-.12-.68-.07-.95.1-.53.37-.84,1.3-.93,2.76-.03.52.12.95.4,1.16.29.21.69.22,1.18.04,1.06-.39,1.19-2.33,1.19-3.35-.02-.11-.03-.21-.03-.32Z"/>
          <path class="cls-4" d="M75.95,157.61c.22-1.87-.35-5.24-.64-6.61-.02-.1-.04-.19-.06-.26l-.53-2.26,2.28-.11c.02.09.04.34.06.78.03.42.06.89.09,1.12.09.51.17,1.12.26,1.77.75-.16,1.57-.32,2.03-.31,2.9-.02,3.27,2.2,3.3,3.16.06,2.16-2.48,4.35-4.19,4.85h-.05s-.61-1.2-.61-1.2c-.07.71-.31,1.45-.31,1.45l-2.25-1.04s.58-.86.63-1.33ZM77.92,157.44c.27.05.56.1.56.1.56-.06,1.33-.66,1.8-1.35.28-.41.59-1.03.43-1.67-.1-.47-.44-.92-.84-1.14-.38-.21-.81-.25-1.24-.1-.4.12-.73.27-1.02.4.16,1.42.27,2.85.3,3.76Z"/>
          <path class="cls-4" d="M87.28,152.44c-.46.67-.63,1.48-.46,2.2.11.4.32.72.63.89.4.24.96.25,1.63.05,1.21-.35,2.92-2.49,2.93-2.51l.11-.15v2.85s-.03,0-.03,0c-.03.02-1.78,1.8-3.9,1.86-3.11.07-3.52-2.34-3.55-3.39-.09-2.85,2.75-4.52,4.79-4.77h.05s.92,1.85.92,1.85h-.11s-.59-.03-1.47.09c-.56.07-1.15.45-1.56,1.04Z"/>
          <path class="cls-4" d="M94.6,155.03c-.92-1-.76-2.74-.72-3.06.19-1.83,1.01-3.31,2.13-3.92.7-.35,1.45-.35,2.22,0-.11-.93-.2-1.76-.24-2.21-.1-1.05-.34-2.26-.34-2.26l-.02-.09,2.29-.04h.06s0,1.17,0,1.17c-.02,1.02.59,6.46.76,7.58.15.92.84.9.88.91h.14s-1.56,2.04-1.56,2.04l-.06-.04s-.59-.5-.96-1.04c-.63.83-1.57,1.68-2.81,1.7-.74,0-1.34-.24-1.76-.72ZM96.07,153.5c.29.21.69.22,1.19.04,1.19-.46,1.21-2.8,1.17-3.66-.27-.16-.6-.33-.86-.4-.38-.12-.7-.07-.97.1-.53.37-.84,1.3-.93,2.76-.03.52.11.95.4,1.17Z"/>
        </g>
        <path class="cls-5" d="M51.09,133.21c5.65-6.99,14.31-9.89,22.66-12.38,9-2.68,18.26-4.41,27.52-5.91,19.71-3.2,39.55-5.48,59.45-7.01,9.16-.71,9.24-15.09,0-14.38-21.8,1.68-43.55,4.24-65.13,7.83-10.18,1.69-20.34,3.72-30.13,7.03-9.08,3.07-18.36,7.02-24.54,14.66-2.46,3.04-2.92,7.18,0,10.17,2.5,2.55,7.73,3.01,10.17,0h0Z"/>
        <path class="cls-1" d="M218.83,39.82c-1.11.2-3.74-1.76-6.86-1.19-1.84.33-3.57,3.08-6.01,3.53-1.97.36-4.55-1.61-6.87-1.18-2.02.37-3.75,3.12-6.01,3.53-2.06.38-4.63-1.59-6.87-1.18-2.07.38-3.79,3.13-6,3.53-2.09.38-4.67-1.58-6.87-1.18s-3.82,3.13-6.01,3.53-4.69-1.58-6.87-1.18-3.83,3.14-6.01,3.53-4.7-1.58-6.87-1.18-3.84,3.14-6,3.53-4.71-1.57-6.87-1.18-3.85,3.14-6.01,3.53-4.72-1.57-6.87-1.18-3.86,3.14-6.01,3.53-4.73-1.57-6.87-1.18c-2.15.39-3.87,3.14-6.01,3.54s-4.73-1.57-6.87-1.18-3.87,3.14-6.01,3.54-4.74-1.57-6.87-1.18-3.88,3.15-6.01,3.54-4.75-1.57-6.87-1.18-3.89,3.15-6.01,3.54-4.76-1.56-6.87-1.18-3.91,3.15-6.01,3.54c-2.2.4-4.79-1.56-6.88-1.18-2.22.41-3.94,3.16-6.01,3.54-2.24.41-4.82-1.55-6.87-1.18-2.27.42-3.99,3.17-6.01,3.54-2.32.43-4.91-1.53-6.86-1.18"/>
        <path class="cls-1" d="M219.84,22.79c-1.11.2-3.74-1.76-6.86-1.19-1.84.33-3.57,3.08-6.01,3.53-1.97.36-4.55-1.61-6.87-1.18-2.02.37-3.75,3.12-6.01,3.53-2.06.38-4.63-1.59-6.87-1.18-2.07.38-3.79,3.13-6,3.53-2.09.38-4.67-1.58-6.87-1.18s-3.82,3.13-6.01,3.53-4.69-1.58-6.87-1.18-3.83,3.14-6.01,3.53-4.7-1.58-6.87-1.18-3.84,3.14-6,3.53-4.71-1.57-6.87-1.18-3.85,3.14-6.01,3.53-4.72-1.57-6.87-1.18-3.86,3.14-6.01,3.53-4.73-1.57-6.87-1.18-3.87,3.14-6.01,3.54-4.73-1.57-6.87-1.18-3.87,3.14-6.01,3.54-4.74-1.57-6.87-1.18-3.88,3.15-6.01,3.54-4.75-1.57-6.87-1.18-3.89,3.15-6.01,3.54-4.76-1.56-6.87-1.18-3.91,3.15-6.01,3.54c-2.2.4-4.79-1.56-6.88-1.18-2.22.41-3.94,3.16-6.01,3.54-2.24.41-4.82-1.55-6.87-1.18-2.27.42-3.99,3.17-6.01,3.54-2.32.43-4.91-1.53-6.86-1.18"/>
        <path class="cls-1" d="M216.41,57.68c-1.11.2-3.74-1.76-6.86-1.19-1.84.33-3.57,3.08-6.01,3.53-1.97.36-4.55-1.61-6.87-1.18-2.02.37-3.75,3.12-6.01,3.53-2.06.38-4.63-1.59-6.87-1.18-2.07.38-3.79,3.13-6,3.53-2.09.38-4.67-1.58-6.87-1.18s-3.82,3.13-6.01,3.53-4.69-1.58-6.87-1.18-3.83,3.14-6.01,3.53-4.7-1.58-6.87-1.18-3.84,3.14-6,3.53-4.71-1.57-6.87-1.18-3.85,3.14-6.01,3.53-4.72-1.57-6.87-1.18-3.86,3.14-6.01,3.53-4.73-1.57-6.87-1.18-3.87,3.14-6.01,3.54-4.73-1.57-6.87-1.18-3.87,3.14-6.01,3.54-4.74-1.57-6.87-1.18-3.88,3.15-6.01,3.54-4.75-1.57-6.87-1.18-3.89,3.15-6.01,3.54-4.76-1.56-6.87-1.18-3.91,3.15-6.01,3.54c-2.2.4-4.79-1.56-6.88-1.18-2.22.41-3.94,3.16-6.01,3.54-2.24.41-4.82-1.55-6.87-1.18-2.27.42-3.99,3.17-6.01,3.54-2.32.43-4.91-1.53-6.86-1.18"/>
        <path class="cls-3" d="M219.72,136l-153.73,30.17c-3.39.81-5.38,1.62-7.59-2.22l-9.01-13.8c-.38-1.94.9-3.84,2.84-4.22l168.28-31.57c1.94-.38,3.84.9,4.22,2.84l.1,11.26c-.42,4.55-3.16,7.16-5.1,7.54Z"/>
        <path class="cls-3" d="M215.81,101.21l-165.29,31.68c-3.39.81-5.38,1.62-7.59-2.22l-9.01-13.8c-.38-1.94.9-3.84,2.84-4.22l179.85-33.08c1.94-.38,3.84.9,4.22,2.84l.1,11.26c-.42,4.55-3.16,7.16-5.1,7.54Z"/>
        <g>
          <path class="cls-4" d="M52.51,129.85s-1.89-1.94-1.86-1.97c0,0,1.15-1.08,1.21-1.2.45-1.16.87-2.87,1.12-3.99.38-1.74.54-3.96.62-5.3,0-.17-.08-1.82-.08-1.82,0-.06,2.39.33,2.4.31-.05.08-.07.53-.07.53.65,1.04,1.34,2.21,2.27,3.61.88,1.32,2.15,3.14,3.02,3.98.28.27,1.44.77,1.44.77-.07.03-1.25,2.28-1.25,2.28,0,0-1.14-.75-1.9-1.72-.4-.5-.79-1.02-1.17-1.57l-3.77,1.02c-.38,1.81-.8,3.36-.9,3.65-.06.12-1.07,1.43-1.07,1.43ZM54.85,122.74l2.27-.62c-1.02-1.54-1.78-2.79-1.78-2.79-.09.42-.26,1.86-.49,3.42Z"/>
          <path class="cls-4" d="M72.1,117.91s1.07.1,1.56,1c.3.54.4.91.49,1.59.17,1.4-.63,2.69-1.94,3.6-.82.56-1.98,1.15-3.63,1.49l-.67-1.29c-.04,1.61-.39,2.26-.37,2.27-.35-.16-2.36-1.14-2.38-1.12.44-.76.57-.69.67-1.49.26-2.28-.43-6.58-.77-7.94-.17-.68-.68-2.65-.68-2.65,0,0,2.42-.2,2.43-.18.02.09.09.57.12.88,1.76-.86,2.68-1.13,3.19-1.15,2.78-.16,3.57,3.99,1.98,4.99ZM72.15,120.07c-.16-.81-.96-.95-1.9-.86l-2.05.46-.09-1.29c4.61-.95,2.56-3.79,1.9-3.8-.66,0-1.3.19-2,.93-.07.09-.64.76-.75.79l-.12-.2c.35,2.21.69,5.4.77,7.26.43.11.66.15.66.15.89-.06,1.71-.41,2.19-.68,1.11-.66,1.64-1.66,1.4-2.79Z"/>
          <path class="cls-4" d="M78.99,117.28c.32,1.46,2.5,2.55,4.56,2.63.54.03,2.04-.09,2.04-.09l-.82,2.57c-3.22-.18-7.46-1.75-8.09-4.63-.52-2.39,1.42-4.92,3.83-6.61.5-.35,1.18-.83,1.73-1.17l1.32,2.18c-1.9.63-5,3.13-4.57,5.11Z"/>
          <path class="cls-4" d="M91.22,120.17c-.12.98-.34,1.4-.32,1.41-.34-.15-2.36-1.14-2.38-1.12.44-.76.57-.69.67-1.47.26-2.28-.58-6.49-.91-7.86-.14-.67-.58-2.49-.58-2.49,0,0,2.51-.21,2.51-.2.05.14.07.83.1,1.41l1.49-1.85s.58.39,2.14,1.21c4.01,2.13,4.97,6.02,2.06,8.81-1.75,1.69-4.46,2.86-4.46,2.86l-.34-.72ZM91.25,118.36c.48.02.96.01,1.38-.25,5.41-3.36,2.51-6.83-.67-7.82-.08-.02-1.13-.1-1.61-.15.03.2.04.36.05.47.38,2.18.76,5.72.85,7.74Z"/>
        </g>
      </g>
    </g>
  </g>
</svg>