<?xml version="1.0" encoding="UTF-8"?>
<svg id="_レイヤー_2" data-name="レイヤー 2" xmlns="http://www.w3.org/2000/svg" xmlns:xlink="http://www.w3.org/1999/xlink" viewBox="0 0 300 240">
  <defs>
    <style>
      .cls-1 {
        stroke: #300;
        stroke-linecap: round;
        stroke-linejoin: round;
        stroke-width: 1.5px;
      }

      .cls-1, .cls-2 {
        fill: none;
      }

      .cls-3 {
        fill: #300;
      }

      .cls-4 {
        fill: #fcf0d0;
      }

      .cls-5 {
        clip-path: url(#clippath);
      }
    </style>
    <clipPath id="clippath">
      <rect class="cls-2" width="300" height="240"/>
    </clipPath>
  </defs>
  <g id="_デザイン" data-name="デザイン">
    <g class="cls-5">
      <g>
        <g>
          <path class="cls-4" d="M96.2,134.74c9.71,0,9.73-15.09,0-15.09s-9.73,15.09,0,15.09h0Z"/>
          <g>
            <path class="cls-4" d="M91.77,76.2c5.49-7.78,12.77-14.11,20-20.22,8.35-7.05,16.82-13.96,25.37-20.78,3.21-2.56,2.62-7.99,0-10.67-3.11-3.18-7.51-2.53-10.67,0-16.7,13.32-35.29,26.42-47.73,44.05-5.61,7.95,7.47,15.5,13.03,7.62h0Z"/>
            <path class="cls-4" d="M75.61,70.33c5.49-7.78,12.77-14.11,20-20.22,8.35-7.05,16.82-13.96,25.37-20.78,3.21-2.56,2.62-7.99,0-10.67-3.11-3.18-7.51-2.53-10.67,0-16.7,13.32-35.29,26.42-47.73,44.05-5.61,7.95,7.47,15.5,13.03,7.62h0Z"/>
            <path class="cls-4" d="M92.39,98.15c15.95-16.17,32.01-32.24,48.17-48.2,6.92-6.84-3.75-17.51-10.67-10.67-16.16,15.96-32.22,32.03-48.17,48.2-6.83,6.92,3.84,17.6,10.67,10.67h0Z"/>
            <path class="cls-4" d="M143.16,122.34c9.71,0,9.73-15.09,0-15.09s-9.73,15.09,0,15.09h0Z"/>
            <path class="cls-4" d="M116.55,96.27c9.44-8.51,18.87-17.03,28.31-25.54,7.23-6.52-3.47-17.17-10.67-10.67-9.44,8.51-18.87,17.03-28.31,25.54-7.23,6.52,3.47,17.17,10.67,10.67h0Z"/>
            <g>
              <path class="cls-1" d="M12.16,24l27.14,6.16,43.4,64.1,64.27-12.26,12.04-53.87c.76-3.41-2.25-6.47-5.67-5.76l-98.94,20.43"/>
              <polyline class="cls-1" points="82.8 94.7 76.63 115.96 155.71 100.88"/>
              <line class="cls-1" x1="62.46" y1="58.48" x2="153.14" y2="42.25"/>
              <line class="cls-1" x1="74.87" y1="75.59" x2="150.32" y2="62.21"/>
              <line class="cls-1" x1="92.37" y1="38.21" x2="102.1" y2="89.24"/>
              <line class="cls-1" x1="129.85" y1="29.22" x2="130.01" y2="85.24"/>
              <ellipse class="cls-1" cx="94.75" cy="125.75" rx="10.1" ry="10.07" transform="translate(-21.87 19.97) rotate(-10.79)"/>
              <ellipse class="cls-1" cx="142.61" cy="116.62" rx="10.1" ry="10.07" transform="translate(-19.32 28.77) rotate(-10.79)"/>
            </g>
          </g>
        </g>
        <path class="cls-4" d="M107.51,228.19c58.46-20.37,117.88-37.87,178.04-52.45,9.44-2.29,5.44-16.85-4.01-14.56-60.16,14.58-119.58,32.08-178.04,52.45-9.12,3.18-5.19,17.76,4.01,14.56h0Z"/>
        <path class="cls-4" d="M149.91,160.83c22.23-7.75,44.53-15.36,67.17-21.83s45.58-11.91,68.47-17.45c9.44-2.28,5.44-16.84-4.01-14.56-22.89,5.53-45.82,10.98-68.47,17.45s-44.94,14.08-67.17,21.83c-9.11,3.18-5.19,17.77,4.01,14.56h0Z"/>
        <g>
          <path class="cls-3" d="M141.74,169.94c-.75.21-1.89,1.1-2.51,1.66-3.33,2.93-5.82,7.13-5.8,11.06.02,3.97,3.47,4.64,6.69,5.06,1.1.16,2.87.23,2.88,1.65,0,1.29-3.27,7.23-3.96,8.55-.74,1.42-3.32,6.12-3.62,7.33-.21.84-.35,1.13-1.23,1.56l-.09.02c-.75.21-1.32-.23-1.33-.96,0-1.6,6.06-12.38,7.37-15.3-4.59-.64-9.31-1.42-9.35-7.16-.02-3.58,1.63-7.42,4.22-10.65,1.58-1.96,4.43-4.75,6.72-5.4.7-.2,1.33.23,1.33.92,0,.69-.61,1.47-1.31,1.67Z"/>
          <path class="cls-3" d="M166.99,189.88c-1.4,1.78-2.89,3.37-4.96,3.95-2.33.66-2.7-1.66-2.71-3.42-.01-2.11.28-4.31.27-6.43,0-.43.03-2.86-.68-2.66-1.06.3-2.8,3.51-3.24,4.37-1.48,2.84-2.61,5.84-3.74,8.79-.35.88-.61,1.73-1,2.57-.35.83-.78,1.82-1.75,2.09-.53.15-.88,0-1.24-.25-1.29-.98-1.28-8.15-1.29-9.78,0-1.21-.01-2.46.02-3.68.06-4.16.3-8.42.68-12.67.17-1.99.33-4.33.76-6.35.13-.68.65-1.22,1.31-1.41.71-.2,1.28.2,1.29.89v.22c-1.15,7.37-1.46,14.71-1.42,21.78.01,2.11.07,4.17.21,6.2,1.35-3.49,5.17-14.16,9.35-15.34,2.99-.85,3.41,2.28,3.42,4.52.01,2.11-.33,4.33-.32,6.48,0,.43,0,1.08.18,1.42,1.94-.63,2.89-3.11,4.04-3.43.71-.2,1.32.19,1.33.88,0,.47-.21.88-.52,1.27Z"/>
          <path class="cls-3" d="M174.8,190.13c-4.32,1.22-6.54-2.9-6.56-6.56,0-1.51.22-7.1,2.38-7.71.13-.04.22-.06.35-.06.78-2.98,2.92-5.41,5.87-6.24,4.62-1.31,7.68,1.07,7.71,5.55.03,5.13-3.85,13.35-9.75,15.02ZM176.85,172.14c-2.11.6-3.47,2.67-3.46,4.65,0,.6.27,1.05.27,1.56,0,.69-.57,1.5-1.27,1.7-.57.16-1.06-.09-1.28-.5-.17,1.13-.25,2.19-.25,3.26.01,2.16,1.22,5.48,3.91,4.72,4.23-1.2,7.14-8.11,7.12-11.69-.02-2.97-1.88-4.61-5.05-3.71Z"/>
          <path class="cls-3" d="M201.62,176.76c-2.58,3.24-6.1,5.96-9.7,7.58-.07,2.92-.19,5.84-.17,8.69,0,.95-.03,1.95.15,2.81.13.18.27.4.27.66,0,.73-.61,1.47-1.31,1.67-.44.12-.7.11-1.01-.1-.8-.47-.73-3.6-.73-4.54-.01-2.67.06-5.37.13-8.11-.97.27-1.89.36-1.9-.84,0-1.12,1.14-1.53,1.97-1.81v-.13c-.02-4.05.26-8.15.24-12.25-.22.23-.53.41-.79.48-.7.2-1.28-.16-1.28-.89,0-.43.17-.78.48-1.17,1.67-1.94,4.7-3.49,6.9-4.11,4.49-1.27,10.1-.44,10.13,4.61.01,2.54-1.6,5.29-3.35,7.47ZM194.91,167.25c-.97.27-1.89.67-2.82,1.14.04.16.09.28.09.41.02,4.27-.08,8.58-.19,12.88,2.82-1.4,5.71-3.69,7.77-6.26,1.23-1.51,2.58-3.58,2.57-5.39-.02-3.49-4.52-3.6-7.42-2.78Z"/>
          <path class="cls-3" d="M222.05,170.98c-2.58,3.24-6.1,5.96-9.7,7.58-.07,2.91-.19,5.84-.17,8.69,0,.95-.03,1.95.15,2.81.13.18.27.4.27.66,0,.73-.61,1.47-1.31,1.67-.44.12-.7.11-1.01-.1-.8-.47-.73-3.6-.73-4.54-.01-2.67.06-5.37.13-8.11-.97.27-1.89.36-1.9-.84,0-1.12,1.14-1.53,1.97-1.81v-.13c-.02-4.05.26-8.15.24-12.25-.22.24-.53.41-.79.48-.7.2-1.28-.16-1.28-.89,0-.43.17-.78.48-1.17,1.67-1.94,4.7-3.49,6.9-4.11,4.49-1.27,10.1-.44,10.13,4.61.01,2.54-1.6,5.29-3.35,7.47ZM215.34,161.47c-.97.27-1.89.67-2.82,1.14.04.16.09.28.09.41.02,4.27-.08,8.58-.19,12.88,2.82-1.4,5.71-3.69,7.77-6.26,1.23-1.51,2.58-3.58,2.57-5.39-.02-3.49-4.52-3.6-7.42-2.78Z"/>
          <path class="cls-3" d="M231.87,174.64c-3,.85-3.21-5.57-3.22-7.47-.01-2.03.11-4.22.58-6.3.13-.64.61-1.21,1.27-1.4.71-.2,1.33.23,1.33.92,0,.09-.04.19-.04.27-.34,1.87-.55,3.74-.54,5.55,0,1.6.2,4.31.87,5.58.39-.5.57-.9,1.23-1.08.7-.2,1.32.23,1.33.92,0,1.21-1.71,2.69-2.8,3ZM233.59,151.43c-1.41.4-2.75-2.03-3.24-2.84-.13-.18-.22-.41-.22-.67,0-.73.56-1.46,1.31-1.67.48-.14.93,0,1.15.37.36.59,1.16,1.96,1.78,2.26.31.17.53.5.53.89,0,.73-.57,1.46-1.31,1.67Z"/>
          <path class="cls-3" d="M255.42,166.5c-3.3.93-3.46-3.08-3.47-5.41,0-1.47.07-2.91.06-4.34,0-.78-.07-3.96-.77-4.01-.13,0-.27-.01-.44.04-1.98.56-5.13,4.78-6.22,6.51-.7,1.06-1.31,2.14-1.88,3.25-.22.41-.53.71-.96.92.01,2.07.07,4.26.21,6.29v.17c.05.72-.56,1.5-1.31,1.71-.66.19-1.15-.19-1.28-.76-.32-1.51-.3-5.36-.31-7.08-.01-2.11.02-4.28.05-6.41.04-1.09-.01-2.24.11-3.31.08-.71.57-1.37,1.31-1.58.75-.21,1.37.22,1.33.92v.13c-.08,2.01-.11,3.96-.14,5.96,1.83-3.07,5.64-8.33,9.12-9.32,3.61-1.02,3.81,2.9,3.82,5.48,0,1.51-.07,3-.06,4.51,0,.47.02,3.97.77,3.75.26-.07.53-.28.79-.35.75-.21,1.33.23,1.33.96,0,1.08-1.14,1.7-2.06,1.96Z"/>
          <path class="cls-3" d="M278.15,161.67c-1.63.89-3.25,1.61-4.84,2.53-.12,1.33-.21,2.65-.2,3.9.02,3.02-.31,6.96-4.41,8.11-2.91.82-5.6-.23-5.62-3.12-.02-4.27,4.28-7.82,7.84-10.12.17-1.47.47-2.98.77-4.49-1.8,1.46-4.13,2.81-6.15,3.38-3.96,1.12-5.83-1.12-5.85-4.95-.03-5.04,3.94-12.52,9.4-14.06,3.92-1.11,6.45,1.16,6.47,4.87,0,1.51-.2,2.91-.81,4.46-.22.58-.61.99-1.18,1.16-.7.2-1.28-.11-1.28-.85,0-.17.04-.36.08-.54.43-1.33.65-2.17.64-3.51-.01-2.29-1.43-3.78-3.9-3.09-3.96,1.12-6.88,7.22-6.86,10.79.01,2.42.82,3.92,3.33,3.21.13-.04.31-.09.48-.18,2.95-1.09,4.62-2.6,6.94-4.9.26-.25.48-.4.79-.48.75-.21,1.28.2,1.29.93,0,.13,0,.26-.04.36-.56,2.1-1.03,4.18-1.33,6.25.75-.38,3.61-1.93,4.22-2.1.66-.19,1.28.24,1.28.93,0,.6-.43,1.2-1.05,1.51ZM265.64,172.38c0,1.51,1.55,1.76,3.05,1.34,1.98-.56,1.88-3.68,1.87-4.89,0-.95-.01-1.9.07-2.91-2.02,1.48-5,3.96-4.99,6.46Z"/>
        </g>
        <g>
          <path class="cls-3" d="M188.26,127.78c-2.13,5.79-7.12,12.38-13.15,14.08-5.28,1.5-7.08-4.3-7.1-8.44-.03-4.44,1.79-10.44,5.88-14.01,1.3-3.13,3.81-5.14,6.89-6.01,4.76-1.34,8.79,2.83,8.82,7.22.01,2.33-.46,4.79-1.33,7.16ZM180.78,115.98c-2.64.75-4.31,2.47-4.95,5.16-.17.61-.17,1.21-.3,1.85-.17.74-.52,1.31-1.31,1.54-.57.16-1.1-.03-1.28-.54-1.62,2.79-2.3,5.92-2.29,8.68.01,2.54.97,7.58,4.45,6.6,5.06-1.43,9.18-7.35,10.78-12.08.69-1.97,1.08-3.93,1.07-5.83-.02-2.93-2.95-6.29-6.16-5.38Z"/>
          <path class="cls-3" d="M208.87,131.19c-3.3.93-3.46-3.08-3.47-5.41,0-1.47.07-2.91.06-4.34,0-.78-.07-3.95-.77-4.01-.13,0-.27-.01-.44.04-1.98.56-5.13,4.78-6.22,6.51-.7,1.06-1.31,2.14-1.88,3.25-.22.41-.53.71-.96.92.01,2.07.07,4.25.21,6.29v.17c.05.72-.56,1.5-1.31,1.71-.66.19-1.15-.19-1.28-.76-.32-1.51-.29-5.36-.3-7.08-.01-2.11.02-4.28.05-6.41.04-1.09-.01-2.24.11-3.31.08-.71.57-1.37,1.31-1.58.75-.21,1.37.22,1.33.92v.13c-.08,2.01-.11,3.96-.14,5.96,1.83-3.07,5.64-8.33,9.12-9.32,3.61-1.02,3.81,2.9,3.83,5.48,0,1.51-.07,3-.06,4.51,0,.47.02,3.97.77,3.75.26-.07.53-.28.79-.35.75-.21,1.33.23,1.33.96,0,1.08-1.14,1.7-2.06,1.97Z"/>
          <path class="cls-3" d="M219.48,96.48c-1.51,6.09-2.05,12.46-2.32,18.37-.12,2.02-.15,4.02-.14,6,0,1.68.07,5.29.61,6.74.17-.14.4-.28.62-.35.75-.21,1.32.27,1.33.96,0,1.16-1.36,1.94-2.33,2.21-.18.05-.4.07-.57.08-1.81,0-2-3.28-2.14-4.71-.14-1.51-.19-3.1-.2-4.69,0-1.51.03-3.03.11-4.57.19-4.46.57-9.01,1.25-13.57.3-2.11.59-4.36,1.24-6.49.17-.61.66-1.13,1.27-1.31.75-.21,1.32.23,1.33.96,0,.13,0,.22-.04.36Z"/>
          <path class="cls-3" d="M227.29,127.45c-3,.85-3.21-5.57-3.22-7.47-.01-2.03.11-4.22.58-6.3.13-.64.61-1.21,1.27-1.4.71-.2,1.32.23,1.33.92,0,.09-.04.18-.04.27-.34,1.87-.55,3.74-.54,5.55,0,1.6.2,4.31.87,5.58.39-.5.57-.89,1.23-1.08.71-.2,1.33.23,1.33.92,0,1.21-1.71,2.68-2.8,3ZM229.01,104.24c-1.41.4-2.75-2.03-3.24-2.84-.13-.18-.22-.41-.22-.67,0-.73.56-1.46,1.31-1.67.48-.14.93,0,1.15.37.36.59,1.16,1.96,1.78,2.26.31.17.53.5.54.89,0,.73-.57,1.46-1.31,1.67Z"/>
          <path class="cls-3" d="M250.84,119.32c-3.3.93-3.46-3.08-3.47-5.41,0-1.47.07-2.92.06-4.34,0-.78-.07-3.95-.77-4.01-.13,0-.27-.01-.44.04-1.98.56-5.13,4.78-6.23,6.51-.7,1.06-1.31,2.14-1.88,3.25-.22.41-.53.71-.96.92.01,2.07.07,4.26.21,6.29v.17c.05.72-.56,1.5-1.31,1.71-.66.19-1.15-.19-1.28-.76-.32-1.51-.3-5.36-.31-7.08-.01-2.11.02-4.28.05-6.41.04-1.09-.01-2.24.11-3.31.08-.71.57-1.37,1.31-1.58.75-.21,1.37.22,1.33.92v.13c-.08,2.01-.11,3.96-.14,5.96,1.83-3.07,5.64-8.33,9.12-9.32,3.61-1.02,3.81,2.9,3.83,5.48,0,1.51-.07,3-.06,4.51,0,.47.02,3.97.77,3.75.26-.08.53-.28.79-.35.75-.21,1.33.23,1.33.96,0,1.08-1.14,1.7-2.06,1.96Z"/>
          <path class="cls-3" d="M273.85,109.57c-.35.44-.83.93-1.27,1.35-2.5,2.48-5.53,4.42-8.66,5.3-5.5,1.56-8.69-.44-8.72-5.87,0-1.68.24-3.44.81-5.2,1.21-4.06,4.32-8.82,8.68-10.06,3.61-1.02,7.64,1.68,7.66,5.22.02,4.05-9.52,8.14-12.56,9-.88.25-1.72.4-1.9-.63v.91c.03,3.97,2.02,5.17,6.03,4.04,2.47-.7,4.93-2.26,6.95-4.17.44-.43.83-.88,1.27-1.35.26-.29.53-.45.83-.54.75-.21,1.32.19,1.33.88,0,.43-.13.73-.43,1.12ZM268.45,98.79c-.84-.89-2.26-1.52-3.75-1.1-4.14,1.17-6.4,6.95-6.78,10.47.3-1.08,1.14-1.23,1.98-1.47,2.16-.61,8.41-3.37,9.8-5.54v-.13c0-.78-.8-1.76-1.25-2.24Z"/>
        </g>
      </g>
    </g>
  </g>
</svg>