<?xml version="1.0" encoding="UTF-8"?>
<svg id="_レイヤー_2" data-name="レイヤー 2" xmlns="http://www.w3.org/2000/svg" xmlns:xlink="http://www.w3.org/1999/xlink" viewBox="0 0 300 240">
  <defs>
    <style>
      .cls-1, .cls-2, .cls-3, .cls-4, .cls-5, .cls-6, .cls-7 {
        fill: none;
      }

      .cls-2, .cls-3, .cls-4, .cls-5, .cls-6, .cls-7 {
        stroke: #300;
        stroke-miterlimit: 2.61;
      }

      .cls-2, .cls-3, .cls-5 {
        stroke-width: 1.44px;
      }

      .cls-2, .cls-4, .cls-5 {
        stroke-linecap: round;
      }

      .cls-8 {
        fill: #fcf0d0;
      }

      .cls-4, .cls-7 {
        stroke-width: 1.5px;
      }

      .cls-5, .cls-7 {
        fill-rule: evenodd;
      }

      .cls-9 {
        clip-path: url(#clippath);
      }

      .cls-6 {
        stroke-width: 1.2px;
      }
    </style>
    <clipPath id="clippath">
      <rect class="cls-1" width="300" height="240"/>
    </clipPath>
  </defs>
  <g id="_デザイン" data-name="デザイン">
    <g class="cls-9">
      <g>
        <circle class="cls-3" cx="245.05" cy="96.68" r="3.24"/>
        <path class="cls-8" d="M173.39,121.58c13.67,0,13.69-21.24,0-21.24s-13.69,21.24,0,21.24h0Z"/>
        <path class="cls-8" d="M208.99,144.21c13.67,0,13.69-21.24,0-21.24s-13.69,21.24,0,21.24h0Z"/>
        <path class="cls-8" d="M211.65,187.15c5.48-6.92,11.85-12.39,19.63-16.56,12.05-6.46,1.34-24.81-10.72-18.34-9.2,4.93-17.45,11.69-23.93,19.88-3.56,4.49-4.39,10.63,0,15.02,3.69,3.69,11.44,4.52,15.02,0h0Z"/>
        <circle class="cls-3" cx="192.07" cy="106.17" r="3.24"/>
        <circle class="cls-3" cx="204.89" cy="103.87" r="3.24"/>
        <circle class="cls-3" cx="218.58" cy="101.52" r="3.24"/>
        <circle class="cls-3" cx="231.71" cy="99.17" r="3.24"/>
        <line class="cls-2" x1="183.13" y1="114.85" x2="259.36" y2="102.67"/>
        <path class="cls-5" d="M218.98,129.52s-4.16-7.87-13.98-6.3-16.68,20.58-2.27,24.77"/>
        <path class="cls-5" d="M216.5,132.13s5.1-4.4,6.88.35c1.78,4.75-3.43,5.24-6,5.14"/>
        <path class="cls-5" d="M225.27,150.7s11.88,16.7,13.77,21.01"/>
        <path class="cls-5" d="M199.47,155.85s-12.24,12.02-2.63,15.61"/>
        <polyline class="cls-5" points="203.51 152.81 219.55 145.3 202.11 158.49 220.36 150.37"/>
        <line class="cls-2" x1="192.7" y1="181.84" x2="240.96" y2="174.13"/>
        <path class="cls-6" d="M247.05,184.71c-.36.06-1.35-1.58-2.36-1.42-.6.09-1.02,1.95-1.81,2.08-.64.1-1.62-1.54-2.37-1.42-.66.1-1.08,1.96-1.81,2.08-.67.11-1.64-1.53-2.37-1.41-.67.11-1.09,1.97-1.81,2.08-.68.11-1.65-1.53-2.36-1.42s-1.1,1.97-1.81,2.08-1.66-1.53-2.37-1.41-1.1,1.97-1.81,2.08-1.66-1.53-2.37-1.41-1.11,1.97-1.81,2.08-1.67-1.53-2.37-1.41-1.11,1.97-1.81,2.08-1.67-1.53-2.37-1.41-1.11,1.97-1.81,2.08-1.68-1.52-2.38-1.41-1.12,1.97-1.82,2.08-1.68-1.52-2.37-1.41-1.12,1.97-1.81,2.08-1.68-1.52-2.37-1.41-1.12,1.97-1.82,2.08-1.68-1.52-2.37-1.41-1.13,1.97-1.81,2.08-1.69-1.52-2.37-1.41-1.13,1.97-1.81,2.08-1.69-1.52-2.37-1.41c-.72.12-1.14,1.98-1.81,2.08-.73.12-1.71-1.52-2.37-1.41-.74.12-1.15,1.98-1.81,2.08-.75.12-1.73-1.51-2.37-1.41"/>
        <path class="cls-6" d="M248,190.66c-.36.06-1.35-1.58-2.36-1.42-.6.09-1.02,1.95-1.81,2.08-.64.1-1.62-1.54-2.37-1.42-.66.1-1.08,1.96-1.81,2.08-.67.11-1.64-1.53-2.37-1.41-.67.11-1.09,1.97-1.81,2.08-.68.11-1.65-1.53-2.36-1.42s-1.1,1.97-1.81,2.08-1.66-1.53-2.37-1.41-1.1,1.97-1.81,2.08-1.66-1.53-2.37-1.41-1.11,1.97-1.81,2.08-1.67-1.53-2.37-1.41-1.11,1.97-1.81,2.08-1.67-1.53-2.37-1.41-1.11,1.97-1.81,2.08-1.68-1.52-2.38-1.41-1.12,1.97-1.82,2.08-1.68-1.52-2.37-1.41-1.12,1.97-1.81,2.08-1.68-1.52-2.37-1.41-1.12,1.97-1.82,2.08-1.68-1.52-2.37-1.41-1.13,1.97-1.81,2.08-1.69-1.52-2.37-1.41-1.13,1.97-1.81,2.08-1.69-1.52-2.37-1.41c-.72.12-1.14,1.98-1.81,2.08-.73.12-1.71-1.52-2.37-1.41-.74.12-1.15,1.98-1.81,2.08-.75.12-1.73-1.51-2.37-1.41"/>
        <path class="cls-6" d="M248.95,196.61c-.36.06-1.35-1.58-2.36-1.42-.6.09-1.02,1.95-1.81,2.08-.64.1-1.62-1.54-2.37-1.42-.66.1-1.08,1.96-1.81,2.08-.67.11-1.64-1.53-2.37-1.41-.67.11-1.09,1.97-1.81,2.08-.68.11-1.65-1.53-2.36-1.42s-1.1,1.97-1.81,2.08-1.66-1.53-2.37-1.41-1.1,1.97-1.81,2.08-1.66-1.53-2.37-1.41-1.11,1.97-1.81,2.08-1.67-1.53-2.37-1.41-1.11,1.97-1.81,2.08-1.67-1.53-2.37-1.41-1.11,1.97-1.81,2.08-1.68-1.52-2.38-1.41-1.12,1.97-1.82,2.08-1.68-1.52-2.37-1.41-1.12,1.97-1.81,2.08-1.68-1.52-2.37-1.41-1.12,1.97-1.82,2.08-1.68-1.52-2.37-1.41-1.13,1.97-1.81,2.08-1.69-1.52-2.37-1.41-1.13,1.97-1.81,2.08-1.69-1.52-2.37-1.41c-.72.12-1.14,1.98-1.81,2.08-.73.12-1.71-1.52-2.37-1.41-.74.12-1.15,1.98-1.81,2.08-.75.12-1.73-1.51-2.37-1.41"/>
        <path class="cls-5" d="M201.34,129.1s-2.73,6.41,2.31,14.48"/>
        <path class="cls-5" d="M208,134.17c-8.27.3-11.49,3.12-11.49,3.12"/>
        <path class="cls-7" d="M263.07,207.33l-89.32,14.27c-.96.15-1.87-.51-2.03-1.47l-28.34-125.66c-.15-.96.51-1.87,1.47-2.03l135.11-20.2c.96-.15,1.87.51,2.03,1.47l-17.45,131.6c.15.96-.51,1.87-1.47,2.03Z"/>
        <circle class="cls-3" cx="171.12" cy="110.36" r="10.09"/>
        <g>
          <path class="cls-8" d="M91.58,108.25c.02,12.43,1.52,24.87,4.29,36.99,1.73,7.57,10.43,12.03,17.68,10.04,7.77-2.14,11.78-10.09,10.04-17.68-2.25-9.83-3.24-19.11-3.26-29.35-.02-7.77-6.6-14.38-14.38-14.38s-14.39,6.58-14.38,14.38h0Z"/>
          <g>
            <path class="cls-8" d="M35.83,42.28c.81,11.76,1.61,23.52,2.42,35.28.53,7.75,6.23,14.38,14.38,14.38,7.37,0,14.91-6.59,14.38-14.38-.81-11.76-1.61-23.52-2.42-35.28-.53-7.75-6.23-14.38-14.38-14.38-7.37,0-14.91,6.59-14.38,14.38h0Z"/>
            <circle class="cls-2" cx="111.21" cy="147.07" r="3.95"/>
            <path class="cls-4" d="M133.68,158.39l-36.79,6.5c-2.99.53-5.84-1.47-6.37-4.46l-14.2-59.84c-.53-2.99,1.47-5.84,4.46-6.37l41.94-6.09c2.99-.53,5.84,1.47,6.37,4.46l9.05,59.43c.53,2.99-1.47,5.84-4.46,6.37Z"/>
            <circle class="cls-2" cx="104.48" cy="108.97" r="3.95"/>
            <circle class="cls-2" cx="106.52" cy="120.51" r="3.95"/>
            <circle class="cls-2" cx="109.17" cy="135.53" r="3.95"/>
            <path class="cls-2" d="M118.33,100.78c.5,2.85-2.98,3.47-2.48,6.32s3.99,2.23,4.49,5.09-2.98,3.47-2.48,6.31,3.99,2.24,4.49,5.09-2.98,3.47-2.48,6.32,3.99,2.24,4.49,5.09"/>
            <g>
              <path class="cls-4" d="M82.7,86.77l-36.21,9.2c-2.94.75-5.93-1.03-6.68-3.97l-19.86-58.75c-.75-2.94,1.03-5.93,3.97-6.68l42.66-9.05c2.94-.75,5.93,1.03,6.68,3.97l13.41,58.6c.75,2.94-1.03,5.93-3.97,6.68Z"/>
              <circle class="cls-2" cx="49.93" cy="39.64" r="3.95"/>
              <circle class="cls-2" cx="52.82" cy="51" r="3.95"/>
              <circle class="cls-2" cx="56.58" cy="65.78" r="3.95"/>
              <circle class="cls-2" cx="59.46" cy="77.14" r="3.95"/>
              <path class="cls-2" d="M63.14,30.45c.71,2.81-2.72,3.68-2.01,6.48s4.14,1.93,4.86,4.74-2.72,3.68-2.01,6.48,4.14,1.94,4.86,4.74-2.72,3.68-2,6.49,4.14,1.94,4.86,4.75"/>
            </g>
          </g>
        </g>
      </g>
    </g>
  </g>
</svg>