<?xml version="1.0" encoding="UTF-8"?>
<svg id="_レイヤー_2" data-name="レイヤー 2" xmlns="http://www.w3.org/2000/svg" xmlns:xlink="http://www.w3.org/1999/xlink" viewBox="0 0 160 195">
  <defs>
    <style>
      .cls-1 {
        fill: #fc3;
      }

      .cls-2, .cls-3, .cls-4, .cls-5, .cls-6 {
        fill: none;
      }

      .cls-7 {
        fill: #f2f2f2;
      }

      .cls-3 {
        stroke-miterlimit: 10;
      }

      .cls-3, .cls-4, .cls-5, .cls-6 {
        stroke-linecap: round;
      }

      .cls-3, .cls-6 {
        stroke: #300;
      }

      .cls-8 {
        fill: #fcf0d0;
      }

      .cls-4 {
        stroke: #000;
      }

      .cls-4, .cls-5, .cls-6 {
        stroke-linejoin: round;
      }

      .cls-5 {
        stroke: #300;
      }

      .cls-9 {
        clip-path: url(#clippath);
      }
    </style>
    <clipPath id="clippath">
      <rect class="cls-2" width="160" height="195"/>
    </clipPath>
  </defs>
  <g id="_デザイン" data-name="デザイン">
    <g class="cls-9">
      <circle class="cls-8" cx="72.95" cy="64.51" r="60"/>
      <g>
        <path class="cls-1" d="M130.08,109.47c-.13,4.4-3.3,8.12-7.55,8.84-9.85,1.68-20.18,1.52-30.92-.14-4.5-.7-7.79-4.7-7.71-9.35.28-16.96,1.38-33.52,3.5-49.6.57-4.32,3.96-7.71,8.2-8.13,1.55-.15,3.11-.27,4.69-.35v35.7c0,.87.69,1.58,1.55,1.58h8.79c.85,0,1.55-.71,1.55-1.58v-35.71c2.32.11,4.67.28,7.05.51,4.26.4,7.69,3.76,8.27,8.09,2.28,17,3.06,33.7,2.58,50.14Z"/>
        <path class="cls-7" d="M100.3,50.74v35.7c0,.87.69,1.58,1.55,1.58h8.79c.85,0,1.55-.71,1.55-1.58v-35.71c-4.06-.19-8.02-.2-11.89,0ZM108.52,72.82c0,1.02-.81,1.85-1.81,1.85h-.79c-1,0-1.81-.83-1.81-1.85v-7.39c0-1.02.81-1.84,1.81-1.84h.79c1,0,1.81.83,1.81,1.84v7.39Z"/>
        <path class="cls-8" d="M108.52,65.43v7.39c0,1.02-.81,1.85-1.81,1.85h-.79c-1,0-1.81-.83-1.81-1.85v-7.39c0-1.02.81-1.84,1.81-1.84h.79c1,0,1.81.83,1.81,1.84Z"/>
        <path class="cls-4" d="M128.97,97.54c.02,3.71-.02,7.41-.13,11.09-.13,4.4-3.3,8.12-7.55,8.84-9.85,1.68-20.18,1.52-30.92-.14-4.5-.7-7.79-4.7-7.71-9.35.24-14.98,1.14-29.66,2.8-43.97"/>
        <path class="cls-6" d="M90.44,51.61c1.16-.73,2.49-1.21,3.92-1.35,1.55-.15,3.11-.27,4.69-.35v35.7c0,.87.69,1.58,1.55,1.58h8.79c.85,0,1.55-.71,1.55-1.58v-35.71c2.32.11,4.67.28,7.05.51,4.26.4,7.69,3.76,8.27,8.09.87,6.46,1.52,12.88,1.96,19.26.13,1.85.24,3.7.34,5.55"/>
        <path class="cls-5" d="M99.05,49.91v35.7c0,.87.69,1.58,1.55,1.58h8.79c.85,0,1.55-.71,1.55-1.58v-35.71c-4.06-.19-8.02-.2-11.89,0ZM107.27,71.99c0,1.02-.81,1.85-1.81,1.85h-.79c-1,0-1.81-.83-1.81-1.85v-7.39c0-1.02.81-1.84,1.81-1.84h.79c1,0,1.81.83,1.81,1.84v7.39Z"/>
        <path class="cls-6" d="M107.27,64.6v7.39c0,1.02-.81,1.85-1.81,1.85h-.79c-1,0-1.81-.83-1.81-1.85v-7.39c0-1.02.81-1.84,1.81-1.84h.79c1,0,1.81.83,1.81,1.84Z"/>
        <path class="cls-8" d="M103.6,195c.38-15.52,3.27-32.07-3.74-40.85-7-8.78-19.28-24.32-20.34-41.46-1.06-17.14-1.2-23.42,1.96-23.5,4.06-.1,5.75,7.47,5.58,14.39,1.09,3.89,5.85,11.42,7.63,11.47s2.26-11.42.74-21.94c-1.52-10.53-4.24-20.69-4.93-24.86s-1.41-11.01,2.05-10.83c3.46.19,8.91,15.85,9.76,21.42.85,5.56,4.44,20.39,7.01,20.75,2.56.36,6.18-17.58,6.24-20.36.07-2.77-.25-19.91,3.02-22.45,3.28-2.54,5.47,2.8,5.87,6.77.39,3.97.93,14.24.86,17.15s-3.03,20.51-1.58,20.92c.96.27,7.44-8.93,7.76-16.18.33-7.51.23-19.54,4.48-19.43,4.25.11,3.53,15.23,3.5,18.29,3.02,3.42,3.61,6.67,3.75,10.34.19,5.13.08,8.72-.52,15.01-.6,6.29-10.81,28.87-10.99,36.29-.18,7.41,6.36,42.75,9.48,48.91l-37.6.16Z"/>
        <g>
          <path class="cls-3" d="M84.01,131.51c-3.48-6.55-6.19-13.89-6.66-21.54-1.06-17.14-1.2-23.42,1.97-23.5,4.06-.1,5.75,7.46,5.58,14.38,1.09,3.89,5.85,11.42,7.63,11.47s2.26-11.42.74-21.95c-1.52-10.52-4.24-20.68-4.93-24.86-.69-4.17-1.41-11.02,2.05-10.83,3.46.18,8.91,15.85,9.76,21.41s4.44,20.39,7.01,20.75,6.18-17.59,6.25-20.35c.07-2.77-.25-19.91,3.02-22.45,3.28-2.54,5.47,2.81,5.87,6.77.4,3.97.93,14.24.86,17.16s-3.03,20.51-1.58,20.91c.96.27,7.44-8.93,7.75-16.18.33-7.51.23-19.54,4.48-19.43s3.53,15.22,3.51,18.29c-.03,3.07-2.49,18.54-3.9,21.57"/>
          <path class="cls-3" d="M101.43,192.29c.38-15.52,3.27-32.07-3.74-40.85-2.26-2.84-5.08-6.38-7.89-10.46"/>
          <path class="cls-3" d="M134.24,174.1c.14.66.27,1.32.41,1.97.79,3.72,1.6,7.16,2.35,9.96.75,2.8,1.45,4.96,2.03,6.11"/>
          <path class="cls-3" d="M132.67,166.1c.11.58.22,1.17.33,1.76"/>
          <path class="cls-3" d="M137.31,81.58c3.02,3.43,3.61,6.67,3.75,10.34.19,5.13.08,8.72-.52,15.01-.6,6.29-10.8,28.87-10.99,36.29-.07,2.64.72,8.82,1.9,15.96"/>
        </g>
        <line class="cls-3" x1="74.79" y1="54.06" x2="63.5" y2="56.1"/>
        <line class="cls-3" x1="76.01" y1="48.04" x2="69.89" y2="44.72"/>
        <line class="cls-3" x1="79.62" y1="45.18" x2="71.36" y2="31.46"/>
        <line class="cls-3" x1="84.34" y1="42.93" x2="82.92" y2="33.94"/>
        <line class="cls-3" x1="89.45" y1="43.41" x2="94.22" y2="29.6"/>
      </g>
    </g>
  </g>
</svg>