<?xml version="1.0" encoding="UTF-8"?>
<svg id="_レイヤー_2" data-name="レイヤー 2" xmlns="http://www.w3.org/2000/svg" xmlns:xlink="http://www.w3.org/1999/xlink" viewBox="0 0 160 195">
  <defs>
    <style>
      .cls-1 {
        fill: #fff;
      }

      .cls-2 {
        fill: #fc3;
      }

      .cls-3, .cls-4, .cls-5 {
        fill: none;
      }

      .cls-6 {
        fill: #fcf0d0;
      }

      .cls-4 {
        stroke: #300;
      }

      .cls-4, .cls-5 {
        stroke-linecap: round;
        stroke-miterlimit: 10;
      }

      .cls-5 {
        stroke: #4d4d4d;
      }

      .cls-7 {
        fill: #300;
      }

      .cls-8 {
        clip-path: url(#clippath);
      }
    </style>
    <clipPath id="clippath">
      <rect class="cls-3" width="160" height="195"/>
    </clipPath>
  </defs>
  <g id="_デザイン" data-name="デザイン">
    <g class="cls-8">
      <circle class="cls-6" cx="64.95" cy="64.51" r="60"/>
      <g>
        <g>
          <path class="cls-6" d="M95.78,112.65c1.96,2.29-2.75,7.06-4.96,8.81-2.21,1.76-5.57,4.39-6.78,6.81s-12.74,18.53-19.65,22.99c-5.42,3.5-8.58,15.22-11.15,23.49-2.57,8.27-3.03,11.01-3.03,11.01l-25.63-6.45,2.75-4.81s9.94-20.86,10.32-27.66c.38-6.79-6.82-15.95-7.95-21.91-1.13-5.96-.76-8.9-1.99-13.68-1.23-4.78-2.98-6.22-3.13-9.25-.14-3.03,1.42-5.71,1.04-10.49-.38-4.78-.23-6.84.85-7.06,1.61-.32,6.4,4.21,7.65,8.44,1.26,4.26.64,7.77.78,9.93.14,2.16.66,6.12,2.37,8.33,1.11,1.44,2.52,2.42,4.51,4.62,2.49-2.62,4.97-4.47,6.47-6.17,1.5-1.71,2.42-5.84,3.85-8.41,1.42-2.56,3.56-11.76,4.42-16.11.85-4.35,3.64-10.05,4.42-12.69.78-2.64,2.64-12.9,7.27-11.23,4.63,1.68-.14,20.85-1.28,24.06-1.14,3.21-6.13,16.25-4.85,17.68,1.28,1.43,2.57,2.21,3.71,2.14s8.8-13.72,10.67-15.5c5.8-5.53,14.23-10.16,16.62-6.61,2.2,3.27-5.1,9.46-10.24,11.86-2.17,1.01-8.54,14.08-9.35,15.1-.66.83,1.25,2.69,1.85,2.31,1.52-.95,10.79-10.66,11.86-11.52,1.07-.85,7.35-4.73,9.17-1.69,1.81,3.03-3.77,8.06-7.49,9.56-1.9.77-8.14,9.47-8.5,10.36-.15.37,1,1.8,1.51,1.67.66-.16,4.41-3.39,5.69-4.24,1.28-.86,5.63-6.67,8.2-3.67Z"/>
          <g>
            <path class="cls-5" d="M37.89,113.79c1.33,1.32,2.96,3.12,5.02,6.15"/>
            <path class="cls-4" d="M21.99,178.71l2.75-4.81s9.94-20.86,10.32-27.66-6.82-15.95-7.95-21.92c-1.14-5.97-.76-8.9-1.99-13.68s-2.98-6.22-3.12-9.26,1.42-5.71,1.04-10.49c-.38-4.78-.23-6.84.85-7.06,1.61-.32,6.39,4.21,7.65,8.44,1.26,4.26.64,7.77.78,9.93.1,1.52.39,3.94,1.15,6.01"/>
            <path class="cls-4" d="M52.15,169.24c-.53,1.7-1.03,3.36-1.51,4.9-2.57,8.27-3.03,11.01-3.03,11.01"/>
            <path class="cls-4" d="M54.2,163.08c-.12.33-.12.33-.24.66"/>
            <path class="cls-4" d="M39.17,115.18c2.49-2.63,4.99-4.48,6.49-6.19s2.42-5.85,3.85-8.41c1.43-2.57,3.56-11.76,4.42-16.11s3.64-10.05,4.42-12.69,2.64-12.9,7.27-11.23-.14,20.85-1.28,24.06-6.13,16.25-4.85,17.68c1.28,1.43,2.57,2.21,3.71,2.14,1.14-.07,8.8-13.72,10.67-15.5,5.8-5.53,14.23-10.15,16.62-6.6,2.2,3.27-5.1,9.46-10.24,11.85-2.16,1.01-8.54,14.08-9.35,15.1-.66.83,1.25,2.69,1.85,2.31,1.52-.95,10.79-10.67,11.86-11.52s7.35-4.73,9.17-1.7c1.81,3.03-3.77,8.06-7.49,9.57-1.9.77-8.14,9.47-8.5,10.36-.15.37,1,1.8,1.51,1.67.66-.16,4.41-3.39,5.69-4.24,1.28-.86,5.63-6.67,8.2-3.67,1.96,2.29-2.75,7.06-4.96,8.81s-5.57,4.39-6.78,6.81-12.74,18.54-19.65,22.99c-2.18,1.41-4,4.15-5.56,7.47"/>
          </g>
        </g>
        <g>
          <rect class="cls-2" x="34.02" y="51.06" width="49.61" height="90.11" rx="8.18" ry="8.18" transform="translate(-13.61 9.79) rotate(-8.53)"/>
          <path class="cls-4" d="M86.08,119.89l1.12,7.45c.69,4.6-2.06,8.83-6.15,9.44l-34.26,5.14c-4.09.61-7.96-2.62-8.65-7.22l-9.76-65.04"/>
          <line class="cls-4" x1="85.27" y1="114.52" x2="85.28" y2="114.62"/>
          <line class="cls-4" x1="84.81" y1="111.46" x2="84.82" y2="111.56"/>
          <path class="cls-4" d="M27.27,62.37c-.69-4.6,2.06-8.83,6.15-9.44l34.26-5.14c4.09-.61,7.96,2.62,8.65,7.22l7.74,51.6"/>
          <rect class="cls-1" x="37.43" y="57.24" width="42.3" height="78.17" rx="3.24" ry="3.24" transform="translate(-13.64 9.76) rotate(-8.53)"/>
          <rect class="cls-4" x="36.19" y="56.44" width="42.3" height="78.17" rx="3.24" ry="3.24" transform="translate(-13.54 9.57) rotate(-8.53)"/>
          <g>
            <circle class="cls-7" cx="46" cy="54.6" r="1.34"/>
            <rect class="cls-7" x="48.72" y="52.15" width="9.08" height="2.72" rx="1.32" ry="1.32" transform="translate(-7.35 8.5) rotate(-8.53)"/>
          </g>
        </g>
        <g>
          <path class="cls-6" d="M153.18,193.05l-28.89-.48c-2.6-7.68-4.21-10.62-9.72-13.82-4.77-2.76-11.57-2.44-18.17-6.26-3.07-1.77-9.86-5.82-15.52-11.14-2.95-2.77-6.69-7.9-9.21-10.13-2.95-2.61-6.66-6.26-5.26-7.2,5.04-3.38,9.89,1.77,12.02,4.13,2.39,2.64,7.57,5.94,9.47,6.76-.68-2.52-1.61-5.54-2.55-7.76-1.32-3.11-6.47-13.89-8.63-16.81-2.16-2.92-10.52-19.39-7.34-21.47,3.98-2.61,14.05,15.03,15.19,16.26.62.67,2.33,4.11,4.12,7.67.62-2.02,2.98-2.98,5.23-3.01,1.56-.02,2.87.62,3.97,1.53.89-2.95,2.07-4.37,4.57-4.96,2.58-.61,4.76.58,6.41,2.14.55-2.01,2.72-4.23,6.64-3.16,5.55,1.52,13.49,16.27,14.92,25,1.44,8.73,1.86,12.34,4.66,16.55,2.8,4.21,18.08,26.14,18.08,26.14Z"/>
          <g>
            <path class="cls-4" d="M120.84,190.79c-1.74-5.88-6.49-11.25-8.88-12.64-4.77-2.77-11.57-2.44-18.17-6.26-3.07-1.78-9.86-5.82-15.52-11.14-2.95-2.77-6.69-7.9-9.21-10.13-2.95-2.61-6.66-6.26-5.26-7.2,5.04-3.38,9.89,1.77,12.02,4.13,2.42,2.67,7.7,6.02,9.54,6.79"/>
            <path class="cls-4" d="M85.98,157.03c-.61-2.68-1.91-7.36-3.23-10.46s-6.47-13.89-8.63-16.81c-2.16-2.93-10.52-19.39-7.34-21.47,3.98-2.6,14.05,15.03,15.19,16.26,1.14,1.23,6.01,11.89,8.17,15.36"/>
            <path class="cls-4" d="M106.27,127.92c.55-2.01,2.72-4.23,6.64-3.16,5.55,1.52,13.49,16.26,14.92,25,1.44,8.73,1.86,12.34,4.66,16.55,2.8,4.21,18.08,26.14,18.08,26.14"/>
            <path class="cls-4" d="M86.09,132.22c.62-2.02,2.98-2.98,5.23-3.01,3.84-.05,6.14,3.87,7.72,6.16"/>
            <path class="cls-4" d="M95.3,130.74c.89-2.95,2.07-4.37,4.57-4.96,4.47-1.06,7.75,3.28,9.12,5.64"/>
          </g>
        </g>
      </g>
    </g>
  </g>
</svg>